G04 #@! TF.GenerationSoftware,KiCad,Pcbnew,(5.0.1-3-g963ef8bb5)*
G04 #@! TF.CreationDate,2019-06-18T14:48:21-10:00*
G04 #@! TF.ProjectId,OpenHAK_Display,4F70656E48414B5F446973706C61792E,rev?*
G04 #@! TF.SameCoordinates,Original*
G04 #@! TF.FileFunction,Legend,Top*
G04 #@! TF.FilePolarity,Positive*
%FSLAX46Y46*%
G04 Gerber Fmt 4.6, Leading zero omitted, Abs format (unit mm)*
G04 Created by KiCad (PCBNEW (5.0.1-3-g963ef8bb5)) date Tuesday, June 18, 2019 at 02:48:21 PM*
%MOMM*%
%LPD*%
G01*
G04 APERTURE LIST*
%ADD10C,0.300000*%
%ADD11C,0.200000*%
%ADD12C,0.120000*%
%ADD13C,0.150000*%
G04 APERTURE END LIST*
D10*
X119362142Y-111464571D02*
X119719285Y-112464571D01*
X120076428Y-111464571D01*
X121290714Y-112393142D02*
X121147857Y-112464571D01*
X120862142Y-112464571D01*
X120719285Y-112393142D01*
X120647857Y-112321714D01*
X120576428Y-112178857D01*
X120576428Y-111750285D01*
X120647857Y-111607428D01*
X120719285Y-111536000D01*
X120862142Y-111464571D01*
X121147857Y-111464571D01*
X121290714Y-111536000D01*
X122576428Y-112393142D02*
X122433571Y-112464571D01*
X122147857Y-112464571D01*
X122005000Y-112393142D01*
X121933571Y-112321714D01*
X121862142Y-112178857D01*
X121862142Y-111750285D01*
X121933571Y-111607428D01*
X122005000Y-111536000D01*
X122147857Y-111464571D01*
X122433571Y-111464571D01*
X122576428Y-111536000D01*
X139596428Y-94140523D02*
X139596428Y-94378619D01*
X139525000Y-94497666D01*
X139382142Y-94616714D01*
X139096428Y-94676238D01*
X138596428Y-94676238D01*
X138310714Y-94616714D01*
X138167857Y-94497666D01*
X138096428Y-94378619D01*
X138096428Y-94140523D01*
X138167857Y-94021476D01*
X138310714Y-93902428D01*
X138596428Y-93842904D01*
X139096428Y-93842904D01*
X139382142Y-93902428D01*
X139525000Y-94021476D01*
X139596428Y-94140523D01*
X139096428Y-95211952D02*
X137596428Y-95211952D01*
X139025000Y-95211952D02*
X139096428Y-95331000D01*
X139096428Y-95569095D01*
X139025000Y-95688142D01*
X138953571Y-95747666D01*
X138810714Y-95807190D01*
X138382142Y-95807190D01*
X138239285Y-95747666D01*
X138167857Y-95688142D01*
X138096428Y-95569095D01*
X138096428Y-95331000D01*
X138167857Y-95211952D01*
X138167857Y-96819095D02*
X138096428Y-96700047D01*
X138096428Y-96461952D01*
X138167857Y-96342904D01*
X138310714Y-96283380D01*
X138882142Y-96283380D01*
X139025000Y-96342904D01*
X139096428Y-96461952D01*
X139096428Y-96700047D01*
X139025000Y-96819095D01*
X138882142Y-96878619D01*
X138739285Y-96878619D01*
X138596428Y-96283380D01*
X139096428Y-97414333D02*
X138096428Y-97414333D01*
X138953571Y-97414333D02*
X139025000Y-97473857D01*
X139096428Y-97592904D01*
X139096428Y-97771476D01*
X139025000Y-97890523D01*
X138882142Y-97950047D01*
X138096428Y-97950047D01*
X138096428Y-98545285D02*
X139596428Y-98545285D01*
X138882142Y-98545285D02*
X138882142Y-99259571D01*
X138096428Y-99259571D02*
X139596428Y-99259571D01*
X138525000Y-99795285D02*
X138525000Y-100390523D01*
X138096428Y-99676238D02*
X139596428Y-100092904D01*
X138096428Y-100509571D01*
X138096428Y-100926238D02*
X139596428Y-100926238D01*
X138096428Y-101640523D02*
X138953571Y-101104809D01*
X139596428Y-101640523D02*
X138739285Y-100926238D01*
X138096428Y-103128619D02*
X139596428Y-103128619D01*
X139596428Y-103426238D01*
X139525000Y-103604809D01*
X139382142Y-103723857D01*
X139239285Y-103783380D01*
X138953571Y-103842904D01*
X138739285Y-103842904D01*
X138453571Y-103783380D01*
X138310714Y-103723857D01*
X138167857Y-103604809D01*
X138096428Y-103426238D01*
X138096428Y-103128619D01*
X138096428Y-104378619D02*
X139096428Y-104378619D01*
X139596428Y-104378619D02*
X139525000Y-104319095D01*
X139453571Y-104378619D01*
X139525000Y-104438142D01*
X139596428Y-104378619D01*
X139453571Y-104378619D01*
X138167857Y-104914333D02*
X138096428Y-105033380D01*
X138096428Y-105271476D01*
X138167857Y-105390523D01*
X138310714Y-105450047D01*
X138382142Y-105450047D01*
X138525000Y-105390523D01*
X138596428Y-105271476D01*
X138596428Y-105092904D01*
X138667857Y-104973857D01*
X138810714Y-104914333D01*
X138882142Y-104914333D01*
X139025000Y-104973857D01*
X139096428Y-105092904D01*
X139096428Y-105271476D01*
X139025000Y-105390523D01*
X139096428Y-105985761D02*
X137596428Y-105985761D01*
X139025000Y-105985761D02*
X139096428Y-106104809D01*
X139096428Y-106342904D01*
X139025000Y-106461952D01*
X138953571Y-106521476D01*
X138810714Y-106581000D01*
X138382142Y-106581000D01*
X138239285Y-106521476D01*
X138167857Y-106461952D01*
X138096428Y-106342904D01*
X138096428Y-106104809D01*
X138167857Y-105985761D01*
X138096428Y-107295285D02*
X138167857Y-107176238D01*
X138310714Y-107116714D01*
X139596428Y-107116714D01*
X138096428Y-108307190D02*
X138882142Y-108307190D01*
X139025000Y-108247666D01*
X139096428Y-108128619D01*
X139096428Y-107890523D01*
X139025000Y-107771476D01*
X138167857Y-108307190D02*
X138096428Y-108188142D01*
X138096428Y-107890523D01*
X138167857Y-107771476D01*
X138310714Y-107711952D01*
X138453571Y-107711952D01*
X138596428Y-107771476D01*
X138667857Y-107890523D01*
X138667857Y-108188142D01*
X138739285Y-108307190D01*
X139096428Y-108783380D02*
X138096428Y-109081000D01*
X139096428Y-109378619D02*
X138096428Y-109081000D01*
X137739285Y-108961952D01*
X137667857Y-108902428D01*
X137596428Y-108783380D01*
D11*
G04 #@! TO.C,P1*
X127326338Y-111190542D02*
X140326338Y-111190542D01*
X140326338Y-111190542D02*
X140326338Y-112690542D01*
X140326338Y-112690542D02*
X127326338Y-112690542D01*
X127326338Y-112690542D02*
X127326338Y-111190542D01*
D12*
G04 #@! TO.C,test*
X124505000Y-112611000D02*
X125505000Y-112611000D01*
X125505000Y-110911000D02*
X124505000Y-110911000D01*
G04 #@! TO.C,P1*
D13*
X127503242Y-110852922D02*
X127503242Y-109852922D01*
X127884195Y-109852922D01*
X127979433Y-109900542D01*
X128027052Y-109948161D01*
X128074671Y-110043399D01*
X128074671Y-110186256D01*
X128027052Y-110281494D01*
X127979433Y-110329113D01*
X127884195Y-110376732D01*
X127503242Y-110376732D01*
X129027052Y-110852922D02*
X128455623Y-110852922D01*
X128741338Y-110852922D02*
X128741338Y-109852922D01*
X128646099Y-109995780D01*
X128550861Y-110091018D01*
X128455623Y-110138637D01*
G04 #@! TO.C,test*
X123715476Y-109886714D02*
X124096428Y-109886714D01*
X123858333Y-109553380D02*
X123858333Y-110410523D01*
X123905952Y-110505761D01*
X124001190Y-110553380D01*
X124096428Y-110553380D01*
X124810714Y-110505761D02*
X124715476Y-110553380D01*
X124525000Y-110553380D01*
X124429761Y-110505761D01*
X124382142Y-110410523D01*
X124382142Y-110029571D01*
X124429761Y-109934333D01*
X124525000Y-109886714D01*
X124715476Y-109886714D01*
X124810714Y-109934333D01*
X124858333Y-110029571D01*
X124858333Y-110124809D01*
X124382142Y-110220047D01*
X125239285Y-110505761D02*
X125334523Y-110553380D01*
X125525000Y-110553380D01*
X125620238Y-110505761D01*
X125667857Y-110410523D01*
X125667857Y-110362904D01*
X125620238Y-110267666D01*
X125525000Y-110220047D01*
X125382142Y-110220047D01*
X125286904Y-110172428D01*
X125239285Y-110077190D01*
X125239285Y-110029571D01*
X125286904Y-109934333D01*
X125382142Y-109886714D01*
X125525000Y-109886714D01*
X125620238Y-109934333D01*
X125953571Y-109886714D02*
X126334523Y-109886714D01*
X126096428Y-109553380D02*
X126096428Y-110410523D01*
X126144047Y-110505761D01*
X126239285Y-110553380D01*
X126334523Y-110553380D01*
G04 #@! TD*
M02*
