G04 #@! TF.GenerationSoftware,KiCad,Pcbnew,(5.0.1-3-g963ef8bb5)*
G04 #@! TF.CreationDate,2019-06-19T10:09:44-10:00*
G04 #@! TF.ProjectId,OpenHAK_Display,4F70656E48414B5F446973706C61792E,rev?*
G04 #@! TF.SameCoordinates,Original*
G04 #@! TF.FileFunction,Copper,L1,Top,Signal*
G04 #@! TF.FilePolarity,Positive*
%FSLAX46Y46*%
G04 Gerber Fmt 4.6, Leading zero omitted, Abs format (unit mm)*
G04 Created by KiCad (PCBNEW (5.0.1-3-g963ef8bb5)) date Wednesday, June 19, 2019 at 10:09:44 AM*
%MOMM*%
%LPD*%
G01*
G04 APERTURE LIST*
G04 #@! TA.AperFunction,ComponentPad*
%ADD10C,1.150000*%
G04 #@! TD*
G04 #@! TA.AperFunction,SMDPad,CuDef*
%ADD11R,1.000000X1.250000*%
G04 #@! TD*
G04 #@! TA.AperFunction,ViaPad*
%ADD12C,0.600000*%
G04 #@! TD*
G04 #@! TA.AperFunction,Conductor*
%ADD13C,0.250000*%
G04 #@! TD*
G04 #@! TA.AperFunction,Conductor*
%ADD14C,0.200000*%
G04 #@! TD*
G04 APERTURE END LIST*
D10*
G04 #@! TO.P,P1,10*
G04 #@! TO.N,Net-(P1-Pad10)*
X139541338Y-111940542D03*
G04 #@! TO.P,P1,9*
G04 #@! TO.N,Net-(P1-Pad9)*
X138271338Y-111940542D03*
G04 #@! TO.P,P1,8*
G04 #@! TO.N,/OLED_RST*
X137001338Y-111940542D03*
G04 #@! TO.P,P1,7*
G04 #@! TO.N,Net-(P1-Pad7)*
X135731338Y-111940542D03*
G04 #@! TO.P,P1,6*
G04 #@! TO.N,/SCL*
X134461338Y-111940542D03*
G04 #@! TO.P,P1,5*
G04 #@! TO.N,Net-(P1-Pad5)*
X133191338Y-111940542D03*
G04 #@! TO.P,P1,4*
G04 #@! TO.N,/SDA*
X131921338Y-111940542D03*
G04 #@! TO.P,P1,3*
G04 #@! TO.N,Net-(P1-Pad3)*
X130651338Y-111940542D03*
G04 #@! TO.P,P1,2*
G04 #@! TO.N,+3V3*
X129381338Y-111940542D03*
G04 #@! TO.P,P1,1*
G04 #@! TO.N,GND*
X128111338Y-111940542D03*
G04 #@! TD*
D11*
G04 #@! TO.P,test,2*
G04 #@! TO.N,GND*
X126005000Y-111761000D03*
G04 #@! TO.P,test,1*
G04 #@! TO.N,/VCC*
X124005000Y-111761000D03*
G04 #@! TD*
D12*
G04 #@! TO.N,+3V3*
X122271338Y-97540542D03*
X122281338Y-96220542D03*
X139696337Y-102325542D03*
X133274998Y-93161000D03*
G04 #@! TO.N,/OLED_RST*
X136916338Y-100115542D03*
G04 #@! TO.N,/SCL*
X134316338Y-102690542D03*
G04 #@! TO.N,/SDA*
X131716338Y-104065542D03*
G04 #@! TO.N,/VCC*
X126005000Y-109261000D03*
G04 #@! TD*
D13*
G04 #@! TO.N,GND*
X127931796Y-111761000D02*
X128111338Y-111940542D01*
X126005000Y-111761000D02*
X127931796Y-111761000D01*
G04 #@! TO.N,/OLED_RST*
X137001338Y-100200542D02*
X136916338Y-100115542D01*
X137001338Y-111940542D02*
X137001338Y-100200542D01*
G04 #@! TO.N,/SCL*
X134461338Y-102835542D02*
X134316338Y-102690542D01*
X134461338Y-111940542D02*
X134461338Y-102835542D01*
G04 #@! TO.N,/SDA*
X131921338Y-104270542D02*
X131716338Y-104065542D01*
X131921338Y-111940542D02*
X131921338Y-104270542D01*
G04 #@! TO.N,/VCC*
X125505000Y-109261000D02*
X126005000Y-109261000D01*
X124005000Y-110761000D02*
X125505000Y-109261000D01*
X124005000Y-111761000D02*
X124005000Y-110761000D01*
G04 #@! TD*
D14*
G04 #@! TO.N,+3V3*
G36*
X140086363Y-91631845D02*
X140124532Y-91657348D01*
X140150035Y-91695517D01*
X140166339Y-91777484D01*
X140166338Y-111328105D01*
X140036986Y-111198753D01*
X139715386Y-111065542D01*
X139367290Y-111065542D01*
X139045690Y-111198753D01*
X138906338Y-111338105D01*
X138766986Y-111198753D01*
X138445386Y-111065542D01*
X138097290Y-111065542D01*
X137775690Y-111198753D01*
X137636338Y-111338105D01*
X137496986Y-111198753D01*
X137426338Y-111169490D01*
X137426338Y-100452170D01*
X137516338Y-100234889D01*
X137516338Y-99996195D01*
X137424994Y-99775669D01*
X137256211Y-99606886D01*
X137035685Y-99515542D01*
X136796991Y-99515542D01*
X136576465Y-99606886D01*
X136407682Y-99775669D01*
X136316338Y-99996195D01*
X136316338Y-100234889D01*
X136407682Y-100455415D01*
X136576339Y-100624072D01*
X136576338Y-111169490D01*
X136505690Y-111198753D01*
X136366338Y-111338105D01*
X136226986Y-111198753D01*
X135905386Y-111065542D01*
X135557290Y-111065542D01*
X135235690Y-111198753D01*
X135096338Y-111338105D01*
X134956986Y-111198753D01*
X134886338Y-111169490D01*
X134886338Y-102882316D01*
X134916338Y-102809889D01*
X134916338Y-102571195D01*
X134824994Y-102350669D01*
X134656211Y-102181886D01*
X134435685Y-102090542D01*
X134196991Y-102090542D01*
X133976465Y-102181886D01*
X133807682Y-102350669D01*
X133716338Y-102571195D01*
X133716338Y-102809889D01*
X133807682Y-103030415D01*
X133976465Y-103199198D01*
X134036339Y-103223998D01*
X134036338Y-111169490D01*
X133965690Y-111198753D01*
X133826338Y-111338105D01*
X133686986Y-111198753D01*
X133365386Y-111065542D01*
X133017290Y-111065542D01*
X132695690Y-111198753D01*
X132556338Y-111338105D01*
X132416986Y-111198753D01*
X132346338Y-111169490D01*
X132346338Y-104312399D01*
X132354664Y-104270542D01*
X132321679Y-104104715D01*
X132316338Y-104096722D01*
X132316338Y-103946195D01*
X132224994Y-103725669D01*
X132056211Y-103556886D01*
X131835685Y-103465542D01*
X131596991Y-103465542D01*
X131376465Y-103556886D01*
X131207682Y-103725669D01*
X131116338Y-103946195D01*
X131116338Y-104184889D01*
X131207682Y-104405415D01*
X131376465Y-104574198D01*
X131496339Y-104623851D01*
X131496338Y-111169490D01*
X131425690Y-111198753D01*
X131286338Y-111338105D01*
X131146986Y-111198753D01*
X130825386Y-111065542D01*
X130477290Y-111065542D01*
X130155690Y-111198753D01*
X129909549Y-111444894D01*
X129782575Y-111751437D01*
X129593470Y-111940542D01*
X129782575Y-112129647D01*
X129909549Y-112436190D01*
X130068049Y-112594690D01*
X129823578Y-112594914D01*
X129381338Y-112152674D01*
X128938286Y-112595726D01*
X128693367Y-112595950D01*
X128853127Y-112436190D01*
X128980101Y-112129647D01*
X129169206Y-111940542D01*
X128980101Y-111751437D01*
X128853127Y-111444894D01*
X128674721Y-111266488D01*
X128919416Y-111266488D01*
X129381338Y-111728410D01*
X129843260Y-111266488D01*
X129776908Y-111140892D01*
X129440784Y-111050384D01*
X129095610Y-111095394D01*
X128985768Y-111140892D01*
X128919416Y-111266488D01*
X128674721Y-111266488D01*
X128606986Y-111198753D01*
X128285386Y-111065542D01*
X127937290Y-111065542D01*
X127615690Y-111198753D01*
X127478443Y-111336000D01*
X126810877Y-111336000D01*
X126810877Y-111136000D01*
X126787593Y-111018946D01*
X126721288Y-110919712D01*
X126622054Y-110853407D01*
X126505000Y-110830123D01*
X125505000Y-110830123D01*
X125387946Y-110853407D01*
X125288712Y-110919712D01*
X125222407Y-111018946D01*
X125199123Y-111136000D01*
X125199123Y-112386000D01*
X125222407Y-112503054D01*
X125286565Y-112599075D01*
X124723090Y-112599592D01*
X124787593Y-112503054D01*
X124810877Y-112386000D01*
X124810877Y-111136000D01*
X124787593Y-111018946D01*
X124721288Y-110919712D01*
X124622054Y-110853407D01*
X124531622Y-110835418D01*
X125631256Y-109735785D01*
X125665127Y-109769656D01*
X125885653Y-109861000D01*
X126124347Y-109861000D01*
X126344873Y-109769656D01*
X126513656Y-109600873D01*
X126605000Y-109380347D01*
X126605000Y-109141653D01*
X126513656Y-108921127D01*
X126344873Y-108752344D01*
X126124347Y-108661000D01*
X125885653Y-108661000D01*
X125665127Y-108752344D01*
X125581471Y-108836000D01*
X125546855Y-108836000D01*
X125504999Y-108827674D01*
X125463143Y-108836000D01*
X125463142Y-108836000D01*
X125339173Y-108860659D01*
X125198592Y-108954592D01*
X125174881Y-108990078D01*
X123734079Y-110430881D01*
X123698593Y-110454592D01*
X123674882Y-110490078D01*
X123604659Y-110595174D01*
X123571674Y-110761000D01*
X123580001Y-110802862D01*
X123580001Y-110830123D01*
X123505000Y-110830123D01*
X123387946Y-110853407D01*
X123288712Y-110919712D01*
X123222407Y-111018946D01*
X123199123Y-111136000D01*
X123199123Y-112386000D01*
X123222407Y-112503054D01*
X123287790Y-112600908D01*
X117783193Y-112605957D01*
X117666747Y-112582794D01*
X117620467Y-112551871D01*
X117589544Y-112505592D01*
X117571329Y-112414019D01*
X117570568Y-109992720D01*
X119412752Y-109992720D01*
X119412752Y-110271198D01*
X119519320Y-110528477D01*
X119716234Y-110725391D01*
X119973513Y-110831959D01*
X120251991Y-110831959D01*
X120509270Y-110725391D01*
X120706184Y-110528477D01*
X120812752Y-110271198D01*
X120812752Y-109992720D01*
X120706184Y-109735441D01*
X120509270Y-109538527D01*
X120251991Y-109431959D01*
X119973513Y-109431959D01*
X119716234Y-109538527D01*
X119519320Y-109735441D01*
X119412752Y-109992720D01*
X117570568Y-109992720D01*
X117570118Y-108565808D01*
X118055857Y-108565560D01*
X118095000Y-108573346D01*
X118241316Y-108544242D01*
X118365359Y-108461359D01*
X118448242Y-108337317D01*
X118470000Y-108227931D01*
X118470000Y-108208912D01*
X118473683Y-108190347D01*
X118470000Y-108171880D01*
X118470000Y-95408914D01*
X118473683Y-95390349D01*
X118470000Y-95371882D01*
X118470000Y-95354069D01*
X118448242Y-95244683D01*
X118365359Y-95120641D01*
X118241317Y-95037758D01*
X118095000Y-95008654D01*
X118060290Y-95015558D01*
X117560000Y-95015811D01*
X117560000Y-93242720D01*
X119412752Y-93242720D01*
X119412752Y-93521198D01*
X119519320Y-93778477D01*
X119716234Y-93975391D01*
X119973513Y-94081959D01*
X120251991Y-94081959D01*
X120509270Y-93975391D01*
X120706184Y-93778477D01*
X120812752Y-93521198D01*
X120812752Y-93242720D01*
X120706184Y-92985441D01*
X120509270Y-92788527D01*
X120251991Y-92681959D01*
X119973513Y-92681959D01*
X119716234Y-92788527D01*
X119519320Y-92985441D01*
X119412752Y-93242720D01*
X117560000Y-93242720D01*
X117560000Y-91777478D01*
X117576303Y-91695517D01*
X117601806Y-91657348D01*
X117639975Y-91631845D01*
X117719640Y-91615999D01*
X140004405Y-91615543D01*
X140086363Y-91631845D01*
X140086363Y-91631845D01*
G37*
X140086363Y-91631845D02*
X140124532Y-91657348D01*
X140150035Y-91695517D01*
X140166339Y-91777484D01*
X140166338Y-111328105D01*
X140036986Y-111198753D01*
X139715386Y-111065542D01*
X139367290Y-111065542D01*
X139045690Y-111198753D01*
X138906338Y-111338105D01*
X138766986Y-111198753D01*
X138445386Y-111065542D01*
X138097290Y-111065542D01*
X137775690Y-111198753D01*
X137636338Y-111338105D01*
X137496986Y-111198753D01*
X137426338Y-111169490D01*
X137426338Y-100452170D01*
X137516338Y-100234889D01*
X137516338Y-99996195D01*
X137424994Y-99775669D01*
X137256211Y-99606886D01*
X137035685Y-99515542D01*
X136796991Y-99515542D01*
X136576465Y-99606886D01*
X136407682Y-99775669D01*
X136316338Y-99996195D01*
X136316338Y-100234889D01*
X136407682Y-100455415D01*
X136576339Y-100624072D01*
X136576338Y-111169490D01*
X136505690Y-111198753D01*
X136366338Y-111338105D01*
X136226986Y-111198753D01*
X135905386Y-111065542D01*
X135557290Y-111065542D01*
X135235690Y-111198753D01*
X135096338Y-111338105D01*
X134956986Y-111198753D01*
X134886338Y-111169490D01*
X134886338Y-102882316D01*
X134916338Y-102809889D01*
X134916338Y-102571195D01*
X134824994Y-102350669D01*
X134656211Y-102181886D01*
X134435685Y-102090542D01*
X134196991Y-102090542D01*
X133976465Y-102181886D01*
X133807682Y-102350669D01*
X133716338Y-102571195D01*
X133716338Y-102809889D01*
X133807682Y-103030415D01*
X133976465Y-103199198D01*
X134036339Y-103223998D01*
X134036338Y-111169490D01*
X133965690Y-111198753D01*
X133826338Y-111338105D01*
X133686986Y-111198753D01*
X133365386Y-111065542D01*
X133017290Y-111065542D01*
X132695690Y-111198753D01*
X132556338Y-111338105D01*
X132416986Y-111198753D01*
X132346338Y-111169490D01*
X132346338Y-104312399D01*
X132354664Y-104270542D01*
X132321679Y-104104715D01*
X132316338Y-104096722D01*
X132316338Y-103946195D01*
X132224994Y-103725669D01*
X132056211Y-103556886D01*
X131835685Y-103465542D01*
X131596991Y-103465542D01*
X131376465Y-103556886D01*
X131207682Y-103725669D01*
X131116338Y-103946195D01*
X131116338Y-104184889D01*
X131207682Y-104405415D01*
X131376465Y-104574198D01*
X131496339Y-104623851D01*
X131496338Y-111169490D01*
X131425690Y-111198753D01*
X131286338Y-111338105D01*
X131146986Y-111198753D01*
X130825386Y-111065542D01*
X130477290Y-111065542D01*
X130155690Y-111198753D01*
X129909549Y-111444894D01*
X129782575Y-111751437D01*
X129593470Y-111940542D01*
X129782575Y-112129647D01*
X129909549Y-112436190D01*
X130068049Y-112594690D01*
X129823578Y-112594914D01*
X129381338Y-112152674D01*
X128938286Y-112595726D01*
X128693367Y-112595950D01*
X128853127Y-112436190D01*
X128980101Y-112129647D01*
X129169206Y-111940542D01*
X128980101Y-111751437D01*
X128853127Y-111444894D01*
X128674721Y-111266488D01*
X128919416Y-111266488D01*
X129381338Y-111728410D01*
X129843260Y-111266488D01*
X129776908Y-111140892D01*
X129440784Y-111050384D01*
X129095610Y-111095394D01*
X128985768Y-111140892D01*
X128919416Y-111266488D01*
X128674721Y-111266488D01*
X128606986Y-111198753D01*
X128285386Y-111065542D01*
X127937290Y-111065542D01*
X127615690Y-111198753D01*
X127478443Y-111336000D01*
X126810877Y-111336000D01*
X126810877Y-111136000D01*
X126787593Y-111018946D01*
X126721288Y-110919712D01*
X126622054Y-110853407D01*
X126505000Y-110830123D01*
X125505000Y-110830123D01*
X125387946Y-110853407D01*
X125288712Y-110919712D01*
X125222407Y-111018946D01*
X125199123Y-111136000D01*
X125199123Y-112386000D01*
X125222407Y-112503054D01*
X125286565Y-112599075D01*
X124723090Y-112599592D01*
X124787593Y-112503054D01*
X124810877Y-112386000D01*
X124810877Y-111136000D01*
X124787593Y-111018946D01*
X124721288Y-110919712D01*
X124622054Y-110853407D01*
X124531622Y-110835418D01*
X125631256Y-109735785D01*
X125665127Y-109769656D01*
X125885653Y-109861000D01*
X126124347Y-109861000D01*
X126344873Y-109769656D01*
X126513656Y-109600873D01*
X126605000Y-109380347D01*
X126605000Y-109141653D01*
X126513656Y-108921127D01*
X126344873Y-108752344D01*
X126124347Y-108661000D01*
X125885653Y-108661000D01*
X125665127Y-108752344D01*
X125581471Y-108836000D01*
X125546855Y-108836000D01*
X125504999Y-108827674D01*
X125463143Y-108836000D01*
X125463142Y-108836000D01*
X125339173Y-108860659D01*
X125198592Y-108954592D01*
X125174881Y-108990078D01*
X123734079Y-110430881D01*
X123698593Y-110454592D01*
X123674882Y-110490078D01*
X123604659Y-110595174D01*
X123571674Y-110761000D01*
X123580001Y-110802862D01*
X123580001Y-110830123D01*
X123505000Y-110830123D01*
X123387946Y-110853407D01*
X123288712Y-110919712D01*
X123222407Y-111018946D01*
X123199123Y-111136000D01*
X123199123Y-112386000D01*
X123222407Y-112503054D01*
X123287790Y-112600908D01*
X117783193Y-112605957D01*
X117666747Y-112582794D01*
X117620467Y-112551871D01*
X117589544Y-112505592D01*
X117571329Y-112414019D01*
X117570568Y-109992720D01*
X119412752Y-109992720D01*
X119412752Y-110271198D01*
X119519320Y-110528477D01*
X119716234Y-110725391D01*
X119973513Y-110831959D01*
X120251991Y-110831959D01*
X120509270Y-110725391D01*
X120706184Y-110528477D01*
X120812752Y-110271198D01*
X120812752Y-109992720D01*
X120706184Y-109735441D01*
X120509270Y-109538527D01*
X120251991Y-109431959D01*
X119973513Y-109431959D01*
X119716234Y-109538527D01*
X119519320Y-109735441D01*
X119412752Y-109992720D01*
X117570568Y-109992720D01*
X117570118Y-108565808D01*
X118055857Y-108565560D01*
X118095000Y-108573346D01*
X118241316Y-108544242D01*
X118365359Y-108461359D01*
X118448242Y-108337317D01*
X118470000Y-108227931D01*
X118470000Y-108208912D01*
X118473683Y-108190347D01*
X118470000Y-108171880D01*
X118470000Y-95408914D01*
X118473683Y-95390349D01*
X118470000Y-95371882D01*
X118470000Y-95354069D01*
X118448242Y-95244683D01*
X118365359Y-95120641D01*
X118241317Y-95037758D01*
X118095000Y-95008654D01*
X118060290Y-95015558D01*
X117560000Y-95015811D01*
X117560000Y-93242720D01*
X119412752Y-93242720D01*
X119412752Y-93521198D01*
X119519320Y-93778477D01*
X119716234Y-93975391D01*
X119973513Y-94081959D01*
X120251991Y-94081959D01*
X120509270Y-93975391D01*
X120706184Y-93778477D01*
X120812752Y-93521198D01*
X120812752Y-93242720D01*
X120706184Y-92985441D01*
X120509270Y-92788527D01*
X120251991Y-92681959D01*
X119973513Y-92681959D01*
X119716234Y-92788527D01*
X119519320Y-92985441D01*
X119412752Y-93242720D01*
X117560000Y-93242720D01*
X117560000Y-91777478D01*
X117576303Y-91695517D01*
X117601806Y-91657348D01*
X117639975Y-91631845D01*
X117719640Y-91615999D01*
X140004405Y-91615543D01*
X140086363Y-91631845D01*
G04 #@! TD*
M02*
