G04 #@! TF.GenerationSoftware,KiCad,Pcbnew,(5.0.1-3-g963ef8bb5)*
G04 #@! TF.CreationDate,2019-06-19T10:09:44-10:00*
G04 #@! TF.ProjectId,OpenHAK_Display,4F70656E48414B5F446973706C61792E,rev?*
G04 #@! TF.SameCoordinates,Original*
G04 #@! TF.FileFunction,Copper,L2,Bot,Signal*
G04 #@! TF.FilePolarity,Positive*
%FSLAX46Y46*%
G04 Gerber Fmt 4.6, Leading zero omitted, Abs format (unit mm)*
G04 Created by KiCad (PCBNEW (5.0.1-3-g963ef8bb5)) date Wednesday, June 19, 2019 at 10:09:44 AM*
%MOMM*%
%LPD*%
G01*
G04 APERTURE LIST*
G04 #@! TA.AperFunction,ComponentPad*
%ADD10C,1.150000*%
G04 #@! TD*
G04 #@! TA.AperFunction,SMDPad,CuDef*
%ADD11R,1.600000X0.350000*%
G04 #@! TD*
G04 #@! TA.AperFunction,SMDPad,CuDef*
%ADD12R,0.600000X0.500000*%
G04 #@! TD*
G04 #@! TA.AperFunction,SMDPad,CuDef*
%ADD13R,0.500000X0.600000*%
G04 #@! TD*
G04 #@! TA.AperFunction,SMDPad,CuDef*
%ADD14R,0.800000X0.750000*%
G04 #@! TD*
G04 #@! TA.AperFunction,ViaPad*
%ADD15C,0.600000*%
G04 #@! TD*
G04 #@! TA.AperFunction,Conductor*
%ADD16C,0.254000*%
G04 #@! TD*
G04 #@! TA.AperFunction,Conductor*
%ADD17C,0.250000*%
G04 #@! TD*
G04 #@! TA.AperFunction,Conductor*
%ADD18C,0.200000*%
G04 #@! TD*
G04 APERTURE END LIST*
D10*
G04 #@! TO.P,P1,10*
G04 #@! TO.N,Net-(P1-Pad10)*
X139541338Y-111940542D03*
G04 #@! TO.P,P1,9*
G04 #@! TO.N,Net-(P1-Pad9)*
X138271338Y-111940542D03*
G04 #@! TO.P,P1,8*
G04 #@! TO.N,/OLED_RST*
X137001338Y-111940542D03*
G04 #@! TO.P,P1,7*
G04 #@! TO.N,Net-(P1-Pad7)*
X135731338Y-111940542D03*
G04 #@! TO.P,P1,6*
G04 #@! TO.N,/SCL*
X134461338Y-111940542D03*
G04 #@! TO.P,P1,5*
G04 #@! TO.N,Net-(P1-Pad5)*
X133191338Y-111940542D03*
G04 #@! TO.P,P1,4*
G04 #@! TO.N,/SDA*
X131921338Y-111940542D03*
G04 #@! TO.P,P1,3*
G04 #@! TO.N,Net-(P1-Pad3)*
X130651338Y-111940542D03*
G04 #@! TO.P,P1,2*
G04 #@! TO.N,+3V3*
X129381338Y-111940542D03*
G04 #@! TO.P,P1,1*
G04 #@! TO.N,GND*
X128111338Y-111940542D03*
G04 #@! TD*
D11*
G04 #@! TO.P,LCD1,1*
G04 #@! TO.N,GND*
X124212752Y-92981959D03*
G04 #@! TO.P,LCD1,2*
G04 #@! TO.N,Net-(C1-Pad1)*
X124212752Y-93631959D03*
G04 #@! TO.P,LCD1,3*
G04 #@! TO.N,Net-(C1-Pad2)*
X124212752Y-94281959D03*
G04 #@! TO.P,LCD1,4*
G04 #@! TO.N,Net-(C2-Pad1)*
X124212752Y-94931959D03*
G04 #@! TO.P,LCD1,5*
G04 #@! TO.N,Net-(C2-Pad2)*
X124212752Y-95581959D03*
G04 #@! TO.P,LCD1,6*
G04 #@! TO.N,+3V3*
X124212752Y-96231959D03*
G04 #@! TO.P,LCD1,7*
G04 #@! TO.N,GND*
X124212752Y-96881959D03*
G04 #@! TO.P,LCD1,8*
G04 #@! TO.N,+3V3*
X124212752Y-97531959D03*
G04 #@! TO.P,LCD1,9*
G04 #@! TO.N,Net-(LCD1-Pad13)*
X124212752Y-98181959D03*
G04 #@! TO.P,LCD1,10*
G04 #@! TO.N,GND*
X124212752Y-98831959D03*
G04 #@! TO.P,LCD1,11*
G04 #@! TO.N,Net-(LCD1-Pad11)*
X124212752Y-99481959D03*
G04 #@! TO.P,LCD1,12*
G04 #@! TO.N,/OLED_RST*
X124212752Y-100131959D03*
G04 #@! TO.P,LCD1,13*
G04 #@! TO.N,Net-(LCD1-Pad13)*
X124212752Y-100781959D03*
G04 #@! TO.P,LCD1,14*
G04 #@! TO.N,Net-(LCD1-Pad14)*
X124212752Y-101431959D03*
G04 #@! TO.P,LCD1,15*
G04 #@! TO.N,Net-(LCD1-Pad15)*
X124212752Y-102081959D03*
G04 #@! TO.P,LCD1,16*
G04 #@! TO.N,/SCL*
X124212752Y-102731959D03*
G04 #@! TO.P,LCD1,17*
G04 #@! TO.N,/SDA*
X124212752Y-103381959D03*
G04 #@! TO.P,LCD1,18*
X124212752Y-104031959D03*
G04 #@! TO.P,LCD1,19*
G04 #@! TO.N,Net-(LCD1-Pad19)*
X124212752Y-104681959D03*
G04 #@! TO.P,LCD1,20*
G04 #@! TO.N,Net-(LCD1-Pad20)*
X124212752Y-105331959D03*
G04 #@! TO.P,LCD1,21*
G04 #@! TO.N,Net-(LCD1-Pad21)*
X124212752Y-105981959D03*
G04 #@! TO.P,LCD1,22*
G04 #@! TO.N,Net-(LCD1-Pad22)*
X124212752Y-106631959D03*
G04 #@! TO.P,LCD1,23*
G04 #@! TO.N,Net-(LCD1-Pad23)*
X124212752Y-107281959D03*
G04 #@! TO.P,LCD1,24*
G04 #@! TO.N,Net-(LCD1-Pad24)*
X124212752Y-107931959D03*
G04 #@! TO.P,LCD1,25*
G04 #@! TO.N,Net-(C3-Pad2)*
X124212752Y-108581959D03*
G04 #@! TO.P,LCD1,26*
G04 #@! TO.N,/VCC*
X124212752Y-109231959D03*
G04 #@! TO.P,LCD1,27*
G04 #@! TO.N,GND*
X124212752Y-109881959D03*
G04 #@! TO.P,LCD1,28*
X124212752Y-110531959D03*
G04 #@! TD*
D12*
G04 #@! TO.P,C1,2*
G04 #@! TO.N,Net-(C1-Pad2)*
X128161338Y-92251000D03*
G04 #@! TO.P,C1,1*
G04 #@! TO.N,Net-(C1-Pad1)*
X127061338Y-92251000D03*
G04 #@! TD*
G04 #@! TO.P,C2,1*
G04 #@! TO.N,Net-(C2-Pad1)*
X129291338Y-92251000D03*
G04 #@! TO.P,C2,2*
G04 #@! TO.N,Net-(C2-Pad2)*
X130391338Y-92251000D03*
G04 #@! TD*
G04 #@! TO.P,C4,1*
G04 #@! TO.N,/VCC*
X125955000Y-111970542D03*
G04 #@! TO.P,C4,2*
G04 #@! TO.N,GND*
X124855000Y-111970542D03*
G04 #@! TD*
D13*
G04 #@! TO.P,C5,2*
G04 #@! TO.N,GND*
X139691338Y-100315542D03*
G04 #@! TO.P,C5,1*
G04 #@! TO.N,+3V3*
X139691338Y-101415542D03*
G04 #@! TD*
G04 #@! TO.P,C6,1*
G04 #@! TO.N,+3V3*
X139686338Y-103245542D03*
G04 #@! TO.P,C6,2*
G04 #@! TO.N,GND*
X139686338Y-104345542D03*
G04 #@! TD*
D12*
G04 #@! TO.P,R1,1*
G04 #@! TO.N,Net-(LCD1-Pad24)*
X118331338Y-111980542D03*
G04 #@! TO.P,R1,2*
G04 #@! TO.N,GND*
X119431338Y-111980542D03*
G04 #@! TD*
G04 #@! TO.P,R2,2*
G04 #@! TO.N,Net-(LCD1-Pad13)*
X132145000Y-92241000D03*
G04 #@! TO.P,R2,1*
G04 #@! TO.N,+3V3*
X133245000Y-92241000D03*
G04 #@! TD*
D14*
G04 #@! TO.P,C3,1*
G04 #@! TO.N,GND*
X120845000Y-111861000D03*
G04 #@! TO.P,C3,2*
G04 #@! TO.N,Net-(C3-Pad2)*
X122345000Y-111861000D03*
G04 #@! TD*
D15*
G04 #@! TO.N,+3V3*
X122271338Y-97540542D03*
X122281338Y-96220542D03*
X139696337Y-102325542D03*
X133274998Y-93161000D03*
G04 #@! TO.N,/OLED_RST*
X136916338Y-100115542D03*
G04 #@! TO.N,/SCL*
X134316338Y-102690542D03*
G04 #@! TO.N,/SDA*
X131716338Y-104065542D03*
G04 #@! TO.N,/VCC*
X126005000Y-109261000D03*
G04 #@! TD*
D16*
G04 #@! TO.N,Net-(C1-Pad2)*
X123931952Y-94287559D02*
X123912552Y-94306959D01*
D17*
X126644041Y-94281959D02*
X125262752Y-94281959D01*
X125262752Y-94281959D02*
X124212752Y-94281959D01*
X128185000Y-92741000D02*
X126644041Y-94281959D01*
X128185000Y-92241000D02*
X128185000Y-92741000D01*
G04 #@! TO.N,Net-(C1-Pad1)*
X125262752Y-93631958D02*
X124212752Y-93631958D01*
X127065000Y-92781000D02*
X126214042Y-93631958D01*
X126214042Y-93631958D02*
X125262752Y-93631958D01*
X127065000Y-92221000D02*
X127065000Y-92781000D01*
D16*
G04 #@! TO.N,Net-(C2-Pad2)*
X123931952Y-95587559D02*
X123922552Y-95596959D01*
D17*
X125262752Y-95581960D02*
X124212752Y-95581960D01*
X127574040Y-95581960D02*
X125262752Y-95581960D01*
X130405000Y-92751000D02*
X127574040Y-95581960D01*
X130405000Y-92231000D02*
X130405000Y-92751000D01*
G04 #@! TO.N,Net-(C2-Pad1)*
X127144041Y-94931959D02*
X125262752Y-94931959D01*
X125262752Y-94931959D02*
X124212752Y-94931959D01*
X129295000Y-92781000D02*
X127144041Y-94931959D01*
X129295000Y-92251000D02*
X129295000Y-92781000D01*
D16*
G04 #@! TO.N,Net-(C3-Pad2)*
X123926351Y-108581958D02*
X123931952Y-108587559D01*
X123512752Y-108581959D02*
X123926351Y-108581958D01*
D17*
X122345000Y-111861000D02*
X122345000Y-109291000D01*
X123054041Y-108581959D02*
X124212752Y-108581959D01*
X122345000Y-109291000D02*
X123054041Y-108581959D01*
G04 #@! TO.N,+3V3*
X122279921Y-97531959D02*
X122271338Y-97540542D01*
X124212752Y-97531959D02*
X122279921Y-97531959D01*
X122292755Y-96231959D02*
X122281338Y-96220542D01*
X124212752Y-96231959D02*
X122292755Y-96231959D01*
D16*
X139686338Y-102335542D02*
X139696337Y-102325542D01*
X139686338Y-103245542D02*
X139686338Y-102335542D01*
X139691338Y-102320542D02*
X139696337Y-102325542D01*
X139691338Y-101415542D02*
X139691338Y-102320542D01*
D17*
X133274998Y-92736736D02*
X133274998Y-93161000D01*
X133275000Y-92221000D02*
X133274998Y-92221002D01*
X133274998Y-92221002D02*
X133274998Y-92736736D01*
G04 #@! TO.N,Net-(LCD1-Pad13)*
X125262752Y-98181959D02*
X124212752Y-98181959D01*
X126794041Y-98181959D02*
X125262752Y-98181959D01*
X132145000Y-92831000D02*
X126794041Y-98181959D01*
X132145000Y-92231000D02*
X132145000Y-92831000D01*
X122859921Y-98181959D02*
X124212752Y-98181959D01*
X122405000Y-98636880D02*
X122859921Y-98181959D01*
X122405000Y-100264204D02*
X122405000Y-98636880D01*
X122922755Y-100781959D02*
X122405000Y-100264204D01*
X124212752Y-100781959D02*
X122922755Y-100781959D01*
G04 #@! TO.N,/OLED_RST*
X124212751Y-100131959D02*
X136899922Y-100131959D01*
X136899922Y-100131959D02*
X136916338Y-100115542D01*
G04 #@! TO.N,/SCL*
X134274921Y-102731959D02*
X134316338Y-102690542D01*
X124212752Y-102731959D02*
X134274921Y-102731959D01*
D16*
G04 #@! TO.N,/SDA*
X123512751Y-103381960D02*
X123512752Y-104031959D01*
D17*
X131682755Y-104031959D02*
X131716338Y-104065542D01*
X124212752Y-104031959D02*
X131682755Y-104031959D01*
G04 #@! TO.N,Net-(LCD1-Pad24)*
X118331338Y-111980542D02*
X118331338Y-110040542D01*
X120439921Y-107931959D02*
X124212752Y-107931958D01*
X118331338Y-110040542D02*
X120439921Y-107931959D01*
G04 #@! TO.N,/VCC*
X124241793Y-109261000D02*
X124212752Y-109231959D01*
X126005000Y-109261000D02*
X124241793Y-109261000D01*
X125955000Y-109311000D02*
X126005000Y-109261000D01*
X125955000Y-111970542D02*
X125955000Y-109311000D01*
G04 #@! TD*
D18*
G04 #@! TO.N,GND*
G36*
X140086363Y-91631845D02*
X140124532Y-91657348D01*
X140150035Y-91695517D01*
X140166339Y-91777484D01*
X140166339Y-99816278D01*
X140111274Y-99761214D01*
X140001011Y-99715542D01*
X139891338Y-99715542D01*
X139816338Y-99790542D01*
X139816338Y-100165542D01*
X139861338Y-100165542D01*
X139861338Y-100465542D01*
X139816338Y-100465542D01*
X139816338Y-100485542D01*
X139566338Y-100485542D01*
X139566338Y-100465542D01*
X139216338Y-100465542D01*
X139141338Y-100540542D01*
X139141338Y-100675216D01*
X139187010Y-100785479D01*
X139270451Y-100868919D01*
X139225050Y-100899254D01*
X139158745Y-100998488D01*
X139135461Y-101115542D01*
X139135461Y-101715542D01*
X139158745Y-101832596D01*
X139225050Y-101931830D01*
X139234923Y-101938427D01*
X139187681Y-101985669D01*
X139096337Y-102206195D01*
X139096337Y-102444889D01*
X139187681Y-102665415D01*
X139238915Y-102716649D01*
X139220050Y-102729254D01*
X139153745Y-102828488D01*
X139130461Y-102945542D01*
X139130461Y-103545542D01*
X139153745Y-103662596D01*
X139220050Y-103761830D01*
X139265451Y-103792165D01*
X139182010Y-103875605D01*
X139136338Y-103985868D01*
X139136338Y-104120542D01*
X139211338Y-104195542D01*
X139561338Y-104195542D01*
X139561338Y-104175542D01*
X139811338Y-104175542D01*
X139811338Y-104195542D01*
X139856338Y-104195542D01*
X139856338Y-104495542D01*
X139811338Y-104495542D01*
X139811338Y-104870542D01*
X139886338Y-104945542D01*
X139996011Y-104945542D01*
X140106274Y-104899870D01*
X140166338Y-104839806D01*
X140166338Y-111328105D01*
X140036986Y-111198753D01*
X139715386Y-111065542D01*
X139367290Y-111065542D01*
X139045690Y-111198753D01*
X138906338Y-111338105D01*
X138766986Y-111198753D01*
X138445386Y-111065542D01*
X138097290Y-111065542D01*
X137775690Y-111198753D01*
X137636338Y-111338105D01*
X137496986Y-111198753D01*
X137175386Y-111065542D01*
X136827290Y-111065542D01*
X136505690Y-111198753D01*
X136366338Y-111338105D01*
X136226986Y-111198753D01*
X135905386Y-111065542D01*
X135557290Y-111065542D01*
X135235690Y-111198753D01*
X135096338Y-111338105D01*
X134956986Y-111198753D01*
X134635386Y-111065542D01*
X134287290Y-111065542D01*
X133965690Y-111198753D01*
X133826338Y-111338105D01*
X133686986Y-111198753D01*
X133365386Y-111065542D01*
X133017290Y-111065542D01*
X132695690Y-111198753D01*
X132556338Y-111338105D01*
X132416986Y-111198753D01*
X132095386Y-111065542D01*
X131747290Y-111065542D01*
X131425690Y-111198753D01*
X131286338Y-111338105D01*
X131146986Y-111198753D01*
X130825386Y-111065542D01*
X130477290Y-111065542D01*
X130155690Y-111198753D01*
X130016338Y-111338105D01*
X129876986Y-111198753D01*
X129555386Y-111065542D01*
X129207290Y-111065542D01*
X128885690Y-111198753D01*
X128639549Y-111444894D01*
X128512575Y-111751437D01*
X128323470Y-111940542D01*
X128512575Y-112129647D01*
X128639549Y-112436190D01*
X128799212Y-112595853D01*
X128554741Y-112596077D01*
X128111338Y-112152674D01*
X127667120Y-112596892D01*
X117783193Y-112605957D01*
X117666747Y-112582794D01*
X117620467Y-112551871D01*
X117589544Y-112505592D01*
X117571329Y-112414019D01*
X117571114Y-111730542D01*
X117725461Y-111730542D01*
X117725461Y-112230542D01*
X117748745Y-112347596D01*
X117815050Y-112446830D01*
X117914284Y-112513135D01*
X118031338Y-112536419D01*
X118631338Y-112536419D01*
X118748392Y-112513135D01*
X118847626Y-112446830D01*
X118877961Y-112401429D01*
X118961401Y-112484870D01*
X119071664Y-112530542D01*
X119206338Y-112530542D01*
X119281338Y-112455542D01*
X119281338Y-112105542D01*
X119581338Y-112105542D01*
X119581338Y-112455542D01*
X119656338Y-112530542D01*
X119791012Y-112530542D01*
X119901275Y-112484870D01*
X119985666Y-112400478D01*
X120031338Y-112290215D01*
X120031338Y-112180542D01*
X119956338Y-112105542D01*
X119581338Y-112105542D01*
X119281338Y-112105542D01*
X119261338Y-112105542D01*
X119261338Y-112086000D01*
X120145000Y-112086000D01*
X120145000Y-112295673D01*
X120190672Y-112405936D01*
X120275063Y-112490328D01*
X120385326Y-112536000D01*
X120620000Y-112536000D01*
X120695000Y-112461000D01*
X120695000Y-112011000D01*
X120995000Y-112011000D01*
X120995000Y-112461000D01*
X121070000Y-112536000D01*
X121304674Y-112536000D01*
X121414937Y-112490328D01*
X121499328Y-112405936D01*
X121545000Y-112295673D01*
X121545000Y-112086000D01*
X121470000Y-112011000D01*
X120995000Y-112011000D01*
X120695000Y-112011000D01*
X120220000Y-112011000D01*
X120145000Y-112086000D01*
X119261338Y-112086000D01*
X119261338Y-111855542D01*
X119281338Y-111855542D01*
X119281338Y-111505542D01*
X119581338Y-111505542D01*
X119581338Y-111855542D01*
X119956338Y-111855542D01*
X120031338Y-111780542D01*
X120031338Y-111670869D01*
X119985666Y-111560606D01*
X119901275Y-111476214D01*
X119791012Y-111430542D01*
X119656338Y-111430542D01*
X119581338Y-111505542D01*
X119281338Y-111505542D01*
X119206338Y-111430542D01*
X119071664Y-111430542D01*
X118961401Y-111476214D01*
X118877961Y-111559655D01*
X118847626Y-111514254D01*
X118756338Y-111453258D01*
X118756338Y-111426327D01*
X120145000Y-111426327D01*
X120145000Y-111636000D01*
X120220000Y-111711000D01*
X120695000Y-111711000D01*
X120695000Y-111261000D01*
X120995000Y-111261000D01*
X120995000Y-111711000D01*
X121470000Y-111711000D01*
X121545000Y-111636000D01*
X121545000Y-111426327D01*
X121499328Y-111316064D01*
X121414937Y-111231672D01*
X121304674Y-111186000D01*
X121070000Y-111186000D01*
X120995000Y-111261000D01*
X120695000Y-111261000D01*
X120620000Y-111186000D01*
X120385326Y-111186000D01*
X120275063Y-111231672D01*
X120190672Y-111316064D01*
X120145000Y-111426327D01*
X118756338Y-111426327D01*
X118756338Y-110216582D01*
X118980200Y-109992720D01*
X119412752Y-109992720D01*
X119412752Y-110271198D01*
X119519320Y-110528477D01*
X119716234Y-110725391D01*
X119973513Y-110831959D01*
X120251991Y-110831959D01*
X120509270Y-110725391D01*
X120706184Y-110528477D01*
X120812752Y-110271198D01*
X120812752Y-109992720D01*
X120706184Y-109735441D01*
X120509270Y-109538527D01*
X120251991Y-109431959D01*
X119973513Y-109431959D01*
X119716234Y-109538527D01*
X119519320Y-109735441D01*
X119412752Y-109992720D01*
X118980200Y-109992720D01*
X120615962Y-108356959D01*
X122678001Y-108356958D01*
X122074079Y-108960881D01*
X122038593Y-108984592D01*
X122014882Y-109020078D01*
X121944659Y-109125174D01*
X121911674Y-109291000D01*
X121920001Y-109332862D01*
X121920000Y-111185096D01*
X121827946Y-111203407D01*
X121728712Y-111269712D01*
X121662407Y-111368946D01*
X121639123Y-111486000D01*
X121639123Y-112236000D01*
X121662407Y-112353054D01*
X121728712Y-112452288D01*
X121827946Y-112518593D01*
X121945000Y-112541877D01*
X122745000Y-112541877D01*
X122862054Y-112518593D01*
X122961288Y-112452288D01*
X123027593Y-112353054D01*
X123050877Y-112236000D01*
X123050877Y-112170542D01*
X124255000Y-112170542D01*
X124255000Y-112280215D01*
X124300672Y-112390478D01*
X124385063Y-112474870D01*
X124495326Y-112520542D01*
X124630000Y-112520542D01*
X124705000Y-112445542D01*
X124705000Y-112095542D01*
X124330000Y-112095542D01*
X124255000Y-112170542D01*
X123050877Y-112170542D01*
X123050877Y-111660869D01*
X124255000Y-111660869D01*
X124255000Y-111770542D01*
X124330000Y-111845542D01*
X124705000Y-111845542D01*
X124705000Y-111495542D01*
X124630000Y-111420542D01*
X124495326Y-111420542D01*
X124385063Y-111466214D01*
X124300672Y-111550606D01*
X124255000Y-111660869D01*
X123050877Y-111660869D01*
X123050877Y-111486000D01*
X123027593Y-111368946D01*
X122961288Y-111269712D01*
X122862054Y-111203407D01*
X122770000Y-111185096D01*
X122770000Y-110694459D01*
X123112752Y-110694459D01*
X123112752Y-110766633D01*
X123158424Y-110876896D01*
X123242816Y-110961287D01*
X123353079Y-111006959D01*
X123987752Y-111006959D01*
X124062752Y-110931959D01*
X124062752Y-110619459D01*
X124362752Y-110619459D01*
X124362752Y-110931959D01*
X124437752Y-111006959D01*
X125072425Y-111006959D01*
X125182688Y-110961287D01*
X125267080Y-110876896D01*
X125312752Y-110766633D01*
X125312752Y-110694459D01*
X125237752Y-110619459D01*
X124362752Y-110619459D01*
X124062752Y-110619459D01*
X123187752Y-110619459D01*
X123112752Y-110694459D01*
X122770000Y-110694459D01*
X122770000Y-110044459D01*
X123112752Y-110044459D01*
X123112752Y-110116633D01*
X123150166Y-110206959D01*
X123112752Y-110297285D01*
X123112752Y-110369459D01*
X123187752Y-110444459D01*
X124062752Y-110444459D01*
X124062752Y-109969459D01*
X124362752Y-109969459D01*
X124362752Y-110444459D01*
X125237752Y-110444459D01*
X125312752Y-110369459D01*
X125312752Y-110297285D01*
X125275338Y-110206959D01*
X125312752Y-110116633D01*
X125312752Y-110044459D01*
X125237752Y-109969459D01*
X124362752Y-109969459D01*
X124062752Y-109969459D01*
X123187752Y-109969459D01*
X123112752Y-110044459D01*
X122770000Y-110044459D01*
X122770000Y-109467040D01*
X123106875Y-109130166D01*
X123106875Y-109406959D01*
X123130159Y-109524013D01*
X123150934Y-109555105D01*
X123112752Y-109647285D01*
X123112752Y-109719459D01*
X123187752Y-109794459D01*
X124062752Y-109794459D01*
X124062752Y-109712836D01*
X124362752Y-109712836D01*
X124362752Y-109794459D01*
X125237752Y-109794459D01*
X125312752Y-109719459D01*
X125312752Y-109686000D01*
X125530001Y-109686000D01*
X125530000Y-111443258D01*
X125438712Y-111504254D01*
X125408377Y-111549655D01*
X125324937Y-111466214D01*
X125214674Y-111420542D01*
X125080000Y-111420542D01*
X125005000Y-111495542D01*
X125005000Y-111845542D01*
X125025000Y-111845542D01*
X125025000Y-112095542D01*
X125005000Y-112095542D01*
X125005000Y-112445542D01*
X125080000Y-112520542D01*
X125214674Y-112520542D01*
X125324937Y-112474870D01*
X125408377Y-112391429D01*
X125438712Y-112436830D01*
X125537946Y-112503135D01*
X125655000Y-112526419D01*
X126255000Y-112526419D01*
X126372054Y-112503135D01*
X126471288Y-112436830D01*
X126537593Y-112337596D01*
X126560877Y-112220542D01*
X126560877Y-111881096D01*
X127221180Y-111881096D01*
X127266190Y-112226270D01*
X127311688Y-112336112D01*
X127437284Y-112402464D01*
X127899206Y-111940542D01*
X127437284Y-111478620D01*
X127311688Y-111544972D01*
X127221180Y-111881096D01*
X126560877Y-111881096D01*
X126560877Y-111720542D01*
X126537593Y-111603488D01*
X126471288Y-111504254D01*
X126380000Y-111443258D01*
X126380000Y-111266488D01*
X127649416Y-111266488D01*
X128111338Y-111728410D01*
X128573260Y-111266488D01*
X128506908Y-111140892D01*
X128170784Y-111050384D01*
X127825610Y-111095394D01*
X127715768Y-111140892D01*
X127649416Y-111266488D01*
X126380000Y-111266488D01*
X126380000Y-109734529D01*
X126513656Y-109600873D01*
X126605000Y-109380347D01*
X126605000Y-109141653D01*
X126513656Y-108921127D01*
X126344873Y-108752344D01*
X126124347Y-108661000D01*
X125885653Y-108661000D01*
X125665127Y-108752344D01*
X125581471Y-108836000D01*
X125302906Y-108836000D01*
X125318629Y-108756959D01*
X125318629Y-108406959D01*
X125295345Y-108289905D01*
X125273332Y-108256959D01*
X125295345Y-108224013D01*
X125318629Y-108106959D01*
X125318629Y-107756959D01*
X125295345Y-107639905D01*
X125273332Y-107606959D01*
X125295345Y-107574013D01*
X125318629Y-107456959D01*
X125318629Y-107106959D01*
X125295345Y-106989905D01*
X125273332Y-106956959D01*
X125295345Y-106924013D01*
X125318629Y-106806959D01*
X125318629Y-106456959D01*
X125295345Y-106339905D01*
X125273332Y-106306959D01*
X125295345Y-106274013D01*
X125318629Y-106156959D01*
X125318629Y-105806959D01*
X125295345Y-105689905D01*
X125273332Y-105656959D01*
X125295345Y-105624013D01*
X125318629Y-105506959D01*
X125318629Y-105156959D01*
X125295345Y-105039905D01*
X125273332Y-105006959D01*
X125295345Y-104974013D01*
X125318629Y-104856959D01*
X125318629Y-104506959D01*
X125308683Y-104456959D01*
X131259226Y-104456959D01*
X131376465Y-104574198D01*
X131596991Y-104665542D01*
X131835685Y-104665542D01*
X132056211Y-104574198D01*
X132059867Y-104570542D01*
X139136338Y-104570542D01*
X139136338Y-104705216D01*
X139182010Y-104815479D01*
X139266402Y-104899870D01*
X139376665Y-104945542D01*
X139486338Y-104945542D01*
X139561338Y-104870542D01*
X139561338Y-104495542D01*
X139211338Y-104495542D01*
X139136338Y-104570542D01*
X132059867Y-104570542D01*
X132224994Y-104405415D01*
X132316338Y-104184889D01*
X132316338Y-103946195D01*
X132224994Y-103725669D01*
X132056211Y-103556886D01*
X131835685Y-103465542D01*
X131596991Y-103465542D01*
X131376465Y-103556886D01*
X131326392Y-103606959D01*
X125308683Y-103606959D01*
X125318629Y-103556959D01*
X125318629Y-103206959D01*
X125308683Y-103156959D01*
X133934226Y-103156959D01*
X133976465Y-103199198D01*
X134196991Y-103290542D01*
X134435685Y-103290542D01*
X134656211Y-103199198D01*
X134824994Y-103030415D01*
X134916338Y-102809889D01*
X134916338Y-102571195D01*
X134824994Y-102350669D01*
X134656211Y-102181886D01*
X134435685Y-102090542D01*
X134196991Y-102090542D01*
X133976465Y-102181886D01*
X133851392Y-102306959D01*
X125308683Y-102306959D01*
X125318629Y-102256959D01*
X125318629Y-101906959D01*
X125295345Y-101789905D01*
X125273332Y-101756959D01*
X125295345Y-101724013D01*
X125318629Y-101606959D01*
X125318629Y-101256959D01*
X125295345Y-101139905D01*
X125273332Y-101106959D01*
X125295345Y-101074013D01*
X125318629Y-100956959D01*
X125318629Y-100606959D01*
X125308683Y-100556959D01*
X136509226Y-100556959D01*
X136576465Y-100624198D01*
X136796991Y-100715542D01*
X137035685Y-100715542D01*
X137256211Y-100624198D01*
X137424994Y-100455415D01*
X137516338Y-100234889D01*
X137516338Y-99996195D01*
X137499635Y-99955868D01*
X139141338Y-99955868D01*
X139141338Y-100090542D01*
X139216338Y-100165542D01*
X139566338Y-100165542D01*
X139566338Y-99790542D01*
X139491338Y-99715542D01*
X139381665Y-99715542D01*
X139271402Y-99761214D01*
X139187010Y-99845605D01*
X139141338Y-99955868D01*
X137499635Y-99955868D01*
X137424994Y-99775669D01*
X137256211Y-99606886D01*
X137035685Y-99515542D01*
X136796991Y-99515542D01*
X136576465Y-99606886D01*
X136476392Y-99706959D01*
X125308683Y-99706959D01*
X125318629Y-99656959D01*
X125318629Y-99306959D01*
X125295345Y-99189905D01*
X125274570Y-99158813D01*
X125312752Y-99066633D01*
X125312752Y-98994459D01*
X125237752Y-98919459D01*
X124362752Y-98919459D01*
X124362752Y-99001082D01*
X124062752Y-99001082D01*
X124062752Y-98919459D01*
X123187752Y-98919459D01*
X123112752Y-98994459D01*
X123112752Y-99066633D01*
X123150934Y-99158813D01*
X123130159Y-99189905D01*
X123106875Y-99306959D01*
X123106875Y-99656959D01*
X123130159Y-99774013D01*
X123152172Y-99806959D01*
X123130159Y-99839905D01*
X123106875Y-99956959D01*
X123106875Y-100306959D01*
X123116821Y-100356959D01*
X123098796Y-100356959D01*
X122830000Y-100088164D01*
X122830000Y-98812920D01*
X123035962Y-98606959D01*
X123112752Y-98606959D01*
X123112752Y-98669459D01*
X123187752Y-98744459D01*
X124062752Y-98744459D01*
X124062752Y-98662836D01*
X124362752Y-98662836D01*
X124362752Y-98744459D01*
X125237752Y-98744459D01*
X125312752Y-98669459D01*
X125312752Y-98606959D01*
X126752184Y-98606959D01*
X126794041Y-98615285D01*
X126835898Y-98606959D01*
X126835899Y-98606959D01*
X126959868Y-98582300D01*
X127100449Y-98488367D01*
X127124162Y-98452878D01*
X132415922Y-93161119D01*
X132451408Y-93137408D01*
X132545341Y-92996827D01*
X132570000Y-92872858D01*
X132578326Y-92831000D01*
X132570000Y-92789143D01*
X132570000Y-92768284D01*
X132661288Y-92707288D01*
X132695000Y-92656834D01*
X132728712Y-92707288D01*
X132819512Y-92767957D01*
X132766342Y-92821127D01*
X132674998Y-93041653D01*
X132674998Y-93280347D01*
X132766342Y-93500873D01*
X132935125Y-93669656D01*
X133155651Y-93761000D01*
X133394345Y-93761000D01*
X133614871Y-93669656D01*
X133783654Y-93500873D01*
X133874998Y-93280347D01*
X133874998Y-93041653D01*
X133783654Y-92821127D01*
X133706454Y-92743927D01*
X133761288Y-92707288D01*
X133827593Y-92608054D01*
X133850877Y-92491000D01*
X133850877Y-91991000D01*
X133827593Y-91873946D01*
X133761288Y-91774712D01*
X133662054Y-91708407D01*
X133545000Y-91685123D01*
X132945000Y-91685123D01*
X132827946Y-91708407D01*
X132728712Y-91774712D01*
X132695000Y-91825166D01*
X132661288Y-91774712D01*
X132562054Y-91708407D01*
X132445000Y-91685123D01*
X131845000Y-91685123D01*
X131727946Y-91708407D01*
X131628712Y-91774712D01*
X131562407Y-91873946D01*
X131539123Y-91991000D01*
X131539123Y-92491000D01*
X131562407Y-92608054D01*
X131628712Y-92707288D01*
X131652066Y-92722893D01*
X126618001Y-97756959D01*
X125308683Y-97756959D01*
X125318629Y-97706959D01*
X125318629Y-97356959D01*
X125295345Y-97239905D01*
X125274570Y-97208813D01*
X125312752Y-97116633D01*
X125312752Y-97044459D01*
X125237752Y-96969459D01*
X124362752Y-96969459D01*
X124362752Y-97051082D01*
X124062752Y-97051082D01*
X124062752Y-96969459D01*
X123187752Y-96969459D01*
X123112752Y-97044459D01*
X123112752Y-97106959D01*
X122686284Y-97106959D01*
X122611211Y-97031886D01*
X122390685Y-96940542D01*
X122151991Y-96940542D01*
X121931465Y-97031886D01*
X121762682Y-97200669D01*
X121671338Y-97421195D01*
X121671338Y-97659889D01*
X121762682Y-97880415D01*
X121931465Y-98049198D01*
X122151991Y-98140542D01*
X122300298Y-98140542D01*
X122134078Y-98306761D01*
X122098593Y-98330472D01*
X122074882Y-98365958D01*
X122004659Y-98471054D01*
X121971674Y-98636880D01*
X121980001Y-98678742D01*
X121980000Y-100222346D01*
X121971674Y-100264204D01*
X121980000Y-100306061D01*
X122004659Y-100430030D01*
X122098592Y-100570612D01*
X122134080Y-100594325D01*
X122592636Y-101052881D01*
X122616347Y-101088367D01*
X122693479Y-101139905D01*
X122756928Y-101182300D01*
X122922754Y-101215285D01*
X122964612Y-101206959D01*
X123116821Y-101206959D01*
X123106875Y-101256959D01*
X123106875Y-101606959D01*
X123130159Y-101724013D01*
X123152172Y-101756959D01*
X123130159Y-101789905D01*
X123106875Y-101906959D01*
X123106875Y-102256959D01*
X123130159Y-102374013D01*
X123152172Y-102406959D01*
X123130159Y-102439905D01*
X123106875Y-102556959D01*
X123106875Y-102906959D01*
X123130159Y-103024013D01*
X123152172Y-103056959D01*
X123130159Y-103089905D01*
X123106875Y-103206959D01*
X123106875Y-103233709D01*
X123085751Y-103339907D01*
X123085753Y-104074013D01*
X123106875Y-104180201D01*
X123106875Y-104206959D01*
X123130159Y-104324013D01*
X123152172Y-104356959D01*
X123130159Y-104389905D01*
X123106875Y-104506959D01*
X123106875Y-104856959D01*
X123130159Y-104974013D01*
X123152172Y-105006959D01*
X123130159Y-105039905D01*
X123106875Y-105156959D01*
X123106875Y-105506959D01*
X123130159Y-105624013D01*
X123152172Y-105656959D01*
X123130159Y-105689905D01*
X123106875Y-105806959D01*
X123106875Y-106156959D01*
X123130159Y-106274013D01*
X123152172Y-106306959D01*
X123130159Y-106339905D01*
X123106875Y-106456959D01*
X123106875Y-106806959D01*
X123130159Y-106924013D01*
X123152172Y-106956959D01*
X123130159Y-106989905D01*
X123106875Y-107106959D01*
X123106875Y-107456959D01*
X123116821Y-107506959D01*
X120481783Y-107506960D01*
X120439921Y-107498633D01*
X120274094Y-107531618D01*
X120168998Y-107601841D01*
X120168996Y-107601843D01*
X120133513Y-107625552D01*
X120109804Y-107661035D01*
X118060417Y-109710423D01*
X118024931Y-109734134D01*
X118001220Y-109769620D01*
X117930997Y-109874716D01*
X117898012Y-110040542D01*
X117906339Y-110082404D01*
X117906338Y-111453258D01*
X117815050Y-111514254D01*
X117748745Y-111613488D01*
X117725461Y-111730542D01*
X117571114Y-111730542D01*
X117570118Y-108565808D01*
X118055857Y-108565560D01*
X118095000Y-108573346D01*
X118241316Y-108544242D01*
X118365359Y-108461359D01*
X118448242Y-108337317D01*
X118470000Y-108227931D01*
X118470000Y-108208912D01*
X118473683Y-108190347D01*
X118470000Y-108171880D01*
X118470000Y-96101195D01*
X121681338Y-96101195D01*
X121681338Y-96339889D01*
X121772682Y-96560415D01*
X121941465Y-96729198D01*
X122161991Y-96820542D01*
X122400685Y-96820542D01*
X122621211Y-96729198D01*
X122693450Y-96656959D01*
X123112752Y-96656959D01*
X123112752Y-96719459D01*
X123187752Y-96794459D01*
X124062752Y-96794459D01*
X124062752Y-96712836D01*
X124362752Y-96712836D01*
X124362752Y-96794459D01*
X125237752Y-96794459D01*
X125312752Y-96719459D01*
X125312752Y-96647285D01*
X125274570Y-96555105D01*
X125295345Y-96524013D01*
X125318629Y-96406959D01*
X125318629Y-96056959D01*
X125308683Y-96006960D01*
X127532183Y-96006960D01*
X127574040Y-96015286D01*
X127615897Y-96006960D01*
X127615898Y-96006960D01*
X127739867Y-95982301D01*
X127880448Y-95888368D01*
X127904161Y-95852879D01*
X130675922Y-93081119D01*
X130711408Y-93057408D01*
X130805341Y-92916827D01*
X130824709Y-92819459D01*
X130835438Y-92765522D01*
X130907626Y-92717288D01*
X130973931Y-92618054D01*
X130997215Y-92501000D01*
X130997215Y-92001000D01*
X130973931Y-91883946D01*
X130907626Y-91784712D01*
X130808392Y-91718407D01*
X130691338Y-91695123D01*
X130091338Y-91695123D01*
X129974284Y-91718407D01*
X129875050Y-91784712D01*
X129841338Y-91835166D01*
X129807626Y-91784712D01*
X129708392Y-91718407D01*
X129591338Y-91695123D01*
X128991338Y-91695123D01*
X128874284Y-91718407D01*
X128775050Y-91784712D01*
X128726338Y-91857616D01*
X128677626Y-91784712D01*
X128578392Y-91718407D01*
X128461338Y-91695123D01*
X127861338Y-91695123D01*
X127744284Y-91718407D01*
X127645050Y-91784712D01*
X127611338Y-91835166D01*
X127577626Y-91784712D01*
X127478392Y-91718407D01*
X127361338Y-91695123D01*
X126761338Y-91695123D01*
X126644284Y-91718407D01*
X126545050Y-91784712D01*
X126478745Y-91883946D01*
X126455461Y-92001000D01*
X126455461Y-92501000D01*
X126478745Y-92618054D01*
X126538089Y-92706870D01*
X126038002Y-93206958D01*
X125312752Y-93206958D01*
X125312752Y-93144459D01*
X125237752Y-93069459D01*
X124362752Y-93069459D01*
X124362752Y-93151082D01*
X124062752Y-93151082D01*
X124062752Y-93069459D01*
X123187752Y-93069459D01*
X123112752Y-93144459D01*
X123112752Y-93216633D01*
X123150934Y-93308813D01*
X123130159Y-93339905D01*
X123106875Y-93456959D01*
X123106875Y-93806959D01*
X123130159Y-93924013D01*
X123152172Y-93956959D01*
X123130159Y-93989905D01*
X123106875Y-94106959D01*
X123106875Y-94456959D01*
X123130159Y-94574013D01*
X123152172Y-94606959D01*
X123130159Y-94639905D01*
X123106875Y-94756959D01*
X123106875Y-95106959D01*
X123130159Y-95224013D01*
X123152172Y-95256959D01*
X123130159Y-95289905D01*
X123106875Y-95406959D01*
X123106875Y-95756959D01*
X123116821Y-95806959D01*
X122716284Y-95806959D01*
X122621211Y-95711886D01*
X122400685Y-95620542D01*
X122161991Y-95620542D01*
X121941465Y-95711886D01*
X121772682Y-95880669D01*
X121681338Y-96101195D01*
X118470000Y-96101195D01*
X118470000Y-95408914D01*
X118473683Y-95390349D01*
X118470000Y-95371882D01*
X118470000Y-95354069D01*
X118448242Y-95244683D01*
X118365359Y-95120641D01*
X118241317Y-95037758D01*
X118095000Y-95008654D01*
X118060290Y-95015558D01*
X117560000Y-95015811D01*
X117560000Y-93242720D01*
X119412752Y-93242720D01*
X119412752Y-93521198D01*
X119519320Y-93778477D01*
X119716234Y-93975391D01*
X119973513Y-94081959D01*
X120251991Y-94081959D01*
X120509270Y-93975391D01*
X120706184Y-93778477D01*
X120812752Y-93521198D01*
X120812752Y-93242720D01*
X120706184Y-92985441D01*
X120509270Y-92788527D01*
X120409703Y-92747285D01*
X123112752Y-92747285D01*
X123112752Y-92819459D01*
X123187752Y-92894459D01*
X124062752Y-92894459D01*
X124062752Y-92581959D01*
X124362752Y-92581959D01*
X124362752Y-92894459D01*
X125237752Y-92894459D01*
X125312752Y-92819459D01*
X125312752Y-92747285D01*
X125267080Y-92637022D01*
X125182688Y-92552631D01*
X125072425Y-92506959D01*
X124437752Y-92506959D01*
X124362752Y-92581959D01*
X124062752Y-92581959D01*
X123987752Y-92506959D01*
X123353079Y-92506959D01*
X123242816Y-92552631D01*
X123158424Y-92637022D01*
X123112752Y-92747285D01*
X120409703Y-92747285D01*
X120251991Y-92681959D01*
X119973513Y-92681959D01*
X119716234Y-92788527D01*
X119519320Y-92985441D01*
X119412752Y-93242720D01*
X117560000Y-93242720D01*
X117560000Y-91777478D01*
X117576303Y-91695517D01*
X117601806Y-91657348D01*
X117639975Y-91631845D01*
X117719640Y-91615999D01*
X140004405Y-91615543D01*
X140086363Y-91631845D01*
X140086363Y-91631845D01*
G37*
X140086363Y-91631845D02*
X140124532Y-91657348D01*
X140150035Y-91695517D01*
X140166339Y-91777484D01*
X140166339Y-99816278D01*
X140111274Y-99761214D01*
X140001011Y-99715542D01*
X139891338Y-99715542D01*
X139816338Y-99790542D01*
X139816338Y-100165542D01*
X139861338Y-100165542D01*
X139861338Y-100465542D01*
X139816338Y-100465542D01*
X139816338Y-100485542D01*
X139566338Y-100485542D01*
X139566338Y-100465542D01*
X139216338Y-100465542D01*
X139141338Y-100540542D01*
X139141338Y-100675216D01*
X139187010Y-100785479D01*
X139270451Y-100868919D01*
X139225050Y-100899254D01*
X139158745Y-100998488D01*
X139135461Y-101115542D01*
X139135461Y-101715542D01*
X139158745Y-101832596D01*
X139225050Y-101931830D01*
X139234923Y-101938427D01*
X139187681Y-101985669D01*
X139096337Y-102206195D01*
X139096337Y-102444889D01*
X139187681Y-102665415D01*
X139238915Y-102716649D01*
X139220050Y-102729254D01*
X139153745Y-102828488D01*
X139130461Y-102945542D01*
X139130461Y-103545542D01*
X139153745Y-103662596D01*
X139220050Y-103761830D01*
X139265451Y-103792165D01*
X139182010Y-103875605D01*
X139136338Y-103985868D01*
X139136338Y-104120542D01*
X139211338Y-104195542D01*
X139561338Y-104195542D01*
X139561338Y-104175542D01*
X139811338Y-104175542D01*
X139811338Y-104195542D01*
X139856338Y-104195542D01*
X139856338Y-104495542D01*
X139811338Y-104495542D01*
X139811338Y-104870542D01*
X139886338Y-104945542D01*
X139996011Y-104945542D01*
X140106274Y-104899870D01*
X140166338Y-104839806D01*
X140166338Y-111328105D01*
X140036986Y-111198753D01*
X139715386Y-111065542D01*
X139367290Y-111065542D01*
X139045690Y-111198753D01*
X138906338Y-111338105D01*
X138766986Y-111198753D01*
X138445386Y-111065542D01*
X138097290Y-111065542D01*
X137775690Y-111198753D01*
X137636338Y-111338105D01*
X137496986Y-111198753D01*
X137175386Y-111065542D01*
X136827290Y-111065542D01*
X136505690Y-111198753D01*
X136366338Y-111338105D01*
X136226986Y-111198753D01*
X135905386Y-111065542D01*
X135557290Y-111065542D01*
X135235690Y-111198753D01*
X135096338Y-111338105D01*
X134956986Y-111198753D01*
X134635386Y-111065542D01*
X134287290Y-111065542D01*
X133965690Y-111198753D01*
X133826338Y-111338105D01*
X133686986Y-111198753D01*
X133365386Y-111065542D01*
X133017290Y-111065542D01*
X132695690Y-111198753D01*
X132556338Y-111338105D01*
X132416986Y-111198753D01*
X132095386Y-111065542D01*
X131747290Y-111065542D01*
X131425690Y-111198753D01*
X131286338Y-111338105D01*
X131146986Y-111198753D01*
X130825386Y-111065542D01*
X130477290Y-111065542D01*
X130155690Y-111198753D01*
X130016338Y-111338105D01*
X129876986Y-111198753D01*
X129555386Y-111065542D01*
X129207290Y-111065542D01*
X128885690Y-111198753D01*
X128639549Y-111444894D01*
X128512575Y-111751437D01*
X128323470Y-111940542D01*
X128512575Y-112129647D01*
X128639549Y-112436190D01*
X128799212Y-112595853D01*
X128554741Y-112596077D01*
X128111338Y-112152674D01*
X127667120Y-112596892D01*
X117783193Y-112605957D01*
X117666747Y-112582794D01*
X117620467Y-112551871D01*
X117589544Y-112505592D01*
X117571329Y-112414019D01*
X117571114Y-111730542D01*
X117725461Y-111730542D01*
X117725461Y-112230542D01*
X117748745Y-112347596D01*
X117815050Y-112446830D01*
X117914284Y-112513135D01*
X118031338Y-112536419D01*
X118631338Y-112536419D01*
X118748392Y-112513135D01*
X118847626Y-112446830D01*
X118877961Y-112401429D01*
X118961401Y-112484870D01*
X119071664Y-112530542D01*
X119206338Y-112530542D01*
X119281338Y-112455542D01*
X119281338Y-112105542D01*
X119581338Y-112105542D01*
X119581338Y-112455542D01*
X119656338Y-112530542D01*
X119791012Y-112530542D01*
X119901275Y-112484870D01*
X119985666Y-112400478D01*
X120031338Y-112290215D01*
X120031338Y-112180542D01*
X119956338Y-112105542D01*
X119581338Y-112105542D01*
X119281338Y-112105542D01*
X119261338Y-112105542D01*
X119261338Y-112086000D01*
X120145000Y-112086000D01*
X120145000Y-112295673D01*
X120190672Y-112405936D01*
X120275063Y-112490328D01*
X120385326Y-112536000D01*
X120620000Y-112536000D01*
X120695000Y-112461000D01*
X120695000Y-112011000D01*
X120995000Y-112011000D01*
X120995000Y-112461000D01*
X121070000Y-112536000D01*
X121304674Y-112536000D01*
X121414937Y-112490328D01*
X121499328Y-112405936D01*
X121545000Y-112295673D01*
X121545000Y-112086000D01*
X121470000Y-112011000D01*
X120995000Y-112011000D01*
X120695000Y-112011000D01*
X120220000Y-112011000D01*
X120145000Y-112086000D01*
X119261338Y-112086000D01*
X119261338Y-111855542D01*
X119281338Y-111855542D01*
X119281338Y-111505542D01*
X119581338Y-111505542D01*
X119581338Y-111855542D01*
X119956338Y-111855542D01*
X120031338Y-111780542D01*
X120031338Y-111670869D01*
X119985666Y-111560606D01*
X119901275Y-111476214D01*
X119791012Y-111430542D01*
X119656338Y-111430542D01*
X119581338Y-111505542D01*
X119281338Y-111505542D01*
X119206338Y-111430542D01*
X119071664Y-111430542D01*
X118961401Y-111476214D01*
X118877961Y-111559655D01*
X118847626Y-111514254D01*
X118756338Y-111453258D01*
X118756338Y-111426327D01*
X120145000Y-111426327D01*
X120145000Y-111636000D01*
X120220000Y-111711000D01*
X120695000Y-111711000D01*
X120695000Y-111261000D01*
X120995000Y-111261000D01*
X120995000Y-111711000D01*
X121470000Y-111711000D01*
X121545000Y-111636000D01*
X121545000Y-111426327D01*
X121499328Y-111316064D01*
X121414937Y-111231672D01*
X121304674Y-111186000D01*
X121070000Y-111186000D01*
X120995000Y-111261000D01*
X120695000Y-111261000D01*
X120620000Y-111186000D01*
X120385326Y-111186000D01*
X120275063Y-111231672D01*
X120190672Y-111316064D01*
X120145000Y-111426327D01*
X118756338Y-111426327D01*
X118756338Y-110216582D01*
X118980200Y-109992720D01*
X119412752Y-109992720D01*
X119412752Y-110271198D01*
X119519320Y-110528477D01*
X119716234Y-110725391D01*
X119973513Y-110831959D01*
X120251991Y-110831959D01*
X120509270Y-110725391D01*
X120706184Y-110528477D01*
X120812752Y-110271198D01*
X120812752Y-109992720D01*
X120706184Y-109735441D01*
X120509270Y-109538527D01*
X120251991Y-109431959D01*
X119973513Y-109431959D01*
X119716234Y-109538527D01*
X119519320Y-109735441D01*
X119412752Y-109992720D01*
X118980200Y-109992720D01*
X120615962Y-108356959D01*
X122678001Y-108356958D01*
X122074079Y-108960881D01*
X122038593Y-108984592D01*
X122014882Y-109020078D01*
X121944659Y-109125174D01*
X121911674Y-109291000D01*
X121920001Y-109332862D01*
X121920000Y-111185096D01*
X121827946Y-111203407D01*
X121728712Y-111269712D01*
X121662407Y-111368946D01*
X121639123Y-111486000D01*
X121639123Y-112236000D01*
X121662407Y-112353054D01*
X121728712Y-112452288D01*
X121827946Y-112518593D01*
X121945000Y-112541877D01*
X122745000Y-112541877D01*
X122862054Y-112518593D01*
X122961288Y-112452288D01*
X123027593Y-112353054D01*
X123050877Y-112236000D01*
X123050877Y-112170542D01*
X124255000Y-112170542D01*
X124255000Y-112280215D01*
X124300672Y-112390478D01*
X124385063Y-112474870D01*
X124495326Y-112520542D01*
X124630000Y-112520542D01*
X124705000Y-112445542D01*
X124705000Y-112095542D01*
X124330000Y-112095542D01*
X124255000Y-112170542D01*
X123050877Y-112170542D01*
X123050877Y-111660869D01*
X124255000Y-111660869D01*
X124255000Y-111770542D01*
X124330000Y-111845542D01*
X124705000Y-111845542D01*
X124705000Y-111495542D01*
X124630000Y-111420542D01*
X124495326Y-111420542D01*
X124385063Y-111466214D01*
X124300672Y-111550606D01*
X124255000Y-111660869D01*
X123050877Y-111660869D01*
X123050877Y-111486000D01*
X123027593Y-111368946D01*
X122961288Y-111269712D01*
X122862054Y-111203407D01*
X122770000Y-111185096D01*
X122770000Y-110694459D01*
X123112752Y-110694459D01*
X123112752Y-110766633D01*
X123158424Y-110876896D01*
X123242816Y-110961287D01*
X123353079Y-111006959D01*
X123987752Y-111006959D01*
X124062752Y-110931959D01*
X124062752Y-110619459D01*
X124362752Y-110619459D01*
X124362752Y-110931959D01*
X124437752Y-111006959D01*
X125072425Y-111006959D01*
X125182688Y-110961287D01*
X125267080Y-110876896D01*
X125312752Y-110766633D01*
X125312752Y-110694459D01*
X125237752Y-110619459D01*
X124362752Y-110619459D01*
X124062752Y-110619459D01*
X123187752Y-110619459D01*
X123112752Y-110694459D01*
X122770000Y-110694459D01*
X122770000Y-110044459D01*
X123112752Y-110044459D01*
X123112752Y-110116633D01*
X123150166Y-110206959D01*
X123112752Y-110297285D01*
X123112752Y-110369459D01*
X123187752Y-110444459D01*
X124062752Y-110444459D01*
X124062752Y-109969459D01*
X124362752Y-109969459D01*
X124362752Y-110444459D01*
X125237752Y-110444459D01*
X125312752Y-110369459D01*
X125312752Y-110297285D01*
X125275338Y-110206959D01*
X125312752Y-110116633D01*
X125312752Y-110044459D01*
X125237752Y-109969459D01*
X124362752Y-109969459D01*
X124062752Y-109969459D01*
X123187752Y-109969459D01*
X123112752Y-110044459D01*
X122770000Y-110044459D01*
X122770000Y-109467040D01*
X123106875Y-109130166D01*
X123106875Y-109406959D01*
X123130159Y-109524013D01*
X123150934Y-109555105D01*
X123112752Y-109647285D01*
X123112752Y-109719459D01*
X123187752Y-109794459D01*
X124062752Y-109794459D01*
X124062752Y-109712836D01*
X124362752Y-109712836D01*
X124362752Y-109794459D01*
X125237752Y-109794459D01*
X125312752Y-109719459D01*
X125312752Y-109686000D01*
X125530001Y-109686000D01*
X125530000Y-111443258D01*
X125438712Y-111504254D01*
X125408377Y-111549655D01*
X125324937Y-111466214D01*
X125214674Y-111420542D01*
X125080000Y-111420542D01*
X125005000Y-111495542D01*
X125005000Y-111845542D01*
X125025000Y-111845542D01*
X125025000Y-112095542D01*
X125005000Y-112095542D01*
X125005000Y-112445542D01*
X125080000Y-112520542D01*
X125214674Y-112520542D01*
X125324937Y-112474870D01*
X125408377Y-112391429D01*
X125438712Y-112436830D01*
X125537946Y-112503135D01*
X125655000Y-112526419D01*
X126255000Y-112526419D01*
X126372054Y-112503135D01*
X126471288Y-112436830D01*
X126537593Y-112337596D01*
X126560877Y-112220542D01*
X126560877Y-111881096D01*
X127221180Y-111881096D01*
X127266190Y-112226270D01*
X127311688Y-112336112D01*
X127437284Y-112402464D01*
X127899206Y-111940542D01*
X127437284Y-111478620D01*
X127311688Y-111544972D01*
X127221180Y-111881096D01*
X126560877Y-111881096D01*
X126560877Y-111720542D01*
X126537593Y-111603488D01*
X126471288Y-111504254D01*
X126380000Y-111443258D01*
X126380000Y-111266488D01*
X127649416Y-111266488D01*
X128111338Y-111728410D01*
X128573260Y-111266488D01*
X128506908Y-111140892D01*
X128170784Y-111050384D01*
X127825610Y-111095394D01*
X127715768Y-111140892D01*
X127649416Y-111266488D01*
X126380000Y-111266488D01*
X126380000Y-109734529D01*
X126513656Y-109600873D01*
X126605000Y-109380347D01*
X126605000Y-109141653D01*
X126513656Y-108921127D01*
X126344873Y-108752344D01*
X126124347Y-108661000D01*
X125885653Y-108661000D01*
X125665127Y-108752344D01*
X125581471Y-108836000D01*
X125302906Y-108836000D01*
X125318629Y-108756959D01*
X125318629Y-108406959D01*
X125295345Y-108289905D01*
X125273332Y-108256959D01*
X125295345Y-108224013D01*
X125318629Y-108106959D01*
X125318629Y-107756959D01*
X125295345Y-107639905D01*
X125273332Y-107606959D01*
X125295345Y-107574013D01*
X125318629Y-107456959D01*
X125318629Y-107106959D01*
X125295345Y-106989905D01*
X125273332Y-106956959D01*
X125295345Y-106924013D01*
X125318629Y-106806959D01*
X125318629Y-106456959D01*
X125295345Y-106339905D01*
X125273332Y-106306959D01*
X125295345Y-106274013D01*
X125318629Y-106156959D01*
X125318629Y-105806959D01*
X125295345Y-105689905D01*
X125273332Y-105656959D01*
X125295345Y-105624013D01*
X125318629Y-105506959D01*
X125318629Y-105156959D01*
X125295345Y-105039905D01*
X125273332Y-105006959D01*
X125295345Y-104974013D01*
X125318629Y-104856959D01*
X125318629Y-104506959D01*
X125308683Y-104456959D01*
X131259226Y-104456959D01*
X131376465Y-104574198D01*
X131596991Y-104665542D01*
X131835685Y-104665542D01*
X132056211Y-104574198D01*
X132059867Y-104570542D01*
X139136338Y-104570542D01*
X139136338Y-104705216D01*
X139182010Y-104815479D01*
X139266402Y-104899870D01*
X139376665Y-104945542D01*
X139486338Y-104945542D01*
X139561338Y-104870542D01*
X139561338Y-104495542D01*
X139211338Y-104495542D01*
X139136338Y-104570542D01*
X132059867Y-104570542D01*
X132224994Y-104405415D01*
X132316338Y-104184889D01*
X132316338Y-103946195D01*
X132224994Y-103725669D01*
X132056211Y-103556886D01*
X131835685Y-103465542D01*
X131596991Y-103465542D01*
X131376465Y-103556886D01*
X131326392Y-103606959D01*
X125308683Y-103606959D01*
X125318629Y-103556959D01*
X125318629Y-103206959D01*
X125308683Y-103156959D01*
X133934226Y-103156959D01*
X133976465Y-103199198D01*
X134196991Y-103290542D01*
X134435685Y-103290542D01*
X134656211Y-103199198D01*
X134824994Y-103030415D01*
X134916338Y-102809889D01*
X134916338Y-102571195D01*
X134824994Y-102350669D01*
X134656211Y-102181886D01*
X134435685Y-102090542D01*
X134196991Y-102090542D01*
X133976465Y-102181886D01*
X133851392Y-102306959D01*
X125308683Y-102306959D01*
X125318629Y-102256959D01*
X125318629Y-101906959D01*
X125295345Y-101789905D01*
X125273332Y-101756959D01*
X125295345Y-101724013D01*
X125318629Y-101606959D01*
X125318629Y-101256959D01*
X125295345Y-101139905D01*
X125273332Y-101106959D01*
X125295345Y-101074013D01*
X125318629Y-100956959D01*
X125318629Y-100606959D01*
X125308683Y-100556959D01*
X136509226Y-100556959D01*
X136576465Y-100624198D01*
X136796991Y-100715542D01*
X137035685Y-100715542D01*
X137256211Y-100624198D01*
X137424994Y-100455415D01*
X137516338Y-100234889D01*
X137516338Y-99996195D01*
X137499635Y-99955868D01*
X139141338Y-99955868D01*
X139141338Y-100090542D01*
X139216338Y-100165542D01*
X139566338Y-100165542D01*
X139566338Y-99790542D01*
X139491338Y-99715542D01*
X139381665Y-99715542D01*
X139271402Y-99761214D01*
X139187010Y-99845605D01*
X139141338Y-99955868D01*
X137499635Y-99955868D01*
X137424994Y-99775669D01*
X137256211Y-99606886D01*
X137035685Y-99515542D01*
X136796991Y-99515542D01*
X136576465Y-99606886D01*
X136476392Y-99706959D01*
X125308683Y-99706959D01*
X125318629Y-99656959D01*
X125318629Y-99306959D01*
X125295345Y-99189905D01*
X125274570Y-99158813D01*
X125312752Y-99066633D01*
X125312752Y-98994459D01*
X125237752Y-98919459D01*
X124362752Y-98919459D01*
X124362752Y-99001082D01*
X124062752Y-99001082D01*
X124062752Y-98919459D01*
X123187752Y-98919459D01*
X123112752Y-98994459D01*
X123112752Y-99066633D01*
X123150934Y-99158813D01*
X123130159Y-99189905D01*
X123106875Y-99306959D01*
X123106875Y-99656959D01*
X123130159Y-99774013D01*
X123152172Y-99806959D01*
X123130159Y-99839905D01*
X123106875Y-99956959D01*
X123106875Y-100306959D01*
X123116821Y-100356959D01*
X123098796Y-100356959D01*
X122830000Y-100088164D01*
X122830000Y-98812920D01*
X123035962Y-98606959D01*
X123112752Y-98606959D01*
X123112752Y-98669459D01*
X123187752Y-98744459D01*
X124062752Y-98744459D01*
X124062752Y-98662836D01*
X124362752Y-98662836D01*
X124362752Y-98744459D01*
X125237752Y-98744459D01*
X125312752Y-98669459D01*
X125312752Y-98606959D01*
X126752184Y-98606959D01*
X126794041Y-98615285D01*
X126835898Y-98606959D01*
X126835899Y-98606959D01*
X126959868Y-98582300D01*
X127100449Y-98488367D01*
X127124162Y-98452878D01*
X132415922Y-93161119D01*
X132451408Y-93137408D01*
X132545341Y-92996827D01*
X132570000Y-92872858D01*
X132578326Y-92831000D01*
X132570000Y-92789143D01*
X132570000Y-92768284D01*
X132661288Y-92707288D01*
X132695000Y-92656834D01*
X132728712Y-92707288D01*
X132819512Y-92767957D01*
X132766342Y-92821127D01*
X132674998Y-93041653D01*
X132674998Y-93280347D01*
X132766342Y-93500873D01*
X132935125Y-93669656D01*
X133155651Y-93761000D01*
X133394345Y-93761000D01*
X133614871Y-93669656D01*
X133783654Y-93500873D01*
X133874998Y-93280347D01*
X133874998Y-93041653D01*
X133783654Y-92821127D01*
X133706454Y-92743927D01*
X133761288Y-92707288D01*
X133827593Y-92608054D01*
X133850877Y-92491000D01*
X133850877Y-91991000D01*
X133827593Y-91873946D01*
X133761288Y-91774712D01*
X133662054Y-91708407D01*
X133545000Y-91685123D01*
X132945000Y-91685123D01*
X132827946Y-91708407D01*
X132728712Y-91774712D01*
X132695000Y-91825166D01*
X132661288Y-91774712D01*
X132562054Y-91708407D01*
X132445000Y-91685123D01*
X131845000Y-91685123D01*
X131727946Y-91708407D01*
X131628712Y-91774712D01*
X131562407Y-91873946D01*
X131539123Y-91991000D01*
X131539123Y-92491000D01*
X131562407Y-92608054D01*
X131628712Y-92707288D01*
X131652066Y-92722893D01*
X126618001Y-97756959D01*
X125308683Y-97756959D01*
X125318629Y-97706959D01*
X125318629Y-97356959D01*
X125295345Y-97239905D01*
X125274570Y-97208813D01*
X125312752Y-97116633D01*
X125312752Y-97044459D01*
X125237752Y-96969459D01*
X124362752Y-96969459D01*
X124362752Y-97051082D01*
X124062752Y-97051082D01*
X124062752Y-96969459D01*
X123187752Y-96969459D01*
X123112752Y-97044459D01*
X123112752Y-97106959D01*
X122686284Y-97106959D01*
X122611211Y-97031886D01*
X122390685Y-96940542D01*
X122151991Y-96940542D01*
X121931465Y-97031886D01*
X121762682Y-97200669D01*
X121671338Y-97421195D01*
X121671338Y-97659889D01*
X121762682Y-97880415D01*
X121931465Y-98049198D01*
X122151991Y-98140542D01*
X122300298Y-98140542D01*
X122134078Y-98306761D01*
X122098593Y-98330472D01*
X122074882Y-98365958D01*
X122004659Y-98471054D01*
X121971674Y-98636880D01*
X121980001Y-98678742D01*
X121980000Y-100222346D01*
X121971674Y-100264204D01*
X121980000Y-100306061D01*
X122004659Y-100430030D01*
X122098592Y-100570612D01*
X122134080Y-100594325D01*
X122592636Y-101052881D01*
X122616347Y-101088367D01*
X122693479Y-101139905D01*
X122756928Y-101182300D01*
X122922754Y-101215285D01*
X122964612Y-101206959D01*
X123116821Y-101206959D01*
X123106875Y-101256959D01*
X123106875Y-101606959D01*
X123130159Y-101724013D01*
X123152172Y-101756959D01*
X123130159Y-101789905D01*
X123106875Y-101906959D01*
X123106875Y-102256959D01*
X123130159Y-102374013D01*
X123152172Y-102406959D01*
X123130159Y-102439905D01*
X123106875Y-102556959D01*
X123106875Y-102906959D01*
X123130159Y-103024013D01*
X123152172Y-103056959D01*
X123130159Y-103089905D01*
X123106875Y-103206959D01*
X123106875Y-103233709D01*
X123085751Y-103339907D01*
X123085753Y-104074013D01*
X123106875Y-104180201D01*
X123106875Y-104206959D01*
X123130159Y-104324013D01*
X123152172Y-104356959D01*
X123130159Y-104389905D01*
X123106875Y-104506959D01*
X123106875Y-104856959D01*
X123130159Y-104974013D01*
X123152172Y-105006959D01*
X123130159Y-105039905D01*
X123106875Y-105156959D01*
X123106875Y-105506959D01*
X123130159Y-105624013D01*
X123152172Y-105656959D01*
X123130159Y-105689905D01*
X123106875Y-105806959D01*
X123106875Y-106156959D01*
X123130159Y-106274013D01*
X123152172Y-106306959D01*
X123130159Y-106339905D01*
X123106875Y-106456959D01*
X123106875Y-106806959D01*
X123130159Y-106924013D01*
X123152172Y-106956959D01*
X123130159Y-106989905D01*
X123106875Y-107106959D01*
X123106875Y-107456959D01*
X123116821Y-107506959D01*
X120481783Y-107506960D01*
X120439921Y-107498633D01*
X120274094Y-107531618D01*
X120168998Y-107601841D01*
X120168996Y-107601843D01*
X120133513Y-107625552D01*
X120109804Y-107661035D01*
X118060417Y-109710423D01*
X118024931Y-109734134D01*
X118001220Y-109769620D01*
X117930997Y-109874716D01*
X117898012Y-110040542D01*
X117906339Y-110082404D01*
X117906338Y-111453258D01*
X117815050Y-111514254D01*
X117748745Y-111613488D01*
X117725461Y-111730542D01*
X117571114Y-111730542D01*
X117570118Y-108565808D01*
X118055857Y-108565560D01*
X118095000Y-108573346D01*
X118241316Y-108544242D01*
X118365359Y-108461359D01*
X118448242Y-108337317D01*
X118470000Y-108227931D01*
X118470000Y-108208912D01*
X118473683Y-108190347D01*
X118470000Y-108171880D01*
X118470000Y-96101195D01*
X121681338Y-96101195D01*
X121681338Y-96339889D01*
X121772682Y-96560415D01*
X121941465Y-96729198D01*
X122161991Y-96820542D01*
X122400685Y-96820542D01*
X122621211Y-96729198D01*
X122693450Y-96656959D01*
X123112752Y-96656959D01*
X123112752Y-96719459D01*
X123187752Y-96794459D01*
X124062752Y-96794459D01*
X124062752Y-96712836D01*
X124362752Y-96712836D01*
X124362752Y-96794459D01*
X125237752Y-96794459D01*
X125312752Y-96719459D01*
X125312752Y-96647285D01*
X125274570Y-96555105D01*
X125295345Y-96524013D01*
X125318629Y-96406959D01*
X125318629Y-96056959D01*
X125308683Y-96006960D01*
X127532183Y-96006960D01*
X127574040Y-96015286D01*
X127615897Y-96006960D01*
X127615898Y-96006960D01*
X127739867Y-95982301D01*
X127880448Y-95888368D01*
X127904161Y-95852879D01*
X130675922Y-93081119D01*
X130711408Y-93057408D01*
X130805341Y-92916827D01*
X130824709Y-92819459D01*
X130835438Y-92765522D01*
X130907626Y-92717288D01*
X130973931Y-92618054D01*
X130997215Y-92501000D01*
X130997215Y-92001000D01*
X130973931Y-91883946D01*
X130907626Y-91784712D01*
X130808392Y-91718407D01*
X130691338Y-91695123D01*
X130091338Y-91695123D01*
X129974284Y-91718407D01*
X129875050Y-91784712D01*
X129841338Y-91835166D01*
X129807626Y-91784712D01*
X129708392Y-91718407D01*
X129591338Y-91695123D01*
X128991338Y-91695123D01*
X128874284Y-91718407D01*
X128775050Y-91784712D01*
X128726338Y-91857616D01*
X128677626Y-91784712D01*
X128578392Y-91718407D01*
X128461338Y-91695123D01*
X127861338Y-91695123D01*
X127744284Y-91718407D01*
X127645050Y-91784712D01*
X127611338Y-91835166D01*
X127577626Y-91784712D01*
X127478392Y-91718407D01*
X127361338Y-91695123D01*
X126761338Y-91695123D01*
X126644284Y-91718407D01*
X126545050Y-91784712D01*
X126478745Y-91883946D01*
X126455461Y-92001000D01*
X126455461Y-92501000D01*
X126478745Y-92618054D01*
X126538089Y-92706870D01*
X126038002Y-93206958D01*
X125312752Y-93206958D01*
X125312752Y-93144459D01*
X125237752Y-93069459D01*
X124362752Y-93069459D01*
X124362752Y-93151082D01*
X124062752Y-93151082D01*
X124062752Y-93069459D01*
X123187752Y-93069459D01*
X123112752Y-93144459D01*
X123112752Y-93216633D01*
X123150934Y-93308813D01*
X123130159Y-93339905D01*
X123106875Y-93456959D01*
X123106875Y-93806959D01*
X123130159Y-93924013D01*
X123152172Y-93956959D01*
X123130159Y-93989905D01*
X123106875Y-94106959D01*
X123106875Y-94456959D01*
X123130159Y-94574013D01*
X123152172Y-94606959D01*
X123130159Y-94639905D01*
X123106875Y-94756959D01*
X123106875Y-95106959D01*
X123130159Y-95224013D01*
X123152172Y-95256959D01*
X123130159Y-95289905D01*
X123106875Y-95406959D01*
X123106875Y-95756959D01*
X123116821Y-95806959D01*
X122716284Y-95806959D01*
X122621211Y-95711886D01*
X122400685Y-95620542D01*
X122161991Y-95620542D01*
X121941465Y-95711886D01*
X121772682Y-95880669D01*
X121681338Y-96101195D01*
X118470000Y-96101195D01*
X118470000Y-95408914D01*
X118473683Y-95390349D01*
X118470000Y-95371882D01*
X118470000Y-95354069D01*
X118448242Y-95244683D01*
X118365359Y-95120641D01*
X118241317Y-95037758D01*
X118095000Y-95008654D01*
X118060290Y-95015558D01*
X117560000Y-95015811D01*
X117560000Y-93242720D01*
X119412752Y-93242720D01*
X119412752Y-93521198D01*
X119519320Y-93778477D01*
X119716234Y-93975391D01*
X119973513Y-94081959D01*
X120251991Y-94081959D01*
X120509270Y-93975391D01*
X120706184Y-93778477D01*
X120812752Y-93521198D01*
X120812752Y-93242720D01*
X120706184Y-92985441D01*
X120509270Y-92788527D01*
X120409703Y-92747285D01*
X123112752Y-92747285D01*
X123112752Y-92819459D01*
X123187752Y-92894459D01*
X124062752Y-92894459D01*
X124062752Y-92581959D01*
X124362752Y-92581959D01*
X124362752Y-92894459D01*
X125237752Y-92894459D01*
X125312752Y-92819459D01*
X125312752Y-92747285D01*
X125267080Y-92637022D01*
X125182688Y-92552631D01*
X125072425Y-92506959D01*
X124437752Y-92506959D01*
X124362752Y-92581959D01*
X124062752Y-92581959D01*
X123987752Y-92506959D01*
X123353079Y-92506959D01*
X123242816Y-92552631D01*
X123158424Y-92637022D01*
X123112752Y-92747285D01*
X120409703Y-92747285D01*
X120251991Y-92681959D01*
X119973513Y-92681959D01*
X119716234Y-92788527D01*
X119519320Y-92985441D01*
X119412752Y-93242720D01*
X117560000Y-93242720D01*
X117560000Y-91777478D01*
X117576303Y-91695517D01*
X117601806Y-91657348D01*
X117639975Y-91631845D01*
X117719640Y-91615999D01*
X140004405Y-91615543D01*
X140086363Y-91631845D01*
G04 #@! TD*
M02*
