G04 #@! TF.GenerationSoftware,KiCad,Pcbnew,(5.0.1-3-g963ef8bb5)*
G04 #@! TF.CreationDate,2019-06-19T10:09:44-10:00*
G04 #@! TF.ProjectId,OpenHAK_Display,4F70656E48414B5F446973706C61792E,rev?*
G04 #@! TF.SameCoordinates,Original*
G04 #@! TF.FileFunction,Legend,Bot*
G04 #@! TF.FilePolarity,Positive*
%FSLAX46Y46*%
G04 Gerber Fmt 4.6, Leading zero omitted, Abs format (unit mm)*
G04 Created by KiCad (PCBNEW (5.0.1-3-g963ef8bb5)) date Wednesday, June 19, 2019 at 10:09:44 AM*
%MOMM*%
%LPD*%
G01*
G04 APERTURE LIST*
%ADD10C,0.250000*%
%ADD11C,0.187500*%
%ADD12C,0.300000*%
%ADD13C,0.120000*%
%ADD14C,0.010000*%
%ADD15C,0.150000*%
G04 APERTURE END LIST*
D10*
X127432619Y-106683380D02*
X127480238Y-106778619D01*
X127527857Y-106826238D01*
X127623095Y-106873857D01*
X127908809Y-106873857D01*
X128004047Y-106826238D01*
X128051666Y-106778619D01*
X128099285Y-106683380D01*
X128099285Y-106540523D01*
X128051666Y-106445285D01*
X128004047Y-106397666D01*
X127908809Y-106350047D01*
X127623095Y-106350047D01*
X127527857Y-106397666D01*
X127480238Y-106445285D01*
X127432619Y-106540523D01*
X127432619Y-106683380D01*
X128099285Y-105921476D02*
X127099285Y-105921476D01*
X128051666Y-105921476D02*
X128099285Y-105826238D01*
X128099285Y-105635761D01*
X128051666Y-105540523D01*
X128004047Y-105492904D01*
X127908809Y-105445285D01*
X127623095Y-105445285D01*
X127527857Y-105492904D01*
X127480238Y-105540523D01*
X127432619Y-105635761D01*
X127432619Y-105826238D01*
X127480238Y-105921476D01*
X127480238Y-104635761D02*
X127432619Y-104731000D01*
X127432619Y-104921476D01*
X127480238Y-105016714D01*
X127575476Y-105064333D01*
X127956428Y-105064333D01*
X128051666Y-105016714D01*
X128099285Y-104921476D01*
X128099285Y-104731000D01*
X128051666Y-104635761D01*
X127956428Y-104588142D01*
X127861190Y-104588142D01*
X127765952Y-105064333D01*
X128099285Y-104159571D02*
X127432619Y-104159571D01*
X128004047Y-104159571D02*
X128051666Y-104111952D01*
X128099285Y-104016714D01*
X128099285Y-103873857D01*
X128051666Y-103778619D01*
X127956428Y-103731000D01*
X127432619Y-103731000D01*
X127432619Y-103254809D02*
X128432619Y-103254809D01*
X127432619Y-102826238D02*
X127956428Y-102826238D01*
X128051666Y-102873857D01*
X128099285Y-102969095D01*
X128099285Y-103111952D01*
X128051666Y-103207190D01*
X128004047Y-103254809D01*
X127432619Y-101921476D02*
X127956428Y-101921476D01*
X128051666Y-101969095D01*
X128099285Y-102064333D01*
X128099285Y-102254809D01*
X128051666Y-102350047D01*
X127480238Y-101921476D02*
X127432619Y-102016714D01*
X127432619Y-102254809D01*
X127480238Y-102350047D01*
X127575476Y-102397666D01*
X127670714Y-102397666D01*
X127765952Y-102350047D01*
X127813571Y-102254809D01*
X127813571Y-102016714D01*
X127861190Y-101921476D01*
X127432619Y-101445285D02*
X128432619Y-101445285D01*
X127813571Y-101350047D02*
X127432619Y-101064333D01*
X128099285Y-101064333D02*
X127718333Y-101445285D01*
X127527857Y-100635761D02*
X127480238Y-100588142D01*
X127432619Y-100635761D01*
X127480238Y-100683380D01*
X127527857Y-100635761D01*
X127432619Y-100635761D01*
X127480238Y-99731000D02*
X127432619Y-99826238D01*
X127432619Y-100016714D01*
X127480238Y-100111952D01*
X127527857Y-100159571D01*
X127623095Y-100207190D01*
X127908809Y-100207190D01*
X128004047Y-100159571D01*
X128051666Y-100111952D01*
X128099285Y-100016714D01*
X128099285Y-99826238D01*
X128051666Y-99731000D01*
X127432619Y-99159571D02*
X127480238Y-99254809D01*
X127527857Y-99302428D01*
X127623095Y-99350047D01*
X127908809Y-99350047D01*
X128004047Y-99302428D01*
X128051666Y-99254809D01*
X128099285Y-99159571D01*
X128099285Y-99016714D01*
X128051666Y-98921476D01*
X128004047Y-98873857D01*
X127908809Y-98826238D01*
X127623095Y-98826238D01*
X127527857Y-98873857D01*
X127480238Y-98921476D01*
X127432619Y-99016714D01*
X127432619Y-99159571D01*
X127432619Y-98397666D02*
X128099285Y-98397666D01*
X128004047Y-98397666D02*
X128051666Y-98350047D01*
X128099285Y-98254809D01*
X128099285Y-98111952D01*
X128051666Y-98016714D01*
X127956428Y-97969095D01*
X127432619Y-97969095D01*
X127956428Y-97969095D02*
X128051666Y-97921476D01*
X128099285Y-97826238D01*
X128099285Y-97683380D01*
X128051666Y-97588142D01*
X127956428Y-97540523D01*
X127432619Y-97540523D01*
X128099285Y-97064333D02*
X127432619Y-97064333D01*
X128004047Y-97064333D02*
X128051666Y-97016714D01*
X128099285Y-96921476D01*
X128099285Y-96778619D01*
X128051666Y-96683380D01*
X127956428Y-96635761D01*
X127432619Y-96635761D01*
D11*
X137471964Y-110285553D02*
X137471964Y-110095077D01*
X137436250Y-109999839D01*
X137364821Y-109904601D01*
X137221964Y-109856982D01*
X136971964Y-109856982D01*
X136829107Y-109904601D01*
X136757678Y-109999839D01*
X136721964Y-110095077D01*
X136721964Y-110285553D01*
X136757678Y-110380791D01*
X136829107Y-110476029D01*
X136971964Y-110523648D01*
X137221964Y-110523648D01*
X137364821Y-110476029D01*
X137436250Y-110380791D01*
X137471964Y-110285553D01*
X136721964Y-108952220D02*
X136721964Y-109428410D01*
X137471964Y-109428410D01*
X137114821Y-108618886D02*
X137114821Y-108285553D01*
X136721964Y-108142696D02*
X136721964Y-108618886D01*
X137471964Y-108618886D01*
X137471964Y-108142696D01*
X136721964Y-107714125D02*
X137471964Y-107714125D01*
X137471964Y-107476029D01*
X137436250Y-107333172D01*
X137364821Y-107237934D01*
X137293392Y-107190315D01*
X137150535Y-107142696D01*
X137043392Y-107142696D01*
X136900535Y-107190315D01*
X136829107Y-107237934D01*
X136757678Y-107333172D01*
X136721964Y-107476029D01*
X136721964Y-107714125D01*
X136650535Y-106952220D02*
X136650535Y-106190315D01*
X136721964Y-105380791D02*
X137079107Y-105714125D01*
X136721964Y-105952220D02*
X137471964Y-105952220D01*
X137471964Y-105571267D01*
X137436250Y-105476029D01*
X137400535Y-105428410D01*
X137329107Y-105380791D01*
X137221964Y-105380791D01*
X137150535Y-105428410D01*
X137114821Y-105476029D01*
X137079107Y-105571267D01*
X137079107Y-105952220D01*
X136757678Y-104999839D02*
X136721964Y-104856982D01*
X136721964Y-104618886D01*
X136757678Y-104523648D01*
X136793392Y-104476029D01*
X136864821Y-104428410D01*
X136936250Y-104428410D01*
X137007678Y-104476029D01*
X137043392Y-104523648D01*
X137079107Y-104618886D01*
X137114821Y-104809363D01*
X137150535Y-104904601D01*
X137186250Y-104952220D01*
X137257678Y-104999839D01*
X137329107Y-104999839D01*
X137400535Y-104952220D01*
X137436250Y-104904601D01*
X137471964Y-104809363D01*
X137471964Y-104571267D01*
X137436250Y-104428410D01*
X137471964Y-104142696D02*
X137471964Y-103571267D01*
X136721964Y-103856982D02*
X137471964Y-103856982D01*
X134132678Y-110523648D02*
X134096964Y-110380791D01*
X134096964Y-110142696D01*
X134132678Y-110047458D01*
X134168392Y-109999839D01*
X134239821Y-109952220D01*
X134311250Y-109952220D01*
X134382678Y-109999839D01*
X134418392Y-110047458D01*
X134454107Y-110142696D01*
X134489821Y-110333172D01*
X134525535Y-110428410D01*
X134561250Y-110476029D01*
X134632678Y-110523648D01*
X134704107Y-110523648D01*
X134775535Y-110476029D01*
X134811250Y-110428410D01*
X134846964Y-110333172D01*
X134846964Y-110095077D01*
X134811250Y-109952220D01*
X134168392Y-108952220D02*
X134132678Y-108999839D01*
X134096964Y-109142696D01*
X134096964Y-109237934D01*
X134132678Y-109380791D01*
X134204107Y-109476029D01*
X134275535Y-109523648D01*
X134418392Y-109571267D01*
X134525535Y-109571267D01*
X134668392Y-109523648D01*
X134739821Y-109476029D01*
X134811250Y-109380791D01*
X134846964Y-109237934D01*
X134846964Y-109142696D01*
X134811250Y-108999839D01*
X134775535Y-108952220D01*
X134096964Y-108047458D02*
X134096964Y-108523648D01*
X134846964Y-108523648D01*
X131507678Y-110523648D02*
X131471964Y-110380791D01*
X131471964Y-110142696D01*
X131507678Y-110047458D01*
X131543392Y-109999839D01*
X131614821Y-109952220D01*
X131686250Y-109952220D01*
X131757678Y-109999839D01*
X131793392Y-110047458D01*
X131829107Y-110142696D01*
X131864821Y-110333172D01*
X131900535Y-110428410D01*
X131936250Y-110476029D01*
X132007678Y-110523648D01*
X132079107Y-110523648D01*
X132150535Y-110476029D01*
X132186250Y-110428410D01*
X132221964Y-110333172D01*
X132221964Y-110095077D01*
X132186250Y-109952220D01*
X131471964Y-109523648D02*
X132221964Y-109523648D01*
X132221964Y-109285553D01*
X132186250Y-109142696D01*
X132114821Y-109047458D01*
X132043392Y-108999839D01*
X131900535Y-108952220D01*
X131793392Y-108952220D01*
X131650535Y-108999839D01*
X131579107Y-109047458D01*
X131507678Y-109142696D01*
X131471964Y-109285553D01*
X131471964Y-109523648D01*
X131686250Y-108571267D02*
X131686250Y-108095077D01*
X131471964Y-108666505D02*
X132221964Y-108333172D01*
X131471964Y-107999839D01*
X129596964Y-110571267D02*
X129596964Y-109952220D01*
X129311250Y-110285553D01*
X129311250Y-110142696D01*
X129275535Y-110047458D01*
X129239821Y-109999839D01*
X129168392Y-109952220D01*
X128989821Y-109952220D01*
X128918392Y-109999839D01*
X128882678Y-110047458D01*
X128846964Y-110142696D01*
X128846964Y-110428410D01*
X128882678Y-110523648D01*
X128918392Y-110571267D01*
X129596964Y-109666505D02*
X128846964Y-109333172D01*
X129596964Y-108999839D01*
X128248750Y-109952220D02*
X128284464Y-110047458D01*
X128284464Y-110190315D01*
X128248750Y-110333172D01*
X128177321Y-110428410D01*
X128105892Y-110476029D01*
X127963035Y-110523648D01*
X127855892Y-110523648D01*
X127713035Y-110476029D01*
X127641607Y-110428410D01*
X127570178Y-110333172D01*
X127534464Y-110190315D01*
X127534464Y-110095077D01*
X127570178Y-109952220D01*
X127605892Y-109904601D01*
X127855892Y-109904601D01*
X127855892Y-110095077D01*
X127534464Y-109476029D02*
X128284464Y-109476029D01*
X127534464Y-108904601D01*
X128284464Y-108904601D01*
X127534464Y-108428410D02*
X128284464Y-108428410D01*
X128284464Y-108190315D01*
X128248750Y-108047458D01*
X128177321Y-107952220D01*
X128105892Y-107904601D01*
X127963035Y-107856982D01*
X127855892Y-107856982D01*
X127713035Y-107904601D01*
X127641607Y-107952220D01*
X127570178Y-108047458D01*
X127534464Y-108190315D01*
X127534464Y-108428410D01*
D12*
X135951428Y-101437190D02*
X135951428Y-101199095D01*
X135880000Y-101080047D01*
X135737142Y-100961000D01*
X135451428Y-100901476D01*
X134951428Y-100901476D01*
X134665714Y-100961000D01*
X134522857Y-101080047D01*
X134451428Y-101199095D01*
X134451428Y-101437190D01*
X134522857Y-101556238D01*
X134665714Y-101675285D01*
X134951428Y-101734809D01*
X135451428Y-101734809D01*
X135737142Y-101675285D01*
X135880000Y-101556238D01*
X135951428Y-101437190D01*
X135451428Y-100365761D02*
X133951428Y-100365761D01*
X135380000Y-100365761D02*
X135451428Y-100246714D01*
X135451428Y-100008619D01*
X135380000Y-99889571D01*
X135308571Y-99830047D01*
X135165714Y-99770523D01*
X134737142Y-99770523D01*
X134594285Y-99830047D01*
X134522857Y-99889571D01*
X134451428Y-100008619D01*
X134451428Y-100246714D01*
X134522857Y-100365761D01*
X134522857Y-98758619D02*
X134451428Y-98877666D01*
X134451428Y-99115761D01*
X134522857Y-99234809D01*
X134665714Y-99294333D01*
X135237142Y-99294333D01*
X135380000Y-99234809D01*
X135451428Y-99115761D01*
X135451428Y-98877666D01*
X135380000Y-98758619D01*
X135237142Y-98699095D01*
X135094285Y-98699095D01*
X134951428Y-99294333D01*
X135451428Y-98163380D02*
X134451428Y-98163380D01*
X135308571Y-98163380D02*
X135380000Y-98103857D01*
X135451428Y-97984809D01*
X135451428Y-97806238D01*
X135380000Y-97687190D01*
X135237142Y-97627666D01*
X134451428Y-97627666D01*
X134451428Y-97032428D02*
X135951428Y-97032428D01*
X135237142Y-97032428D02*
X135237142Y-96318142D01*
X134451428Y-96318142D02*
X135951428Y-96318142D01*
X134880000Y-95782428D02*
X134880000Y-95187190D01*
X134451428Y-95901476D02*
X135951428Y-95484809D01*
X134451428Y-95068142D01*
X134451428Y-94651476D02*
X135951428Y-94651476D01*
X134451428Y-93937190D02*
X135308571Y-94472904D01*
X135951428Y-93937190D02*
X135094285Y-94651476D01*
X131901428Y-101228857D02*
X133401428Y-101228857D01*
X133401428Y-100931238D01*
X133330000Y-100752666D01*
X133187142Y-100633619D01*
X133044285Y-100574095D01*
X132758571Y-100514571D01*
X132544285Y-100514571D01*
X132258571Y-100574095D01*
X132115714Y-100633619D01*
X131972857Y-100752666D01*
X131901428Y-100931238D01*
X131901428Y-101228857D01*
X131901428Y-99978857D02*
X132901428Y-99978857D01*
X133401428Y-99978857D02*
X133330000Y-100038380D01*
X133258571Y-99978857D01*
X133330000Y-99919333D01*
X133401428Y-99978857D01*
X133258571Y-99978857D01*
X131972857Y-99443142D02*
X131901428Y-99324095D01*
X131901428Y-99086000D01*
X131972857Y-98966952D01*
X132115714Y-98907428D01*
X132187142Y-98907428D01*
X132330000Y-98966952D01*
X132401428Y-99086000D01*
X132401428Y-99264571D01*
X132472857Y-99383619D01*
X132615714Y-99443142D01*
X132687142Y-99443142D01*
X132830000Y-99383619D01*
X132901428Y-99264571D01*
X132901428Y-99086000D01*
X132830000Y-98966952D01*
X131901428Y-98193142D02*
X131972857Y-98312190D01*
X132115714Y-98371714D01*
X133401428Y-98371714D01*
X132901428Y-97716952D02*
X131401428Y-97716952D01*
X132830000Y-97716952D02*
X132901428Y-97597904D01*
X132901428Y-97359809D01*
X132830000Y-97240761D01*
X132758571Y-97181238D01*
X132615714Y-97121714D01*
X132187142Y-97121714D01*
X132044285Y-97181238D01*
X131972857Y-97240761D01*
X131901428Y-97359809D01*
X131901428Y-97597904D01*
X131972857Y-97716952D01*
X131901428Y-96050285D02*
X132687142Y-96050285D01*
X132830000Y-96109809D01*
X132901428Y-96228857D01*
X132901428Y-96466952D01*
X132830000Y-96586000D01*
X131972857Y-96050285D02*
X131901428Y-96169333D01*
X131901428Y-96466952D01*
X131972857Y-96586000D01*
X132115714Y-96645523D01*
X132258571Y-96645523D01*
X132401428Y-96586000D01*
X132472857Y-96466952D01*
X132472857Y-96169333D01*
X132544285Y-96050285D01*
X131901428Y-95276476D02*
X131972857Y-95395523D01*
X132115714Y-95455047D01*
X133401428Y-95455047D01*
X132901428Y-94919333D02*
X131901428Y-94621714D01*
X132901428Y-94324095D02*
X131901428Y-94621714D01*
X131544285Y-94740761D01*
X131472857Y-94800285D01*
X131401428Y-94919333D01*
G04 #@! TO.C,LCD1*
X125212752Y-111181959D02*
X119212752Y-111181959D01*
X125212752Y-92331959D02*
X119212752Y-92331959D01*
X119212752Y-92481959D02*
X119212752Y-110981959D01*
X125212752Y-110981959D02*
X125212752Y-92481959D01*
D13*
G04 #@! TO.C,C1*
X127361338Y-91781000D02*
X127861338Y-91781000D01*
X127861338Y-92721000D02*
X127361338Y-92721000D01*
G04 #@! TO.C,C2*
X130091338Y-92721000D02*
X129591338Y-92721000D01*
X129591338Y-91781000D02*
X130091338Y-91781000D01*
G04 #@! TO.C,C4*
X125155000Y-111500542D02*
X125655000Y-111500542D01*
X125655000Y-112440542D02*
X125155000Y-112440542D01*
G04 #@! TO.C,C5*
X139221338Y-101115542D02*
X139221338Y-100615542D01*
X140161338Y-100615542D02*
X140161338Y-101115542D01*
G04 #@! TO.C,C6*
X139216338Y-104045542D02*
X139216338Y-103545542D01*
X140156338Y-103545542D02*
X140156338Y-104045542D01*
G04 #@! TO.C,R1*
X119131338Y-112450542D02*
X118631338Y-112450542D01*
X118631338Y-111510542D02*
X119131338Y-111510542D01*
G04 #@! TO.C,R2*
X132945000Y-92711000D02*
X132445000Y-92711000D01*
X132445000Y-91771000D02*
X132945000Y-91771000D01*
D14*
G04 #@! TO.C,REF\002A\002A\002A*
G36*
X131315816Y-106649759D02*
X131302718Y-106623247D01*
X131279894Y-106590553D01*
X131255004Y-106566725D01*
X131223751Y-106550406D01*
X131181834Y-106540240D01*
X131124956Y-106534872D01*
X131048816Y-106532944D01*
X131016083Y-106532831D01*
X130944344Y-106533161D01*
X130893073Y-106534527D01*
X130857596Y-106537500D01*
X130833237Y-106542649D01*
X130815320Y-106550543D01*
X130803098Y-106558757D01*
X130751095Y-106611187D01*
X130719816Y-106672930D01*
X130710408Y-106739536D01*
X130724020Y-106806558D01*
X130733646Y-106827792D01*
X130760141Y-106878624D01*
X130344948Y-106878624D01*
X130364132Y-106841525D01*
X130378975Y-106792643D01*
X130382778Y-106732561D01*
X130375757Y-106672564D01*
X130359987Y-106627256D01*
X130329953Y-106589675D01*
X130286976Y-106557564D01*
X130282564Y-106555150D01*
X130261779Y-106544967D01*
X130240830Y-106537530D01*
X130215452Y-106532411D01*
X130181382Y-106529181D01*
X130134359Y-106527413D01*
X130070118Y-106526677D01*
X129997824Y-106526544D01*
X129767178Y-106526544D01*
X129767178Y-106664861D01*
X130192467Y-106664861D01*
X130225021Y-106703549D01*
X130251060Y-106743738D01*
X130255795Y-106781797D01*
X130243611Y-106820066D01*
X130231680Y-106840462D01*
X130214687Y-106855642D01*
X130189005Y-106866438D01*
X130151009Y-106873683D01*
X130097074Y-106878208D01*
X130023575Y-106880844D01*
X129974653Y-106881772D01*
X129773465Y-106884911D01*
X129769664Y-106950926D01*
X129765864Y-107016940D01*
X131014350Y-107016940D01*
X131014350Y-106878624D01*
X130944746Y-106875097D01*
X130896431Y-106863215D01*
X130866369Y-106841020D01*
X130851529Y-106806559D01*
X130848564Y-106771742D01*
X130851972Y-106732329D01*
X130865383Y-106706171D01*
X130883104Y-106689814D01*
X130902165Y-106676937D01*
X130923399Y-106669272D01*
X130953151Y-106665861D01*
X130997764Y-106665749D01*
X131035120Y-106666897D01*
X131091396Y-106669532D01*
X131128342Y-106673456D01*
X131151777Y-106680063D01*
X131167520Y-106690749D01*
X131176620Y-106700833D01*
X131196463Y-106742970D01*
X131199668Y-106792840D01*
X131192832Y-106821476D01*
X131168536Y-106849828D01*
X131121272Y-106868609D01*
X131051376Y-106877712D01*
X131014350Y-106878624D01*
X131014350Y-107016940D01*
X131326386Y-107016940D01*
X131326386Y-106947782D01*
X131324744Y-106906260D01*
X131318913Y-106884838D01*
X131307539Y-106878626D01*
X131307202Y-106878624D01*
X131296062Y-106875742D01*
X131297327Y-106863030D01*
X131309567Y-106837757D01*
X131328293Y-106778869D01*
X131330261Y-106712615D01*
X131315816Y-106649759D01*
X131315816Y-106649759D01*
G37*
X131315816Y-106649759D02*
X131302718Y-106623247D01*
X131279894Y-106590553D01*
X131255004Y-106566725D01*
X131223751Y-106550406D01*
X131181834Y-106540240D01*
X131124956Y-106534872D01*
X131048816Y-106532944D01*
X131016083Y-106532831D01*
X130944344Y-106533161D01*
X130893073Y-106534527D01*
X130857596Y-106537500D01*
X130833237Y-106542649D01*
X130815320Y-106550543D01*
X130803098Y-106558757D01*
X130751095Y-106611187D01*
X130719816Y-106672930D01*
X130710408Y-106739536D01*
X130724020Y-106806558D01*
X130733646Y-106827792D01*
X130760141Y-106878624D01*
X130344948Y-106878624D01*
X130364132Y-106841525D01*
X130378975Y-106792643D01*
X130382778Y-106732561D01*
X130375757Y-106672564D01*
X130359987Y-106627256D01*
X130329953Y-106589675D01*
X130286976Y-106557564D01*
X130282564Y-106555150D01*
X130261779Y-106544967D01*
X130240830Y-106537530D01*
X130215452Y-106532411D01*
X130181382Y-106529181D01*
X130134359Y-106527413D01*
X130070118Y-106526677D01*
X129997824Y-106526544D01*
X129767178Y-106526544D01*
X129767178Y-106664861D01*
X130192467Y-106664861D01*
X130225021Y-106703549D01*
X130251060Y-106743738D01*
X130255795Y-106781797D01*
X130243611Y-106820066D01*
X130231680Y-106840462D01*
X130214687Y-106855642D01*
X130189005Y-106866438D01*
X130151009Y-106873683D01*
X130097074Y-106878208D01*
X130023575Y-106880844D01*
X129974653Y-106881772D01*
X129773465Y-106884911D01*
X129769664Y-106950926D01*
X129765864Y-107016940D01*
X131014350Y-107016940D01*
X131014350Y-106878624D01*
X130944746Y-106875097D01*
X130896431Y-106863215D01*
X130866369Y-106841020D01*
X130851529Y-106806559D01*
X130848564Y-106771742D01*
X130851972Y-106732329D01*
X130865383Y-106706171D01*
X130883104Y-106689814D01*
X130902165Y-106676937D01*
X130923399Y-106669272D01*
X130953151Y-106665861D01*
X130997764Y-106665749D01*
X131035120Y-106666897D01*
X131091396Y-106669532D01*
X131128342Y-106673456D01*
X131151777Y-106680063D01*
X131167520Y-106690749D01*
X131176620Y-106700833D01*
X131196463Y-106742970D01*
X131199668Y-106792840D01*
X131192832Y-106821476D01*
X131168536Y-106849828D01*
X131121272Y-106868609D01*
X131051376Y-106877712D01*
X131014350Y-106878624D01*
X131014350Y-107016940D01*
X131326386Y-107016940D01*
X131326386Y-106947782D01*
X131324744Y-106906260D01*
X131318913Y-106884838D01*
X131307539Y-106878626D01*
X131307202Y-106878624D01*
X131296062Y-106875742D01*
X131297327Y-106863030D01*
X131309567Y-106837757D01*
X131328293Y-106778869D01*
X131330261Y-106712615D01*
X131315816Y-106649759D01*
G36*
X130378445Y-106125210D02*
X130362661Y-106066055D01*
X130334052Y-106021023D01*
X130296581Y-105989246D01*
X130280589Y-105979366D01*
X130263837Y-105972073D01*
X130242408Y-105966974D01*
X130212384Y-105963679D01*
X130169846Y-105961797D01*
X130110878Y-105960937D01*
X130031560Y-105960707D01*
X130010516Y-105960703D01*
X129767178Y-105960703D01*
X129767178Y-106021059D01*
X129769874Y-106059557D01*
X129776705Y-106088023D01*
X129780917Y-106095155D01*
X129788187Y-106114652D01*
X129780917Y-106134566D01*
X129771840Y-106167353D01*
X129768187Y-106214978D01*
X129769772Y-106267764D01*
X129776411Y-106316036D01*
X129784928Y-106344218D01*
X129819937Y-106398753D01*
X129868521Y-106432835D01*
X129933118Y-106448157D01*
X129934777Y-106448299D01*
X129963434Y-106446955D01*
X129963434Y-106325356D01*
X129930839Y-106314726D01*
X129912495Y-106297410D01*
X129898621Y-106262652D01*
X129893083Y-106216773D01*
X129895809Y-106169988D01*
X129906726Y-106132514D01*
X129913731Y-106122015D01*
X129946096Y-106103668D01*
X129982889Y-106099020D01*
X130031237Y-106099020D01*
X130031237Y-106168582D01*
X130026150Y-106234667D01*
X130011737Y-106284764D01*
X129989271Y-106315929D01*
X129963434Y-106325356D01*
X129963434Y-106446955D01*
X130005353Y-106444987D01*
X130061155Y-106421710D01*
X130103353Y-106377948D01*
X130107192Y-106371899D01*
X130119691Y-106345907D01*
X130127260Y-106313735D01*
X130130939Y-106268760D01*
X130131784Y-106215331D01*
X130131831Y-106099020D01*
X130180589Y-106099020D01*
X130218419Y-106103953D01*
X130243764Y-106116543D01*
X130245113Y-106118017D01*
X130256200Y-106146034D01*
X130260497Y-106188326D01*
X130258385Y-106235064D01*
X130250244Y-106276418D01*
X130238035Y-106300957D01*
X130228254Y-106314253D01*
X130226387Y-106328294D01*
X130234400Y-106347671D01*
X130254261Y-106376976D01*
X130287937Y-106420803D01*
X130291091Y-106424825D01*
X130302764Y-106422764D01*
X130322178Y-106405568D01*
X130343752Y-106379433D01*
X130361904Y-106350552D01*
X130366191Y-106341478D01*
X130374744Y-106308380D01*
X130380845Y-106259880D01*
X130383292Y-106205695D01*
X130383297Y-106203161D01*
X130378445Y-106125210D01*
X130378445Y-106125210D01*
G37*
X130378445Y-106125210D02*
X130362661Y-106066055D01*
X130334052Y-106021023D01*
X130296581Y-105989246D01*
X130280589Y-105979366D01*
X130263837Y-105972073D01*
X130242408Y-105966974D01*
X130212384Y-105963679D01*
X130169846Y-105961797D01*
X130110878Y-105960937D01*
X130031560Y-105960707D01*
X130010516Y-105960703D01*
X129767178Y-105960703D01*
X129767178Y-106021059D01*
X129769874Y-106059557D01*
X129776705Y-106088023D01*
X129780917Y-106095155D01*
X129788187Y-106114652D01*
X129780917Y-106134566D01*
X129771840Y-106167353D01*
X129768187Y-106214978D01*
X129769772Y-106267764D01*
X129776411Y-106316036D01*
X129784928Y-106344218D01*
X129819937Y-106398753D01*
X129868521Y-106432835D01*
X129933118Y-106448157D01*
X129934777Y-106448299D01*
X129963434Y-106446955D01*
X129963434Y-106325356D01*
X129930839Y-106314726D01*
X129912495Y-106297410D01*
X129898621Y-106262652D01*
X129893083Y-106216773D01*
X129895809Y-106169988D01*
X129906726Y-106132514D01*
X129913731Y-106122015D01*
X129946096Y-106103668D01*
X129982889Y-106099020D01*
X130031237Y-106099020D01*
X130031237Y-106168582D01*
X130026150Y-106234667D01*
X130011737Y-106284764D01*
X129989271Y-106315929D01*
X129963434Y-106325356D01*
X129963434Y-106446955D01*
X130005353Y-106444987D01*
X130061155Y-106421710D01*
X130103353Y-106377948D01*
X130107192Y-106371899D01*
X130119691Y-106345907D01*
X130127260Y-106313735D01*
X130130939Y-106268760D01*
X130131784Y-106215331D01*
X130131831Y-106099020D01*
X130180589Y-106099020D01*
X130218419Y-106103953D01*
X130243764Y-106116543D01*
X130245113Y-106118017D01*
X130256200Y-106146034D01*
X130260497Y-106188326D01*
X130258385Y-106235064D01*
X130250244Y-106276418D01*
X130238035Y-106300957D01*
X130228254Y-106314253D01*
X130226387Y-106328294D01*
X130234400Y-106347671D01*
X130254261Y-106376976D01*
X130287937Y-106420803D01*
X130291091Y-106424825D01*
X130302764Y-106422764D01*
X130322178Y-106405568D01*
X130343752Y-106379433D01*
X130361904Y-106350552D01*
X130366191Y-106341478D01*
X130374744Y-106308380D01*
X130380845Y-106259880D01*
X130383292Y-106205695D01*
X130383297Y-106203161D01*
X130378445Y-106125210D01*
G36*
X130381980Y-105734356D02*
X130376340Y-105715539D01*
X130363947Y-105709473D01*
X130358353Y-105709218D01*
X130342770Y-105708129D01*
X130340324Y-105700632D01*
X130351007Y-105680381D01*
X130358306Y-105668351D01*
X130373937Y-105630400D01*
X130381666Y-105585072D01*
X130382260Y-105537544D01*
X130376487Y-105492995D01*
X130365116Y-105456602D01*
X130348912Y-105433543D01*
X130328645Y-105428996D01*
X130323157Y-105431291D01*
X130300374Y-105448020D01*
X130272353Y-105473963D01*
X130267823Y-105478655D01*
X130246995Y-105503383D01*
X130240265Y-105524718D01*
X130244962Y-105554555D01*
X130248083Y-105566508D01*
X130255579Y-105603705D01*
X130252208Y-105629859D01*
X130240319Y-105651946D01*
X130224365Y-105672178D01*
X130204300Y-105687079D01*
X130176298Y-105697434D01*
X130136533Y-105704029D01*
X130081177Y-105707649D01*
X130006406Y-105709078D01*
X129961260Y-105709218D01*
X129767178Y-105709218D01*
X129767178Y-105834960D01*
X130383317Y-105834960D01*
X130383317Y-105772089D01*
X130381980Y-105734356D01*
X130381980Y-105734356D01*
G37*
X130381980Y-105734356D02*
X130376340Y-105715539D01*
X130363947Y-105709473D01*
X130358353Y-105709218D01*
X130342770Y-105708129D01*
X130340324Y-105700632D01*
X130351007Y-105680381D01*
X130358306Y-105668351D01*
X130373937Y-105630400D01*
X130381666Y-105585072D01*
X130382260Y-105537544D01*
X130376487Y-105492995D01*
X130365116Y-105456602D01*
X130348912Y-105433543D01*
X130328645Y-105428996D01*
X130323157Y-105431291D01*
X130300374Y-105448020D01*
X130272353Y-105473963D01*
X130267823Y-105478655D01*
X130246995Y-105503383D01*
X130240265Y-105524718D01*
X130244962Y-105554555D01*
X130248083Y-105566508D01*
X130255579Y-105603705D01*
X130252208Y-105629859D01*
X130240319Y-105651946D01*
X130224365Y-105672178D01*
X130204300Y-105687079D01*
X130176298Y-105697434D01*
X130136533Y-105704029D01*
X130081177Y-105707649D01*
X130006406Y-105709078D01*
X129961260Y-105709218D01*
X129767178Y-105709218D01*
X129767178Y-105834960D01*
X130383317Y-105834960D01*
X130383317Y-105772089D01*
X130381980Y-105734356D01*
G36*
X129767178Y-104942188D02*
X129767178Y-105011346D01*
X129768355Y-105051488D01*
X129773228Y-105072394D01*
X129783814Y-105079922D01*
X129790971Y-105080505D01*
X129805324Y-105081774D01*
X129808077Y-105089779D01*
X129799229Y-105110815D01*
X129790971Y-105127173D01*
X129771403Y-105189977D01*
X129770271Y-105258248D01*
X129784865Y-105313752D01*
X129820123Y-105365438D01*
X129872165Y-105404838D01*
X129933550Y-105426413D01*
X129936982Y-105426962D01*
X129974429Y-105430167D01*
X130028187Y-105431761D01*
X130068845Y-105431633D01*
X130068845Y-105294279D01*
X130014806Y-105291097D01*
X129970265Y-105283859D01*
X129945112Y-105274060D01*
X129910740Y-105236989D01*
X129898418Y-105192974D01*
X129908382Y-105147584D01*
X129938105Y-105108797D01*
X129958095Y-105094108D01*
X129981950Y-105085519D01*
X130016770Y-105081496D01*
X130069070Y-105080505D01*
X130120861Y-105082278D01*
X130166366Y-105086963D01*
X130196819Y-105093603D01*
X130199548Y-105094710D01*
X130232000Y-105121491D01*
X130249817Y-105160579D01*
X130252694Y-105204315D01*
X130240326Y-105245038D01*
X130212407Y-105275087D01*
X130206852Y-105278204D01*
X130172978Y-105287961D01*
X130124272Y-105293277D01*
X130068845Y-105294279D01*
X130068845Y-105431633D01*
X130089460Y-105431568D01*
X130122437Y-105430664D01*
X130204019Y-105424514D01*
X130265270Y-105411733D01*
X130310551Y-105390471D01*
X130344221Y-105358878D01*
X130363986Y-105328207D01*
X130377880Y-105285354D01*
X130382646Y-105232056D01*
X130378764Y-105177480D01*
X130366718Y-105130792D01*
X130352307Y-105106124D01*
X130329122Y-105080505D01*
X130622227Y-105080505D01*
X130622227Y-104942188D01*
X129767178Y-104942188D01*
X129767178Y-104942188D01*
G37*
X129767178Y-104942188D02*
X129767178Y-105011346D01*
X129768355Y-105051488D01*
X129773228Y-105072394D01*
X129783814Y-105079922D01*
X129790971Y-105080505D01*
X129805324Y-105081774D01*
X129808077Y-105089779D01*
X129799229Y-105110815D01*
X129790971Y-105127173D01*
X129771403Y-105189977D01*
X129770271Y-105258248D01*
X129784865Y-105313752D01*
X129820123Y-105365438D01*
X129872165Y-105404838D01*
X129933550Y-105426413D01*
X129936982Y-105426962D01*
X129974429Y-105430167D01*
X130028187Y-105431761D01*
X130068845Y-105431633D01*
X130068845Y-105294279D01*
X130014806Y-105291097D01*
X129970265Y-105283859D01*
X129945112Y-105274060D01*
X129910740Y-105236989D01*
X129898418Y-105192974D01*
X129908382Y-105147584D01*
X129938105Y-105108797D01*
X129958095Y-105094108D01*
X129981950Y-105085519D01*
X130016770Y-105081496D01*
X130069070Y-105080505D01*
X130120861Y-105082278D01*
X130166366Y-105086963D01*
X130196819Y-105093603D01*
X130199548Y-105094710D01*
X130232000Y-105121491D01*
X130249817Y-105160579D01*
X130252694Y-105204315D01*
X130240326Y-105245038D01*
X130212407Y-105275087D01*
X130206852Y-105278204D01*
X130172978Y-105287961D01*
X130124272Y-105293277D01*
X130068845Y-105294279D01*
X130068845Y-105431633D01*
X130089460Y-105431568D01*
X130122437Y-105430664D01*
X130204019Y-105424514D01*
X130265270Y-105411733D01*
X130310551Y-105390471D01*
X130344221Y-105358878D01*
X130363986Y-105328207D01*
X130377880Y-105285354D01*
X130382646Y-105232056D01*
X130378764Y-105177480D01*
X130366718Y-105130792D01*
X130352307Y-105106124D01*
X130329122Y-105080505D01*
X130622227Y-105080505D01*
X130622227Y-104942188D01*
X129767178Y-104942188D01*
G36*
X130380763Y-104459476D02*
X130377029Y-104409745D01*
X129987227Y-104279709D01*
X130056386Y-104259322D01*
X130099126Y-104247054D01*
X130156885Y-104230915D01*
X130220375Y-104213488D01*
X130254430Y-104204274D01*
X130383317Y-104169612D01*
X130383317Y-104026609D01*
X130248143Y-104069354D01*
X130181658Y-104090404D01*
X130101461Y-104115833D01*
X130017807Y-104142390D01*
X129943218Y-104166098D01*
X129773465Y-104220098D01*
X129769672Y-104278402D01*
X129765878Y-104336705D01*
X129870266Y-104368321D01*
X129935111Y-104387818D01*
X130006600Y-104409096D01*
X130069737Y-104427692D01*
X130072250Y-104428426D01*
X130115031Y-104442316D01*
X130144221Y-104454571D01*
X130155259Y-104463154D01*
X130153982Y-104464918D01*
X130136870Y-104471109D01*
X130100213Y-104482872D01*
X130048622Y-104498775D01*
X129986706Y-104517386D01*
X129952648Y-104527457D01*
X129767178Y-104581993D01*
X129767178Y-104697736D01*
X130059529Y-104790263D01*
X130141538Y-104816256D01*
X130216013Y-104839934D01*
X130279456Y-104860180D01*
X130328368Y-104875874D01*
X130359251Y-104885898D01*
X130368274Y-104888945D01*
X130377513Y-104886533D01*
X130381559Y-104867592D01*
X130381154Y-104828177D01*
X130380848Y-104822007D01*
X130377029Y-104748914D01*
X130200990Y-104701043D01*
X130136789Y-104683447D01*
X130080351Y-104667723D01*
X130036578Y-104655254D01*
X130010370Y-104647426D01*
X130006097Y-104645980D01*
X130011010Y-104639986D01*
X130036468Y-104627899D01*
X130079003Y-104611107D01*
X130135150Y-104590997D01*
X130185870Y-104573997D01*
X130384496Y-104509206D01*
X130380763Y-104459476D01*
X130380763Y-104459476D01*
G37*
X130380763Y-104459476D02*
X130377029Y-104409745D01*
X129987227Y-104279709D01*
X130056386Y-104259322D01*
X130099126Y-104247054D01*
X130156885Y-104230915D01*
X130220375Y-104213488D01*
X130254430Y-104204274D01*
X130383317Y-104169612D01*
X130383317Y-104026609D01*
X130248143Y-104069354D01*
X130181658Y-104090404D01*
X130101461Y-104115833D01*
X130017807Y-104142390D01*
X129943218Y-104166098D01*
X129773465Y-104220098D01*
X129769672Y-104278402D01*
X129765878Y-104336705D01*
X129870266Y-104368321D01*
X129935111Y-104387818D01*
X130006600Y-104409096D01*
X130069737Y-104427692D01*
X130072250Y-104428426D01*
X130115031Y-104442316D01*
X130144221Y-104454571D01*
X130155259Y-104463154D01*
X130153982Y-104464918D01*
X130136870Y-104471109D01*
X130100213Y-104482872D01*
X130048622Y-104498775D01*
X129986706Y-104517386D01*
X129952648Y-104527457D01*
X129767178Y-104581993D01*
X129767178Y-104697736D01*
X130059529Y-104790263D01*
X130141538Y-104816256D01*
X130216013Y-104839934D01*
X130279456Y-104860180D01*
X130328368Y-104875874D01*
X130359251Y-104885898D01*
X130368274Y-104888945D01*
X130377513Y-104886533D01*
X130381559Y-104867592D01*
X130381154Y-104828177D01*
X130380848Y-104822007D01*
X130377029Y-104748914D01*
X130200990Y-104701043D01*
X130136789Y-104683447D01*
X130080351Y-104667723D01*
X130036578Y-104655254D01*
X130010370Y-104647426D01*
X130006097Y-104645980D01*
X130011010Y-104639986D01*
X130036468Y-104627899D01*
X130079003Y-104611107D01*
X130135150Y-104590997D01*
X130185870Y-104573997D01*
X130384496Y-104509206D01*
X130380763Y-104459476D01*
G36*
X130379583Y-103702589D02*
X130366710Y-103649589D01*
X130359890Y-103634269D01*
X130342026Y-103604572D01*
X130321907Y-103581780D01*
X130296038Y-103564917D01*
X130260927Y-103553002D01*
X130213080Y-103545058D01*
X130149004Y-103540106D01*
X130065206Y-103537169D01*
X130009232Y-103536053D01*
X129767178Y-103531948D01*
X129767178Y-103602068D01*
X129768962Y-103644607D01*
X129775058Y-103666524D01*
X129785294Y-103672188D01*
X129796363Y-103675179D01*
X129794246Y-103688549D01*
X129785371Y-103706767D01*
X129771767Y-103752376D01*
X129768101Y-103810993D01*
X129774097Y-103872646D01*
X129789479Y-103927362D01*
X129791614Y-103932270D01*
X129826745Y-103982277D01*
X129875581Y-104015244D01*
X129932667Y-104030413D01*
X129953176Y-104029254D01*
X129953176Y-103905492D01*
X129925575Y-103894587D01*
X129905796Y-103862255D01*
X129895181Y-103810090D01*
X129893772Y-103782213D01*
X129897380Y-103735753D01*
X129911403Y-103704871D01*
X129918069Y-103697336D01*
X129954334Y-103676924D01*
X129987227Y-103672188D01*
X130031237Y-103672188D01*
X130031237Y-103733487D01*
X130027605Y-103804744D01*
X130016182Y-103854724D01*
X129996176Y-103886304D01*
X129987257Y-103893374D01*
X129953176Y-103905492D01*
X129953176Y-104029254D01*
X129992544Y-104027029D01*
X130049756Y-104004337D01*
X130088420Y-103973376D01*
X130105136Y-103954624D01*
X130116122Y-103936267D01*
X130122820Y-103912381D01*
X130126674Y-103877043D01*
X130129127Y-103824331D01*
X130129832Y-103803423D01*
X130134121Y-103672188D01*
X130173842Y-103672380D01*
X130215595Y-103677463D01*
X130240842Y-103695838D01*
X130256970Y-103732961D01*
X130257258Y-103733957D01*
X130263600Y-103786590D01*
X130255316Y-103838094D01*
X130235173Y-103876370D01*
X130225227Y-103891728D01*
X130226603Y-103908270D01*
X130241013Y-103933725D01*
X130251183Y-103948672D01*
X130272912Y-103977909D01*
X130289200Y-103996020D01*
X130293863Y-103998926D01*
X130317995Y-103986960D01*
X130346815Y-103951604D01*
X130356539Y-103936247D01*
X130373286Y-103892099D01*
X130382773Y-103832602D01*
X130384905Y-103766513D01*
X130379583Y-103702589D01*
X130379583Y-103702589D01*
G37*
X130379583Y-103702589D02*
X130366710Y-103649589D01*
X130359890Y-103634269D01*
X130342026Y-103604572D01*
X130321907Y-103581780D01*
X130296038Y-103564917D01*
X130260927Y-103553002D01*
X130213080Y-103545058D01*
X130149004Y-103540106D01*
X130065206Y-103537169D01*
X130009232Y-103536053D01*
X129767178Y-103531948D01*
X129767178Y-103602068D01*
X129768962Y-103644607D01*
X129775058Y-103666524D01*
X129785294Y-103672188D01*
X129796363Y-103675179D01*
X129794246Y-103688549D01*
X129785371Y-103706767D01*
X129771767Y-103752376D01*
X129768101Y-103810993D01*
X129774097Y-103872646D01*
X129789479Y-103927362D01*
X129791614Y-103932270D01*
X129826745Y-103982277D01*
X129875581Y-104015244D01*
X129932667Y-104030413D01*
X129953176Y-104029254D01*
X129953176Y-103905492D01*
X129925575Y-103894587D01*
X129905796Y-103862255D01*
X129895181Y-103810090D01*
X129893772Y-103782213D01*
X129897380Y-103735753D01*
X129911403Y-103704871D01*
X129918069Y-103697336D01*
X129954334Y-103676924D01*
X129987227Y-103672188D01*
X130031237Y-103672188D01*
X130031237Y-103733487D01*
X130027605Y-103804744D01*
X130016182Y-103854724D01*
X129996176Y-103886304D01*
X129987257Y-103893374D01*
X129953176Y-103905492D01*
X129953176Y-104029254D01*
X129992544Y-104027029D01*
X130049756Y-104004337D01*
X130088420Y-103973376D01*
X130105136Y-103954624D01*
X130116122Y-103936267D01*
X130122820Y-103912381D01*
X130126674Y-103877043D01*
X130129127Y-103824331D01*
X130129832Y-103803423D01*
X130134121Y-103672188D01*
X130173842Y-103672380D01*
X130215595Y-103677463D01*
X130240842Y-103695838D01*
X130256970Y-103732961D01*
X130257258Y-103733957D01*
X130263600Y-103786590D01*
X130255316Y-103838094D01*
X130235173Y-103876370D01*
X130225227Y-103891728D01*
X130226603Y-103908270D01*
X130241013Y-103933725D01*
X130251183Y-103948672D01*
X130272912Y-103977909D01*
X130289200Y-103996020D01*
X130293863Y-103998926D01*
X130317995Y-103986960D01*
X130346815Y-103951604D01*
X130356539Y-103936247D01*
X130373286Y-103892099D01*
X130382773Y-103832602D01*
X130384905Y-103766513D01*
X130379583Y-103702589D01*
G36*
X130383514Y-103105745D02*
X130373985Y-103057405D01*
X130359875Y-103029886D01*
X130336432Y-103000936D01*
X130284429Y-103042124D01*
X130252936Y-103067518D01*
X130237572Y-103084762D01*
X130235224Y-103101898D01*
X130242783Y-103126973D01*
X130247059Y-103138743D01*
X130253369Y-103186730D01*
X130239844Y-103230676D01*
X130209290Y-103262940D01*
X130199548Y-103268181D01*
X130173742Y-103273888D01*
X130126183Y-103278294D01*
X130060242Y-103281189D01*
X129979290Y-103282369D01*
X129967774Y-103282386D01*
X129767178Y-103282386D01*
X129767178Y-103420703D01*
X130383317Y-103420703D01*
X130383317Y-103351544D01*
X130382275Y-103311667D01*
X130377642Y-103290893D01*
X130367151Y-103283211D01*
X130357255Y-103282386D01*
X130331194Y-103282386D01*
X130357255Y-103249255D01*
X130375035Y-103211265D01*
X130383826Y-103160230D01*
X130383514Y-103105745D01*
X130383514Y-103105745D01*
G37*
X130383514Y-103105745D02*
X130373985Y-103057405D01*
X130359875Y-103029886D01*
X130336432Y-103000936D01*
X130284429Y-103042124D01*
X130252936Y-103067518D01*
X130237572Y-103084762D01*
X130235224Y-103101898D01*
X130242783Y-103126973D01*
X130247059Y-103138743D01*
X130253369Y-103186730D01*
X130239844Y-103230676D01*
X130209290Y-103262940D01*
X130199548Y-103268181D01*
X130173742Y-103273888D01*
X130126183Y-103278294D01*
X130060242Y-103281189D01*
X129979290Y-103282369D01*
X129967774Y-103282386D01*
X129767178Y-103282386D01*
X129767178Y-103420703D01*
X130383317Y-103420703D01*
X130383317Y-103351544D01*
X130382275Y-103311667D01*
X130377642Y-103290893D01*
X130367151Y-103283211D01*
X130357255Y-103282386D01*
X130331194Y-103282386D01*
X130357255Y-103249255D01*
X130375035Y-103211265D01*
X130383826Y-103160230D01*
X130383514Y-103105745D01*
G36*
X130380030Y-102708419D02*
X130364403Y-102648315D01*
X130332152Y-102597979D01*
X130308060Y-102573607D01*
X130251105Y-102533655D01*
X130185035Y-102510758D01*
X130103818Y-102502892D01*
X130097252Y-102502852D01*
X130031237Y-102502782D01*
X130031237Y-102882736D01*
X129996658Y-102874637D01*
X129965341Y-102860013D01*
X129932709Y-102834419D01*
X129927500Y-102829065D01*
X129899306Y-102783057D01*
X129894525Y-102730590D01*
X129913074Y-102670197D01*
X129918069Y-102659960D01*
X129933255Y-102628561D01*
X129941906Y-102607530D01*
X129942707Y-102603861D01*
X129934937Y-102591052D01*
X129915928Y-102566622D01*
X129905540Y-102554221D01*
X129881679Y-102528524D01*
X129865923Y-102520085D01*
X129851429Y-102525942D01*
X129847466Y-102529072D01*
X129830121Y-102550275D01*
X129809041Y-102585262D01*
X129796735Y-102609663D01*
X129775054Y-102678928D01*
X129768029Y-102755612D01*
X129776353Y-102828235D01*
X129782314Y-102848574D01*
X129816048Y-102911524D01*
X129867955Y-102958185D01*
X129938541Y-102988827D01*
X130028308Y-103003718D01*
X130075247Y-103005353D01*
X130143587Y-103000579D01*
X130143587Y-102880010D01*
X130138535Y-102868348D01*
X130134571Y-102837002D01*
X130132232Y-102791429D01*
X130131831Y-102760554D01*
X130132217Y-102705019D01*
X130134025Y-102669967D01*
X130138227Y-102650738D01*
X130145797Y-102642670D01*
X130156782Y-102641099D01*
X130190619Y-102651879D01*
X130224060Y-102679020D01*
X130249728Y-102714723D01*
X130260228Y-102750440D01*
X130250914Y-102798952D01*
X130223987Y-102840947D01*
X130185173Y-102870064D01*
X130143587Y-102880010D01*
X130143587Y-103000579D01*
X130174764Y-102998401D01*
X130254051Y-102976945D01*
X130313737Y-102940530D01*
X130354451Y-102888703D01*
X130376821Y-102821010D01*
X130381129Y-102784338D01*
X130380030Y-102708419D01*
X130380030Y-102708419D01*
G37*
X130380030Y-102708419D02*
X130364403Y-102648315D01*
X130332152Y-102597979D01*
X130308060Y-102573607D01*
X130251105Y-102533655D01*
X130185035Y-102510758D01*
X130103818Y-102502892D01*
X130097252Y-102502852D01*
X130031237Y-102502782D01*
X130031237Y-102882736D01*
X129996658Y-102874637D01*
X129965341Y-102860013D01*
X129932709Y-102834419D01*
X129927500Y-102829065D01*
X129899306Y-102783057D01*
X129894525Y-102730590D01*
X129913074Y-102670197D01*
X129918069Y-102659960D01*
X129933255Y-102628561D01*
X129941906Y-102607530D01*
X129942707Y-102603861D01*
X129934937Y-102591052D01*
X129915928Y-102566622D01*
X129905540Y-102554221D01*
X129881679Y-102528524D01*
X129865923Y-102520085D01*
X129851429Y-102525942D01*
X129847466Y-102529072D01*
X129830121Y-102550275D01*
X129809041Y-102585262D01*
X129796735Y-102609663D01*
X129775054Y-102678928D01*
X129768029Y-102755612D01*
X129776353Y-102828235D01*
X129782314Y-102848574D01*
X129816048Y-102911524D01*
X129867955Y-102958185D01*
X129938541Y-102988827D01*
X130028308Y-103003718D01*
X130075247Y-103005353D01*
X130143587Y-103000579D01*
X130143587Y-102880010D01*
X130138535Y-102868348D01*
X130134571Y-102837002D01*
X130132232Y-102791429D01*
X130131831Y-102760554D01*
X130132217Y-102705019D01*
X130134025Y-102669967D01*
X130138227Y-102650738D01*
X130145797Y-102642670D01*
X130156782Y-102641099D01*
X130190619Y-102651879D01*
X130224060Y-102679020D01*
X130249728Y-102714723D01*
X130260228Y-102750440D01*
X130250914Y-102798952D01*
X130223987Y-102840947D01*
X130185173Y-102870064D01*
X130143587Y-102880010D01*
X130143587Y-103000579D01*
X130174764Y-102998401D01*
X130254051Y-102976945D01*
X130313737Y-102940530D01*
X130354451Y-102888703D01*
X130376821Y-102821010D01*
X130381129Y-102784338D01*
X130380030Y-102708419D01*
G36*
X131319852Y-107279261D02*
X131290769Y-107213479D01*
X131242207Y-107163540D01*
X131174092Y-107129374D01*
X131086349Y-107110907D01*
X131072649Y-107109583D01*
X130976061Y-107108546D01*
X130891398Y-107121993D01*
X130822779Y-107149108D01*
X130800706Y-107163627D01*
X130753989Y-107214201D01*
X130723732Y-107278609D01*
X130711176Y-107350666D01*
X130717561Y-107424185D01*
X130737228Y-107480072D01*
X130770371Y-107528132D01*
X130813825Y-107567412D01*
X130814842Y-107568092D01*
X130841662Y-107584044D01*
X130868632Y-107594410D01*
X130902668Y-107600688D01*
X130950690Y-107604373D01*
X130990069Y-107605997D01*
X131025781Y-107606672D01*
X131025781Y-107480955D01*
X130990230Y-107479726D01*
X130942906Y-107475266D01*
X130912535Y-107467397D01*
X130890928Y-107453207D01*
X130878306Y-107439917D01*
X130851878Y-107392802D01*
X130848347Y-107343505D01*
X130867361Y-107297593D01*
X130888669Y-107274638D01*
X130910141Y-107258096D01*
X130930687Y-107248421D01*
X130957426Y-107244174D01*
X130997477Y-107243920D01*
X131034362Y-107245228D01*
X131087053Y-107248043D01*
X131121228Y-107252505D01*
X131143520Y-107260548D01*
X131160558Y-107274103D01*
X131170297Y-107284845D01*
X131195877Y-107329777D01*
X131197153Y-107378249D01*
X131182001Y-107418894D01*
X131150358Y-107453567D01*
X131098380Y-107474224D01*
X131025781Y-107480955D01*
X131025781Y-107606672D01*
X131068379Y-107607479D01*
X131126944Y-107604948D01*
X131170993Y-107597362D01*
X131205752Y-107583681D01*
X131236449Y-107562865D01*
X131245564Y-107555147D01*
X131290979Y-107506889D01*
X131317507Y-107455128D01*
X131328621Y-107391828D01*
X131329529Y-107360961D01*
X131319852Y-107279261D01*
X131319852Y-107279261D01*
G37*
X131319852Y-107279261D02*
X131290769Y-107213479D01*
X131242207Y-107163540D01*
X131174092Y-107129374D01*
X131086349Y-107110907D01*
X131072649Y-107109583D01*
X130976061Y-107108546D01*
X130891398Y-107121993D01*
X130822779Y-107149108D01*
X130800706Y-107163627D01*
X130753989Y-107214201D01*
X130723732Y-107278609D01*
X130711176Y-107350666D01*
X130717561Y-107424185D01*
X130737228Y-107480072D01*
X130770371Y-107528132D01*
X130813825Y-107567412D01*
X130814842Y-107568092D01*
X130841662Y-107584044D01*
X130868632Y-107594410D01*
X130902668Y-107600688D01*
X130950690Y-107604373D01*
X130990069Y-107605997D01*
X131025781Y-107606672D01*
X131025781Y-107480955D01*
X130990230Y-107479726D01*
X130942906Y-107475266D01*
X130912535Y-107467397D01*
X130890928Y-107453207D01*
X130878306Y-107439917D01*
X130851878Y-107392802D01*
X130848347Y-107343505D01*
X130867361Y-107297593D01*
X130888669Y-107274638D01*
X130910141Y-107258096D01*
X130930687Y-107248421D01*
X130957426Y-107244174D01*
X130997477Y-107243920D01*
X131034362Y-107245228D01*
X131087053Y-107248043D01*
X131121228Y-107252505D01*
X131143520Y-107260548D01*
X131160558Y-107274103D01*
X131170297Y-107284845D01*
X131195877Y-107329777D01*
X131197153Y-107378249D01*
X131182001Y-107418894D01*
X131150358Y-107453567D01*
X131098380Y-107474224D01*
X131025781Y-107480955D01*
X131025781Y-107606672D01*
X131068379Y-107607479D01*
X131126944Y-107604948D01*
X131170993Y-107597362D01*
X131205752Y-107583681D01*
X131236449Y-107562865D01*
X131245564Y-107555147D01*
X131290979Y-107506889D01*
X131317507Y-107455128D01*
X131328621Y-107391828D01*
X131329529Y-107360961D01*
X131319852Y-107279261D01*
G36*
X131312386Y-106097699D02*
X131306486Y-106085168D01*
X131274717Y-106041799D01*
X131228354Y-106000790D01*
X131177304Y-105970168D01*
X131153834Y-105961459D01*
X131111909Y-105953512D01*
X131061243Y-105948774D01*
X131040321Y-105948199D01*
X130974307Y-105948129D01*
X130974307Y-106328083D01*
X130939727Y-106319983D01*
X130898830Y-106300104D01*
X130863486Y-106265347D01*
X130840718Y-106223998D01*
X130835990Y-106197649D01*
X130841727Y-106161916D01*
X130856118Y-106119282D01*
X130862738Y-106104799D01*
X130889487Y-106051240D01*
X130854624Y-106005533D01*
X130831045Y-105979158D01*
X130811583Y-105965124D01*
X130805871Y-105964414D01*
X130792027Y-105976951D01*
X130770988Y-106004428D01*
X130754575Y-106029366D01*
X130725070Y-106096664D01*
X130711716Y-106172110D01*
X130715188Y-106246888D01*
X130733337Y-106306495D01*
X130772216Y-106367941D01*
X130823405Y-106411608D01*
X130889633Y-106438926D01*
X130973629Y-106451322D01*
X131012064Y-106452421D01*
X131100139Y-106448022D01*
X131102701Y-106447482D01*
X131102701Y-106321582D01*
X131094442Y-106318115D01*
X131089887Y-106303863D01*
X131087935Y-106274470D01*
X131087483Y-106225575D01*
X131087475Y-106206748D01*
X131088157Y-106149467D01*
X131090636Y-106113141D01*
X131095557Y-106093604D01*
X131103566Y-106086690D01*
X131106138Y-106086445D01*
X131126577Y-106094336D01*
X131155211Y-106114085D01*
X131165237Y-106122575D01*
X131193592Y-106154094D01*
X131204741Y-106186949D01*
X131205673Y-106204651D01*
X131194019Y-106252539D01*
X131162715Y-106292699D01*
X131117248Y-106318173D01*
X131115767Y-106318625D01*
X131102701Y-106321582D01*
X131102701Y-106447482D01*
X131169490Y-106433392D01*
X131224975Y-106407038D01*
X131264361Y-106374807D01*
X131307069Y-106315217D01*
X131329891Y-106245168D01*
X131331954Y-106170661D01*
X131312386Y-106097699D01*
X131312386Y-106097699D01*
G37*
X131312386Y-106097699D02*
X131306486Y-106085168D01*
X131274717Y-106041799D01*
X131228354Y-106000790D01*
X131177304Y-105970168D01*
X131153834Y-105961459D01*
X131111909Y-105953512D01*
X131061243Y-105948774D01*
X131040321Y-105948199D01*
X130974307Y-105948129D01*
X130974307Y-106328083D01*
X130939727Y-106319983D01*
X130898830Y-106300104D01*
X130863486Y-106265347D01*
X130840718Y-106223998D01*
X130835990Y-106197649D01*
X130841727Y-106161916D01*
X130856118Y-106119282D01*
X130862738Y-106104799D01*
X130889487Y-106051240D01*
X130854624Y-106005533D01*
X130831045Y-105979158D01*
X130811583Y-105965124D01*
X130805871Y-105964414D01*
X130792027Y-105976951D01*
X130770988Y-106004428D01*
X130754575Y-106029366D01*
X130725070Y-106096664D01*
X130711716Y-106172110D01*
X130715188Y-106246888D01*
X130733337Y-106306495D01*
X130772216Y-106367941D01*
X130823405Y-106411608D01*
X130889633Y-106438926D01*
X130973629Y-106451322D01*
X131012064Y-106452421D01*
X131100139Y-106448022D01*
X131102701Y-106447482D01*
X131102701Y-106321582D01*
X131094442Y-106318115D01*
X131089887Y-106303863D01*
X131087935Y-106274470D01*
X131087483Y-106225575D01*
X131087475Y-106206748D01*
X131088157Y-106149467D01*
X131090636Y-106113141D01*
X131095557Y-106093604D01*
X131103566Y-106086690D01*
X131106138Y-106086445D01*
X131126577Y-106094336D01*
X131155211Y-106114085D01*
X131165237Y-106122575D01*
X131193592Y-106154094D01*
X131204741Y-106186949D01*
X131205673Y-106204651D01*
X131194019Y-106252539D01*
X131162715Y-106292699D01*
X131117248Y-106318173D01*
X131115767Y-106318625D01*
X131102701Y-106321582D01*
X131102701Y-106447482D01*
X131169490Y-106433392D01*
X131224975Y-106407038D01*
X131264361Y-106374807D01*
X131307069Y-106315217D01*
X131329891Y-106245168D01*
X131331954Y-106170661D01*
X131312386Y-106097699D01*
G36*
X131328548Y-104726983D02*
X131319518Y-104679366D01*
X131300630Y-104629966D01*
X131298223Y-104624688D01*
X131278524Y-104587226D01*
X131260219Y-104561283D01*
X131248492Y-104552897D01*
X131229368Y-104560883D01*
X131201150Y-104580280D01*
X131190616Y-104588890D01*
X131149153Y-104624372D01*
X131176142Y-104670115D01*
X131194122Y-104713650D01*
X131203733Y-104763950D01*
X131204340Y-104812188D01*
X131195309Y-104849533D01*
X131189673Y-104858495D01*
X131163829Y-104875563D01*
X131134059Y-104877637D01*
X131110803Y-104864866D01*
X131106292Y-104857312D01*
X131100691Y-104834675D01*
X131094108Y-104794885D01*
X131087817Y-104745834D01*
X131086830Y-104736785D01*
X131073202Y-104658004D01*
X131050054Y-104600864D01*
X131015248Y-104562970D01*
X130966646Y-104541921D01*
X130907282Y-104535365D01*
X130839802Y-104544423D01*
X130786812Y-104573836D01*
X130748217Y-104623722D01*
X130723919Y-104694200D01*
X130714333Y-104772435D01*
X130714448Y-104836234D01*
X130723155Y-104887984D01*
X130735175Y-104923327D01*
X130756120Y-104967983D01*
X130780426Y-105009253D01*
X130791124Y-105023921D01*
X130821916Y-105061643D01*
X130867951Y-105016148D01*
X130913987Y-104970653D01*
X130879757Y-104918928D01*
X130854048Y-104867048D01*
X130840601Y-104811649D01*
X130839182Y-104758395D01*
X130849557Y-104712951D01*
X130871493Y-104680984D01*
X130890002Y-104670662D01*
X130919686Y-104672211D01*
X130942385Y-104697860D01*
X130958060Y-104747540D01*
X130965305Y-104801969D01*
X130979127Y-104885736D01*
X131005204Y-104947967D01*
X131044301Y-104989493D01*
X131097180Y-105011147D01*
X131159874Y-105014147D01*
X131225358Y-104999329D01*
X131274856Y-104965546D01*
X131308592Y-104912495D01*
X131326793Y-104839874D01*
X131330361Y-104786072D01*
X131328548Y-104726983D01*
X131328548Y-104726983D01*
G37*
X131328548Y-104726983D02*
X131319518Y-104679366D01*
X131300630Y-104629966D01*
X131298223Y-104624688D01*
X131278524Y-104587226D01*
X131260219Y-104561283D01*
X131248492Y-104552897D01*
X131229368Y-104560883D01*
X131201150Y-104580280D01*
X131190616Y-104588890D01*
X131149153Y-104624372D01*
X131176142Y-104670115D01*
X131194122Y-104713650D01*
X131203733Y-104763950D01*
X131204340Y-104812188D01*
X131195309Y-104849533D01*
X131189673Y-104858495D01*
X131163829Y-104875563D01*
X131134059Y-104877637D01*
X131110803Y-104864866D01*
X131106292Y-104857312D01*
X131100691Y-104834675D01*
X131094108Y-104794885D01*
X131087817Y-104745834D01*
X131086830Y-104736785D01*
X131073202Y-104658004D01*
X131050054Y-104600864D01*
X131015248Y-104562970D01*
X130966646Y-104541921D01*
X130907282Y-104535365D01*
X130839802Y-104544423D01*
X130786812Y-104573836D01*
X130748217Y-104623722D01*
X130723919Y-104694200D01*
X130714333Y-104772435D01*
X130714448Y-104836234D01*
X130723155Y-104887984D01*
X130735175Y-104923327D01*
X130756120Y-104967983D01*
X130780426Y-105009253D01*
X130791124Y-105023921D01*
X130821916Y-105061643D01*
X130867951Y-105016148D01*
X130913987Y-104970653D01*
X130879757Y-104918928D01*
X130854048Y-104867048D01*
X130840601Y-104811649D01*
X130839182Y-104758395D01*
X130849557Y-104712951D01*
X130871493Y-104680984D01*
X130890002Y-104670662D01*
X130919686Y-104672211D01*
X130942385Y-104697860D01*
X130958060Y-104747540D01*
X130965305Y-104801969D01*
X130979127Y-104885736D01*
X131005204Y-104947967D01*
X131044301Y-104989493D01*
X131097180Y-105011147D01*
X131159874Y-105014147D01*
X131225358Y-104999329D01*
X131274856Y-104965546D01*
X131308592Y-104912495D01*
X131326793Y-104839874D01*
X131330361Y-104786072D01*
X131328548Y-104726983D01*
G36*
X131318945Y-104130238D02*
X131284308Y-104066637D01*
X131229628Y-104016877D01*
X131185158Y-103993432D01*
X131145879Y-103983366D01*
X131089884Y-103976844D01*
X131025379Y-103974049D01*
X130960571Y-103975164D01*
X130903666Y-103980374D01*
X130873273Y-103986459D01*
X130831694Y-104006986D01*
X130787532Y-104042537D01*
X130748913Y-104085381D01*
X130723966Y-104127789D01*
X130723570Y-104128823D01*
X130712669Y-104181447D01*
X130712399Y-104243812D01*
X130722324Y-104303076D01*
X130730278Y-104325960D01*
X130763700Y-104384898D01*
X130807489Y-104427110D01*
X130865462Y-104454844D01*
X130941435Y-104470349D01*
X130981229Y-104473857D01*
X131031234Y-104473410D01*
X131031234Y-104338624D01*
X130958268Y-104334083D01*
X130902666Y-104321014D01*
X130867139Y-104300244D01*
X130856980Y-104285448D01*
X130849896Y-104247536D01*
X130851993Y-104202473D01*
X130862188Y-104163513D01*
X130867796Y-104153296D01*
X130900462Y-104126341D01*
X130950455Y-104108549D01*
X131011295Y-104100976D01*
X131076503Y-104104675D01*
X131115747Y-104112943D01*
X131161195Y-104136680D01*
X131189604Y-104174151D01*
X131199427Y-104219280D01*
X131189113Y-104265989D01*
X131163888Y-104301868D01*
X131143075Y-104320723D01*
X131122561Y-104331728D01*
X131094797Y-104336974D01*
X131052238Y-104338551D01*
X131031234Y-104338624D01*
X131031234Y-104473410D01*
X131087420Y-104472906D01*
X131174499Y-104455612D01*
X131242470Y-104421971D01*
X131291336Y-104371982D01*
X131321101Y-104305644D01*
X131324552Y-104291399D01*
X131332655Y-104205790D01*
X131318945Y-104130238D01*
X131318945Y-104130238D01*
G37*
X131318945Y-104130238D02*
X131284308Y-104066637D01*
X131229628Y-104016877D01*
X131185158Y-103993432D01*
X131145879Y-103983366D01*
X131089884Y-103976844D01*
X131025379Y-103974049D01*
X130960571Y-103975164D01*
X130903666Y-103980374D01*
X130873273Y-103986459D01*
X130831694Y-104006986D01*
X130787532Y-104042537D01*
X130748913Y-104085381D01*
X130723966Y-104127789D01*
X130723570Y-104128823D01*
X130712669Y-104181447D01*
X130712399Y-104243812D01*
X130722324Y-104303076D01*
X130730278Y-104325960D01*
X130763700Y-104384898D01*
X130807489Y-104427110D01*
X130865462Y-104454844D01*
X130941435Y-104470349D01*
X130981229Y-104473857D01*
X131031234Y-104473410D01*
X131031234Y-104338624D01*
X130958268Y-104334083D01*
X130902666Y-104321014D01*
X130867139Y-104300244D01*
X130856980Y-104285448D01*
X130849896Y-104247536D01*
X130851993Y-104202473D01*
X130862188Y-104163513D01*
X130867796Y-104153296D01*
X130900462Y-104126341D01*
X130950455Y-104108549D01*
X131011295Y-104100976D01*
X131076503Y-104104675D01*
X131115747Y-104112943D01*
X131161195Y-104136680D01*
X131189604Y-104174151D01*
X131199427Y-104219280D01*
X131189113Y-104265989D01*
X131163888Y-104301868D01*
X131143075Y-104320723D01*
X131122561Y-104331728D01*
X131094797Y-104336974D01*
X131052238Y-104338551D01*
X131031234Y-104338624D01*
X131031234Y-104473410D01*
X131087420Y-104472906D01*
X131174499Y-104455612D01*
X131242470Y-104421971D01*
X131291336Y-104371982D01*
X131321101Y-104305644D01*
X131324552Y-104291399D01*
X131332655Y-104205790D01*
X131318945Y-104130238D01*
G36*
X131130658Y-103747633D02*
X131038437Y-103746445D01*
X130968390Y-103742103D01*
X130917619Y-103733442D01*
X130883228Y-103719296D01*
X130862321Y-103698500D01*
X130852000Y-103669890D01*
X130849364Y-103634465D01*
X130852318Y-103597364D01*
X130863111Y-103569182D01*
X130884640Y-103548757D01*
X130919801Y-103534921D01*
X130971490Y-103526509D01*
X131042606Y-103522357D01*
X131130658Y-103521297D01*
X131326386Y-103521297D01*
X131326386Y-103382980D01*
X130722821Y-103382980D01*
X130722821Y-103452138D01*
X130724511Y-103493830D01*
X130730444Y-103515299D01*
X130741707Y-103521297D01*
X130751739Y-103524909D01*
X130749617Y-103539286D01*
X130735420Y-103568264D01*
X130713520Y-103634681D01*
X130715072Y-103705125D01*
X130738853Y-103772623D01*
X130757638Y-103804767D01*
X130777978Y-103829285D01*
X130803427Y-103847196D01*
X130837542Y-103859521D01*
X130883879Y-103867277D01*
X130945993Y-103871484D01*
X131027439Y-103873160D01*
X131090422Y-103873376D01*
X131326386Y-103873376D01*
X131326386Y-103747633D01*
X131130658Y-103747633D01*
X131130658Y-103747633D01*
G37*
X131130658Y-103747633D02*
X131038437Y-103746445D01*
X130968390Y-103742103D01*
X130917619Y-103733442D01*
X130883228Y-103719296D01*
X130862321Y-103698500D01*
X130852000Y-103669890D01*
X130849364Y-103634465D01*
X130852318Y-103597364D01*
X130863111Y-103569182D01*
X130884640Y-103548757D01*
X130919801Y-103534921D01*
X130971490Y-103526509D01*
X131042606Y-103522357D01*
X131130658Y-103521297D01*
X131326386Y-103521297D01*
X131326386Y-103382980D01*
X130722821Y-103382980D01*
X130722821Y-103452138D01*
X130724511Y-103493830D01*
X130730444Y-103515299D01*
X130741707Y-103521297D01*
X130751739Y-103524909D01*
X130749617Y-103539286D01*
X130735420Y-103568264D01*
X130713520Y-103634681D01*
X130715072Y-103705125D01*
X130738853Y-103772623D01*
X130757638Y-103804767D01*
X130777978Y-103829285D01*
X130803427Y-103847196D01*
X130837542Y-103859521D01*
X130883879Y-103867277D01*
X130945993Y-103871484D01*
X131027439Y-103873160D01*
X131090422Y-103873376D01*
X131326386Y-103873376D01*
X131326386Y-103747633D01*
X131130658Y-103747633D01*
G36*
X131321120Y-102523774D02*
X131290170Y-102450920D01*
X131275105Y-102427973D01*
X131251952Y-102398646D01*
X131233747Y-102380236D01*
X131227817Y-102377039D01*
X131214660Y-102386065D01*
X131192333Y-102409163D01*
X131176750Y-102427656D01*
X131136074Y-102478272D01*
X131169705Y-102518240D01*
X131191416Y-102549126D01*
X131198910Y-102579241D01*
X131197080Y-102613708D01*
X131183472Y-102668439D01*
X131155228Y-102706114D01*
X131109567Y-102729009D01*
X131043711Y-102739403D01*
X131043669Y-102739405D01*
X130970061Y-102738506D01*
X130916054Y-102724537D01*
X130879284Y-102696672D01*
X130866832Y-102677675D01*
X130851327Y-102627224D01*
X130851317Y-102573337D01*
X130866362Y-102526454D01*
X130873713Y-102515356D01*
X130892489Y-102487524D01*
X130895566Y-102465764D01*
X130881591Y-102442296D01*
X130856490Y-102416351D01*
X130814120Y-102375284D01*
X130776536Y-102420879D01*
X130734118Y-102491326D01*
X130713215Y-102570767D01*
X130714728Y-102653785D01*
X130728589Y-102708306D01*
X130762865Y-102772030D01*
X130816788Y-102822995D01*
X130854851Y-102846149D01*
X130909464Y-102864901D01*
X130978631Y-102874285D01*
X131053593Y-102874357D01*
X131125591Y-102865176D01*
X131185863Y-102846801D01*
X131192042Y-102843907D01*
X131252649Y-102801048D01*
X131296776Y-102743021D01*
X131323507Y-102674409D01*
X131331927Y-102599799D01*
X131321120Y-102523774D01*
X131321120Y-102523774D01*
G37*
X131321120Y-102523774D02*
X131290170Y-102450920D01*
X131275105Y-102427973D01*
X131251952Y-102398646D01*
X131233747Y-102380236D01*
X131227817Y-102377039D01*
X131214660Y-102386065D01*
X131192333Y-102409163D01*
X131176750Y-102427656D01*
X131136074Y-102478272D01*
X131169705Y-102518240D01*
X131191416Y-102549126D01*
X131198910Y-102579241D01*
X131197080Y-102613708D01*
X131183472Y-102668439D01*
X131155228Y-102706114D01*
X131109567Y-102729009D01*
X131043711Y-102739403D01*
X131043669Y-102739405D01*
X130970061Y-102738506D01*
X130916054Y-102724537D01*
X130879284Y-102696672D01*
X130866832Y-102677675D01*
X130851327Y-102627224D01*
X130851317Y-102573337D01*
X130866362Y-102526454D01*
X130873713Y-102515356D01*
X130892489Y-102487524D01*
X130895566Y-102465764D01*
X130881591Y-102442296D01*
X130856490Y-102416351D01*
X130814120Y-102375284D01*
X130776536Y-102420879D01*
X130734118Y-102491326D01*
X130713215Y-102570767D01*
X130714728Y-102653785D01*
X130728589Y-102708306D01*
X130762865Y-102772030D01*
X130816788Y-102822995D01*
X130854851Y-102846149D01*
X130909464Y-102864901D01*
X130978631Y-102874285D01*
X131053593Y-102874357D01*
X131125591Y-102865176D01*
X131185863Y-102846801D01*
X131192042Y-102843907D01*
X131252649Y-102801048D01*
X131296776Y-102743021D01*
X131323507Y-102674409D01*
X131331927Y-102599799D01*
X131321120Y-102523774D01*
G36*
X131328543Y-102063102D02*
X131320721Y-102030904D01*
X131292079Y-101969175D01*
X131248333Y-101916390D01*
X131195883Y-101879859D01*
X131184107Y-101874840D01*
X131153260Y-101867955D01*
X131107629Y-101863136D01*
X131061508Y-101861495D01*
X130974307Y-101861495D01*
X130974307Y-102043822D01*
X130974022Y-102119021D01*
X130972296Y-102171997D01*
X130967819Y-102205675D01*
X130959280Y-102222980D01*
X130945370Y-102226837D01*
X130924778Y-102220171D01*
X130900685Y-102208230D01*
X130860475Y-102174920D01*
X130840442Y-102128632D01*
X130841095Y-102072056D01*
X130862899Y-102007969D01*
X130889807Y-101952583D01*
X130853468Y-101906625D01*
X130817128Y-101860667D01*
X130777181Y-101903904D01*
X130739437Y-101961626D01*
X130716680Y-102032614D01*
X130710312Y-102108971D01*
X130721732Y-102182801D01*
X130725607Y-102194713D01*
X130759494Y-102259601D01*
X130810014Y-102307870D01*
X130878675Y-102340535D01*
X130966986Y-102358615D01*
X130968879Y-102358825D01*
X131065122Y-102360444D01*
X131099458Y-102353900D01*
X131099458Y-102226148D01*
X131094178Y-102214416D01*
X131090133Y-102182562D01*
X131087824Y-102135603D01*
X131087475Y-102105846D01*
X131087694Y-102050352D01*
X131089084Y-102015654D01*
X131092749Y-101997399D01*
X131099790Y-101991234D01*
X131111310Y-101992805D01*
X131115767Y-101994122D01*
X131157645Y-102016618D01*
X131191396Y-102051997D01*
X131206227Y-102083220D01*
X131205332Y-102124699D01*
X131186836Y-102166731D01*
X131156214Y-102201988D01*
X131118938Y-102223146D01*
X131099458Y-102226148D01*
X131099458Y-102353900D01*
X131149771Y-102344310D01*
X131220809Y-102312302D01*
X131276221Y-102266299D01*
X131313991Y-102208179D01*
X131332104Y-102139820D01*
X131328543Y-102063102D01*
X131328543Y-102063102D01*
G37*
X131328543Y-102063102D02*
X131320721Y-102030904D01*
X131292079Y-101969175D01*
X131248333Y-101916390D01*
X131195883Y-101879859D01*
X131184107Y-101874840D01*
X131153260Y-101867955D01*
X131107629Y-101863136D01*
X131061508Y-101861495D01*
X130974307Y-101861495D01*
X130974307Y-102043822D01*
X130974022Y-102119021D01*
X130972296Y-102171997D01*
X130967819Y-102205675D01*
X130959280Y-102222980D01*
X130945370Y-102226837D01*
X130924778Y-102220171D01*
X130900685Y-102208230D01*
X130860475Y-102174920D01*
X130840442Y-102128632D01*
X130841095Y-102072056D01*
X130862899Y-102007969D01*
X130889807Y-101952583D01*
X130853468Y-101906625D01*
X130817128Y-101860667D01*
X130777181Y-101903904D01*
X130739437Y-101961626D01*
X130716680Y-102032614D01*
X130710312Y-102108971D01*
X130721732Y-102182801D01*
X130725607Y-102194713D01*
X130759494Y-102259601D01*
X130810014Y-102307870D01*
X130878675Y-102340535D01*
X130966986Y-102358615D01*
X130968879Y-102358825D01*
X131065122Y-102360444D01*
X131099458Y-102353900D01*
X131099458Y-102226148D01*
X131094178Y-102214416D01*
X131090133Y-102182562D01*
X131087824Y-102135603D01*
X131087475Y-102105846D01*
X131087694Y-102050352D01*
X131089084Y-102015654D01*
X131092749Y-101997399D01*
X131099790Y-101991234D01*
X131111310Y-101992805D01*
X131115767Y-101994122D01*
X131157645Y-102016618D01*
X131191396Y-102051997D01*
X131206227Y-102083220D01*
X131205332Y-102124699D01*
X131186836Y-102166731D01*
X131156214Y-102201988D01*
X131118938Y-102223146D01*
X131099458Y-102226148D01*
X131099458Y-102353900D01*
X131149771Y-102344310D01*
X131220809Y-102312302D01*
X131276221Y-102266299D01*
X131313991Y-102208179D01*
X131332104Y-102139820D01*
X131328543Y-102063102D01*
G36*
X131315998Y-105495012D02*
X131301050Y-105463717D01*
X131279459Y-105433409D01*
X131254609Y-105410318D01*
X131222913Y-105393500D01*
X131180786Y-105382006D01*
X131124642Y-105374891D01*
X131050894Y-105371207D01*
X130955956Y-105370008D01*
X130946015Y-105369989D01*
X130722821Y-105369713D01*
X130722821Y-105508030D01*
X130928582Y-105508030D01*
X131004811Y-105508128D01*
X131060061Y-105508809D01*
X131098499Y-105510651D01*
X131124294Y-105514233D01*
X131141616Y-105520132D01*
X131154632Y-105528927D01*
X131167493Y-105541180D01*
X131195127Y-105584047D01*
X131200255Y-105630843D01*
X131182783Y-105675424D01*
X131169779Y-105690928D01*
X131157553Y-105702310D01*
X131144460Y-105710481D01*
X131126385Y-105715974D01*
X131099213Y-105719320D01*
X131058830Y-105721051D01*
X131001121Y-105721697D01*
X130930868Y-105721792D01*
X130722821Y-105721792D01*
X130722821Y-105860109D01*
X131326386Y-105860109D01*
X131326386Y-105790950D01*
X131324744Y-105749428D01*
X131318913Y-105728006D01*
X131307539Y-105721795D01*
X131307202Y-105721792D01*
X131296062Y-105718910D01*
X131297326Y-105706199D01*
X131309566Y-105680926D01*
X131327576Y-105623605D01*
X131329579Y-105558037D01*
X131315998Y-105495012D01*
X131315998Y-105495012D01*
G37*
X131315998Y-105495012D02*
X131301050Y-105463717D01*
X131279459Y-105433409D01*
X131254609Y-105410318D01*
X131222913Y-105393500D01*
X131180786Y-105382006D01*
X131124642Y-105374891D01*
X131050894Y-105371207D01*
X130955956Y-105370008D01*
X130946015Y-105369989D01*
X130722821Y-105369713D01*
X130722821Y-105508030D01*
X130928582Y-105508030D01*
X131004811Y-105508128D01*
X131060061Y-105508809D01*
X131098499Y-105510651D01*
X131124294Y-105514233D01*
X131141616Y-105520132D01*
X131154632Y-105528927D01*
X131167493Y-105541180D01*
X131195127Y-105584047D01*
X131200255Y-105630843D01*
X131182783Y-105675424D01*
X131169779Y-105690928D01*
X131157553Y-105702310D01*
X131144460Y-105710481D01*
X131126385Y-105715974D01*
X131099213Y-105719320D01*
X131058830Y-105721051D01*
X131001121Y-105721697D01*
X130930868Y-105721792D01*
X130722821Y-105721792D01*
X130722821Y-105860109D01*
X131326386Y-105860109D01*
X131326386Y-105790950D01*
X131324744Y-105749428D01*
X131318913Y-105728006D01*
X131307539Y-105721795D01*
X131307202Y-105721792D01*
X131296062Y-105718910D01*
X131297326Y-105706199D01*
X131309566Y-105680926D01*
X131327576Y-105623605D01*
X131329579Y-105558037D01*
X131315998Y-105495012D01*
G36*
X131326970Y-102941540D02*
X131313755Y-102898289D01*
X131297059Y-102870442D01*
X131283855Y-102861371D01*
X131268203Y-102863868D01*
X131243615Y-102880069D01*
X131226200Y-102893768D01*
X131194717Y-102922008D01*
X131181471Y-102943225D01*
X131182336Y-102961312D01*
X131195990Y-103014965D01*
X131195370Y-103054370D01*
X131179896Y-103086368D01*
X131170839Y-103097110D01*
X131138973Y-103131495D01*
X130722821Y-103131495D01*
X130722821Y-103269812D01*
X131326386Y-103269812D01*
X131326386Y-103200653D01*
X131324744Y-103159131D01*
X131318913Y-103137709D01*
X131307539Y-103131498D01*
X131307202Y-103131495D01*
X131295287Y-103128561D01*
X131296841Y-103115296D01*
X131305437Y-103096916D01*
X131321432Y-103058954D01*
X131331055Y-103028128D01*
X131333522Y-102988464D01*
X131326970Y-102941540D01*
X131326970Y-102941540D01*
G37*
X131326970Y-102941540D02*
X131313755Y-102898289D01*
X131297059Y-102870442D01*
X131283855Y-102861371D01*
X131268203Y-102863868D01*
X131243615Y-102880069D01*
X131226200Y-102893768D01*
X131194717Y-102922008D01*
X131181471Y-102943225D01*
X131182336Y-102961312D01*
X131195990Y-103014965D01*
X131195370Y-103054370D01*
X131179896Y-103086368D01*
X131170839Y-103097110D01*
X131138973Y-103131495D01*
X130722821Y-103131495D01*
X130722821Y-103269812D01*
X131326386Y-103269812D01*
X131326386Y-103200653D01*
X131324744Y-103159131D01*
X131318913Y-103137709D01*
X131307539Y-103131498D01*
X131307202Y-103131495D01*
X131295287Y-103128561D01*
X131296841Y-103115296D01*
X131305437Y-103096916D01*
X131321432Y-103058954D01*
X131331055Y-103028128D01*
X131333522Y-102988464D01*
X131326970Y-102941540D01*
G36*
X135494982Y-104364036D02*
X135193430Y-104307188D01*
X135020488Y-103887662D01*
X135191605Y-103636016D01*
X135239250Y-103565542D01*
X135281790Y-103501837D01*
X135317285Y-103447874D01*
X135343790Y-103406627D01*
X135359364Y-103381066D01*
X135362722Y-103374105D01*
X135354086Y-103361565D01*
X135330208Y-103334769D01*
X135294141Y-103296720D01*
X135248933Y-103250421D01*
X135197636Y-103198877D01*
X135143299Y-103145091D01*
X135088972Y-103092065D01*
X135037705Y-103042805D01*
X134992549Y-103000313D01*
X134956554Y-102967593D01*
X134932770Y-102947649D01*
X134924810Y-102942881D01*
X134910135Y-102949743D01*
X134877986Y-102968980D01*
X134831508Y-102998570D01*
X134773844Y-103036490D01*
X134708140Y-103080718D01*
X134670664Y-103106346D01*
X134602232Y-103153059D01*
X134540480Y-103194568D01*
X134488481Y-103228860D01*
X134449308Y-103253920D01*
X134426035Y-103267736D01*
X134421145Y-103269812D01*
X134407245Y-103265105D01*
X134374850Y-103252277D01*
X134328515Y-103233262D01*
X134272794Y-103209997D01*
X134212242Y-103184416D01*
X134151414Y-103158455D01*
X134094864Y-103134050D01*
X134047148Y-103113137D01*
X134012819Y-103097651D01*
X133996432Y-103089528D01*
X133995788Y-103089048D01*
X133992659Y-103076293D01*
X133985679Y-103042323D01*
X133975533Y-102990660D01*
X133962908Y-102924824D01*
X133948491Y-102848336D01*
X133940177Y-102803710D01*
X133924616Y-102721979D01*
X133909808Y-102648157D01*
X133896564Y-102585979D01*
X133885695Y-102539178D01*
X133878011Y-102511491D01*
X133875573Y-102505926D01*
X133859070Y-102500474D01*
X133821800Y-102496076D01*
X133768120Y-102492728D01*
X133702388Y-102490426D01*
X133628963Y-102489168D01*
X133552204Y-102488952D01*
X133476468Y-102489773D01*
X133406114Y-102491629D01*
X133345500Y-102494518D01*
X133298984Y-102498435D01*
X133270925Y-102503378D01*
X133265084Y-102506343D01*
X133258083Y-102524066D01*
X133248073Y-102561619D01*
X133236231Y-102614036D01*
X133223733Y-102676348D01*
X133219690Y-102698100D01*
X133200480Y-102802976D01*
X133185009Y-102885820D01*
X133172663Y-102949370D01*
X133162827Y-102996363D01*
X133154886Y-103029537D01*
X133148224Y-103051629D01*
X133142227Y-103065376D01*
X133136281Y-103073516D01*
X133135106Y-103074655D01*
X133116174Y-103086023D01*
X133079331Y-103103365D01*
X133029087Y-103124950D01*
X132969954Y-103149046D01*
X132906444Y-103173921D01*
X132843068Y-103197843D01*
X132784338Y-103219081D01*
X132734765Y-103235903D01*
X132698861Y-103246578D01*
X132681138Y-103249373D01*
X132680517Y-103249140D01*
X132666030Y-103239669D01*
X132634156Y-103218182D01*
X132588211Y-103186937D01*
X132531515Y-103148193D01*
X132467383Y-103104207D01*
X132449158Y-103091681D01*
X132383086Y-103047016D01*
X132322800Y-103007712D01*
X132271765Y-102975912D01*
X132233440Y-102953755D01*
X132211289Y-102943383D01*
X132208568Y-102942881D01*
X132194264Y-102951595D01*
X132165928Y-102975675D01*
X132126604Y-103012024D01*
X132079339Y-103057547D01*
X132027177Y-103109148D01*
X131973165Y-103163733D01*
X131920347Y-103218206D01*
X131871769Y-103269471D01*
X131830477Y-103314433D01*
X131799515Y-103349996D01*
X131781930Y-103373065D01*
X131779059Y-103379446D01*
X131785822Y-103394301D01*
X131804061Y-103424714D01*
X131830703Y-103465732D01*
X131852148Y-103497291D01*
X131891497Y-103554475D01*
X131937829Y-103622194D01*
X131984087Y-103690120D01*
X132008845Y-103726639D01*
X132092453Y-103850248D01*
X132036350Y-103954009D01*
X132011772Y-104001280D01*
X131992669Y-104041477D01*
X131981773Y-104068674D01*
X131980257Y-104075598D01*
X131991451Y-104083923D01*
X132023083Y-104100346D01*
X132072235Y-104123643D01*
X132135990Y-104152586D01*
X132211429Y-104185950D01*
X132295636Y-104222509D01*
X132385692Y-104261036D01*
X132478679Y-104300306D01*
X132571680Y-104339092D01*
X132661777Y-104376170D01*
X132746052Y-104410311D01*
X132821587Y-104440292D01*
X132885466Y-104464884D01*
X132934769Y-104482864D01*
X132966579Y-104493003D01*
X132977504Y-104494634D01*
X132991439Y-104481709D01*
X133014060Y-104453411D01*
X133040667Y-104415654D01*
X133042772Y-104412485D01*
X133120886Y-104314900D01*
X133212018Y-104236214D01*
X133313255Y-104177109D01*
X133421682Y-104138268D01*
X133534386Y-104120372D01*
X133648452Y-104124103D01*
X133760966Y-104150143D01*
X133869015Y-104199175D01*
X133892655Y-104213600D01*
X133988113Y-104288631D01*
X134064768Y-104377270D01*
X134122220Y-104476451D01*
X134160071Y-104583105D01*
X134177922Y-104694164D01*
X134175375Y-104806561D01*
X134152030Y-104917227D01*
X134107490Y-105023094D01*
X134041355Y-105121095D01*
X134014513Y-105151410D01*
X133930488Y-105228562D01*
X133842034Y-105284782D01*
X133742885Y-105323347D01*
X133644697Y-105344826D01*
X133534303Y-105350128D01*
X133423360Y-105332448D01*
X133315619Y-105293581D01*
X133214831Y-105235323D01*
X133124744Y-105159469D01*
X133049108Y-105067817D01*
X133041136Y-105055772D01*
X133015026Y-105017611D01*
X132992405Y-104988601D01*
X132977961Y-104974732D01*
X132977504Y-104974531D01*
X132961879Y-104977508D01*
X132926418Y-104989311D01*
X132874038Y-105008714D01*
X132807655Y-105034488D01*
X132730186Y-105065409D01*
X132644550Y-105100249D01*
X132553663Y-105137783D01*
X132460441Y-105176783D01*
X132367803Y-105216023D01*
X132278665Y-105254276D01*
X132195945Y-105290317D01*
X132122559Y-105322917D01*
X132061425Y-105350852D01*
X132015459Y-105372895D01*
X131987579Y-105387818D01*
X131980257Y-105393828D01*
X131985959Y-105412191D01*
X132001251Y-105446552D01*
X132023401Y-105490984D01*
X132036350Y-105515417D01*
X132092453Y-105619178D01*
X132008845Y-105742787D01*
X131966013Y-105805886D01*
X131918878Y-105874970D01*
X131874497Y-105939707D01*
X131852148Y-105972134D01*
X131821523Y-106017741D01*
X131797253Y-106056360D01*
X131782413Y-106082952D01*
X131779276Y-106091590D01*
X131787739Y-106104161D01*
X131811364Y-106131984D01*
X131847698Y-106172361D01*
X131894289Y-106222595D01*
X131948683Y-106279988D01*
X131983608Y-106316286D01*
X132046004Y-106379790D01*
X132101812Y-106434673D01*
X132148646Y-106478714D01*
X132184118Y-106509695D01*
X132205839Y-106525398D01*
X132210248Y-106526905D01*
X132227015Y-106519914D01*
X132260918Y-106500594D01*
X132308524Y-106471091D01*
X132366401Y-106433545D01*
X132431116Y-106390100D01*
X132449158Y-106377745D01*
X132514733Y-106332727D01*
X132573772Y-106292340D01*
X132622958Y-106258840D01*
X132658972Y-106234486D01*
X132678498Y-106221536D01*
X132680517Y-106220285D01*
X132696078Y-106222156D01*
X132730291Y-106232087D01*
X132778645Y-106248347D01*
X132836629Y-106269205D01*
X132899730Y-106292927D01*
X132963437Y-106317784D01*
X133023239Y-106342042D01*
X133074624Y-106363971D01*
X133113081Y-106381838D01*
X133134098Y-106393913D01*
X133135106Y-106394771D01*
X133141112Y-106402154D01*
X133147052Y-106414625D01*
X133153540Y-106434920D01*
X133161191Y-106465778D01*
X133170620Y-106509934D01*
X133182441Y-106570126D01*
X133197271Y-106649093D01*
X133215723Y-106749570D01*
X133219690Y-106771325D01*
X133232147Y-106835802D01*
X133244334Y-106892011D01*
X133255074Y-106934987D01*
X133263191Y-106959760D01*
X133265084Y-106963082D01*
X133281862Y-106968556D01*
X133319355Y-106973006D01*
X133373206Y-106976428D01*
X133439056Y-106978819D01*
X133512547Y-106980177D01*
X133589320Y-106980499D01*
X133665017Y-106979781D01*
X133735280Y-106978021D01*
X133795750Y-106975216D01*
X133842070Y-106971362D01*
X133869881Y-106966457D01*
X133875573Y-106963500D01*
X133881314Y-106947037D01*
X133890655Y-106909551D01*
X133902785Y-106854775D01*
X133916893Y-106786445D01*
X133932170Y-106708294D01*
X133940177Y-106665716D01*
X133955279Y-106584929D01*
X133968960Y-106512887D01*
X133980533Y-106453111D01*
X133989313Y-106409121D01*
X133994613Y-106384439D01*
X133995788Y-106380377D01*
X134009035Y-106373511D01*
X134040943Y-106358998D01*
X134086953Y-106338771D01*
X134142508Y-106314766D01*
X134203047Y-106288918D01*
X134264014Y-106263160D01*
X134320849Y-106239427D01*
X134368994Y-106219654D01*
X134403890Y-106205776D01*
X134420979Y-106199726D01*
X134421726Y-106199614D01*
X134435207Y-106206472D01*
X134466230Y-106225698D01*
X134511711Y-106255272D01*
X134568568Y-106293173D01*
X134633717Y-106337380D01*
X134671138Y-106363079D01*
X134739753Y-106409907D01*
X134802048Y-106451499D01*
X134854871Y-106485825D01*
X134895073Y-106510857D01*
X134919500Y-106524565D01*
X134924976Y-106526544D01*
X134937722Y-106518034D01*
X134964937Y-106494507D01*
X135003572Y-106458968D01*
X135050577Y-106414423D01*
X135102905Y-106363877D01*
X135157505Y-106310336D01*
X135211330Y-106256805D01*
X135261330Y-106206289D01*
X135304457Y-106161794D01*
X135337661Y-106126325D01*
X135357894Y-106102887D01*
X135362722Y-106095046D01*
X135355933Y-106082280D01*
X135336858Y-106051744D01*
X135307439Y-106006410D01*
X135269619Y-105949244D01*
X135225339Y-105883216D01*
X135191605Y-105833410D01*
X135020488Y-105581764D01*
X135106959Y-105372001D01*
X135193430Y-105162237D01*
X135494982Y-105105389D01*
X135796534Y-105048540D01*
X135796534Y-104420885D01*
X135494982Y-104364036D01*
X135494982Y-104364036D01*
G37*
X135494982Y-104364036D02*
X135193430Y-104307188D01*
X135020488Y-103887662D01*
X135191605Y-103636016D01*
X135239250Y-103565542D01*
X135281790Y-103501837D01*
X135317285Y-103447874D01*
X135343790Y-103406627D01*
X135359364Y-103381066D01*
X135362722Y-103374105D01*
X135354086Y-103361565D01*
X135330208Y-103334769D01*
X135294141Y-103296720D01*
X135248933Y-103250421D01*
X135197636Y-103198877D01*
X135143299Y-103145091D01*
X135088972Y-103092065D01*
X135037705Y-103042805D01*
X134992549Y-103000313D01*
X134956554Y-102967593D01*
X134932770Y-102947649D01*
X134924810Y-102942881D01*
X134910135Y-102949743D01*
X134877986Y-102968980D01*
X134831508Y-102998570D01*
X134773844Y-103036490D01*
X134708140Y-103080718D01*
X134670664Y-103106346D01*
X134602232Y-103153059D01*
X134540480Y-103194568D01*
X134488481Y-103228860D01*
X134449308Y-103253920D01*
X134426035Y-103267736D01*
X134421145Y-103269812D01*
X134407245Y-103265105D01*
X134374850Y-103252277D01*
X134328515Y-103233262D01*
X134272794Y-103209997D01*
X134212242Y-103184416D01*
X134151414Y-103158455D01*
X134094864Y-103134050D01*
X134047148Y-103113137D01*
X134012819Y-103097651D01*
X133996432Y-103089528D01*
X133995788Y-103089048D01*
X133992659Y-103076293D01*
X133985679Y-103042323D01*
X133975533Y-102990660D01*
X133962908Y-102924824D01*
X133948491Y-102848336D01*
X133940177Y-102803710D01*
X133924616Y-102721979D01*
X133909808Y-102648157D01*
X133896564Y-102585979D01*
X133885695Y-102539178D01*
X133878011Y-102511491D01*
X133875573Y-102505926D01*
X133859070Y-102500474D01*
X133821800Y-102496076D01*
X133768120Y-102492728D01*
X133702388Y-102490426D01*
X133628963Y-102489168D01*
X133552204Y-102488952D01*
X133476468Y-102489773D01*
X133406114Y-102491629D01*
X133345500Y-102494518D01*
X133298984Y-102498435D01*
X133270925Y-102503378D01*
X133265084Y-102506343D01*
X133258083Y-102524066D01*
X133248073Y-102561619D01*
X133236231Y-102614036D01*
X133223733Y-102676348D01*
X133219690Y-102698100D01*
X133200480Y-102802976D01*
X133185009Y-102885820D01*
X133172663Y-102949370D01*
X133162827Y-102996363D01*
X133154886Y-103029537D01*
X133148224Y-103051629D01*
X133142227Y-103065376D01*
X133136281Y-103073516D01*
X133135106Y-103074655D01*
X133116174Y-103086023D01*
X133079331Y-103103365D01*
X133029087Y-103124950D01*
X132969954Y-103149046D01*
X132906444Y-103173921D01*
X132843068Y-103197843D01*
X132784338Y-103219081D01*
X132734765Y-103235903D01*
X132698861Y-103246578D01*
X132681138Y-103249373D01*
X132680517Y-103249140D01*
X132666030Y-103239669D01*
X132634156Y-103218182D01*
X132588211Y-103186937D01*
X132531515Y-103148193D01*
X132467383Y-103104207D01*
X132449158Y-103091681D01*
X132383086Y-103047016D01*
X132322800Y-103007712D01*
X132271765Y-102975912D01*
X132233440Y-102953755D01*
X132211289Y-102943383D01*
X132208568Y-102942881D01*
X132194264Y-102951595D01*
X132165928Y-102975675D01*
X132126604Y-103012024D01*
X132079339Y-103057547D01*
X132027177Y-103109148D01*
X131973165Y-103163733D01*
X131920347Y-103218206D01*
X131871769Y-103269471D01*
X131830477Y-103314433D01*
X131799515Y-103349996D01*
X131781930Y-103373065D01*
X131779059Y-103379446D01*
X131785822Y-103394301D01*
X131804061Y-103424714D01*
X131830703Y-103465732D01*
X131852148Y-103497291D01*
X131891497Y-103554475D01*
X131937829Y-103622194D01*
X131984087Y-103690120D01*
X132008845Y-103726639D01*
X132092453Y-103850248D01*
X132036350Y-103954009D01*
X132011772Y-104001280D01*
X131992669Y-104041477D01*
X131981773Y-104068674D01*
X131980257Y-104075598D01*
X131991451Y-104083923D01*
X132023083Y-104100346D01*
X132072235Y-104123643D01*
X132135990Y-104152586D01*
X132211429Y-104185950D01*
X132295636Y-104222509D01*
X132385692Y-104261036D01*
X132478679Y-104300306D01*
X132571680Y-104339092D01*
X132661777Y-104376170D01*
X132746052Y-104410311D01*
X132821587Y-104440292D01*
X132885466Y-104464884D01*
X132934769Y-104482864D01*
X132966579Y-104493003D01*
X132977504Y-104494634D01*
X132991439Y-104481709D01*
X133014060Y-104453411D01*
X133040667Y-104415654D01*
X133042772Y-104412485D01*
X133120886Y-104314900D01*
X133212018Y-104236214D01*
X133313255Y-104177109D01*
X133421682Y-104138268D01*
X133534386Y-104120372D01*
X133648452Y-104124103D01*
X133760966Y-104150143D01*
X133869015Y-104199175D01*
X133892655Y-104213600D01*
X133988113Y-104288631D01*
X134064768Y-104377270D01*
X134122220Y-104476451D01*
X134160071Y-104583105D01*
X134177922Y-104694164D01*
X134175375Y-104806561D01*
X134152030Y-104917227D01*
X134107490Y-105023094D01*
X134041355Y-105121095D01*
X134014513Y-105151410D01*
X133930488Y-105228562D01*
X133842034Y-105284782D01*
X133742885Y-105323347D01*
X133644697Y-105344826D01*
X133534303Y-105350128D01*
X133423360Y-105332448D01*
X133315619Y-105293581D01*
X133214831Y-105235323D01*
X133124744Y-105159469D01*
X133049108Y-105067817D01*
X133041136Y-105055772D01*
X133015026Y-105017611D01*
X132992405Y-104988601D01*
X132977961Y-104974732D01*
X132977504Y-104974531D01*
X132961879Y-104977508D01*
X132926418Y-104989311D01*
X132874038Y-105008714D01*
X132807655Y-105034488D01*
X132730186Y-105065409D01*
X132644550Y-105100249D01*
X132553663Y-105137783D01*
X132460441Y-105176783D01*
X132367803Y-105216023D01*
X132278665Y-105254276D01*
X132195945Y-105290317D01*
X132122559Y-105322917D01*
X132061425Y-105350852D01*
X132015459Y-105372895D01*
X131987579Y-105387818D01*
X131980257Y-105393828D01*
X131985959Y-105412191D01*
X132001251Y-105446552D01*
X132023401Y-105490984D01*
X132036350Y-105515417D01*
X132092453Y-105619178D01*
X132008845Y-105742787D01*
X131966013Y-105805886D01*
X131918878Y-105874970D01*
X131874497Y-105939707D01*
X131852148Y-105972134D01*
X131821523Y-106017741D01*
X131797253Y-106056360D01*
X131782413Y-106082952D01*
X131779276Y-106091590D01*
X131787739Y-106104161D01*
X131811364Y-106131984D01*
X131847698Y-106172361D01*
X131894289Y-106222595D01*
X131948683Y-106279988D01*
X131983608Y-106316286D01*
X132046004Y-106379790D01*
X132101812Y-106434673D01*
X132148646Y-106478714D01*
X132184118Y-106509695D01*
X132205839Y-106525398D01*
X132210248Y-106526905D01*
X132227015Y-106519914D01*
X132260918Y-106500594D01*
X132308524Y-106471091D01*
X132366401Y-106433545D01*
X132431116Y-106390100D01*
X132449158Y-106377745D01*
X132514733Y-106332727D01*
X132573772Y-106292340D01*
X132622958Y-106258840D01*
X132658972Y-106234486D01*
X132678498Y-106221536D01*
X132680517Y-106220285D01*
X132696078Y-106222156D01*
X132730291Y-106232087D01*
X132778645Y-106248347D01*
X132836629Y-106269205D01*
X132899730Y-106292927D01*
X132963437Y-106317784D01*
X133023239Y-106342042D01*
X133074624Y-106363971D01*
X133113081Y-106381838D01*
X133134098Y-106393913D01*
X133135106Y-106394771D01*
X133141112Y-106402154D01*
X133147052Y-106414625D01*
X133153540Y-106434920D01*
X133161191Y-106465778D01*
X133170620Y-106509934D01*
X133182441Y-106570126D01*
X133197271Y-106649093D01*
X133215723Y-106749570D01*
X133219690Y-106771325D01*
X133232147Y-106835802D01*
X133244334Y-106892011D01*
X133255074Y-106934987D01*
X133263191Y-106959760D01*
X133265084Y-106963082D01*
X133281862Y-106968556D01*
X133319355Y-106973006D01*
X133373206Y-106976428D01*
X133439056Y-106978819D01*
X133512547Y-106980177D01*
X133589320Y-106980499D01*
X133665017Y-106979781D01*
X133735280Y-106978021D01*
X133795750Y-106975216D01*
X133842070Y-106971362D01*
X133869881Y-106966457D01*
X133875573Y-106963500D01*
X133881314Y-106947037D01*
X133890655Y-106909551D01*
X133902785Y-106854775D01*
X133916893Y-106786445D01*
X133932170Y-106708294D01*
X133940177Y-106665716D01*
X133955279Y-106584929D01*
X133968960Y-106512887D01*
X133980533Y-106453111D01*
X133989313Y-106409121D01*
X133994613Y-106384439D01*
X133995788Y-106380377D01*
X134009035Y-106373511D01*
X134040943Y-106358998D01*
X134086953Y-106338771D01*
X134142508Y-106314766D01*
X134203047Y-106288918D01*
X134264014Y-106263160D01*
X134320849Y-106239427D01*
X134368994Y-106219654D01*
X134403890Y-106205776D01*
X134420979Y-106199726D01*
X134421726Y-106199614D01*
X134435207Y-106206472D01*
X134466230Y-106225698D01*
X134511711Y-106255272D01*
X134568568Y-106293173D01*
X134633717Y-106337380D01*
X134671138Y-106363079D01*
X134739753Y-106409907D01*
X134802048Y-106451499D01*
X134854871Y-106485825D01*
X134895073Y-106510857D01*
X134919500Y-106524565D01*
X134924976Y-106526544D01*
X134937722Y-106518034D01*
X134964937Y-106494507D01*
X135003572Y-106458968D01*
X135050577Y-106414423D01*
X135102905Y-106363877D01*
X135157505Y-106310336D01*
X135211330Y-106256805D01*
X135261330Y-106206289D01*
X135304457Y-106161794D01*
X135337661Y-106126325D01*
X135357894Y-106102887D01*
X135362722Y-106095046D01*
X135355933Y-106082280D01*
X135336858Y-106051744D01*
X135307439Y-106006410D01*
X135269619Y-105949244D01*
X135225339Y-105883216D01*
X135191605Y-105833410D01*
X135020488Y-105581764D01*
X135106959Y-105372001D01*
X135193430Y-105162237D01*
X135494982Y-105105389D01*
X135796534Y-105048540D01*
X135796534Y-104420885D01*
X135494982Y-104364036D01*
D13*
G04 #@! TO.C,C3*
X121245000Y-112461000D02*
X121945000Y-112461000D01*
X121945000Y-111261000D02*
X121245000Y-111261000D01*
G04 #@! TO.C,LCD1*
D15*
X121007532Y-100437892D02*
X121007532Y-99961701D01*
X120007532Y-99961701D01*
X120912294Y-101342654D02*
X120959913Y-101295035D01*
X121007532Y-101152178D01*
X121007532Y-101056939D01*
X120959913Y-100914082D01*
X120864675Y-100818844D01*
X120769437Y-100771225D01*
X120578961Y-100723606D01*
X120436104Y-100723606D01*
X120245628Y-100771225D01*
X120150390Y-100818844D01*
X120055152Y-100914082D01*
X120007532Y-101056939D01*
X120007532Y-101152178D01*
X120055152Y-101295035D01*
X120102771Y-101342654D01*
X121007532Y-101771225D02*
X120007532Y-101771225D01*
X120007532Y-102009320D01*
X120055152Y-102152178D01*
X120150390Y-102247416D01*
X120245628Y-102295035D01*
X120436104Y-102342654D01*
X120578961Y-102342654D01*
X120769437Y-102295035D01*
X120864675Y-102247416D01*
X120959913Y-102152178D01*
X121007532Y-102009320D01*
X121007532Y-101771225D01*
X121007532Y-103295035D02*
X121007532Y-102723606D01*
X121007532Y-103009320D02*
X120007532Y-103009320D01*
X120150390Y-102914082D01*
X120245628Y-102818844D01*
X120293247Y-102723606D01*
G04 #@! TO.C,C1*
X127748004Y-93798142D02*
X127795623Y-93845761D01*
X127938480Y-93893380D01*
X128033718Y-93893380D01*
X128176576Y-93845761D01*
X128271814Y-93750523D01*
X128319433Y-93655285D01*
X128367052Y-93464809D01*
X128367052Y-93321952D01*
X128319433Y-93131476D01*
X128271814Y-93036238D01*
X128176576Y-92941000D01*
X128033718Y-92893380D01*
X127938480Y-92893380D01*
X127795623Y-92941000D01*
X127748004Y-92988619D01*
X126795623Y-93893380D02*
X127367052Y-93893380D01*
X127081338Y-93893380D02*
X127081338Y-92893380D01*
X127176576Y-93036238D01*
X127271814Y-93131476D01*
X127367052Y-93179095D01*
G04 #@! TO.C,C2*
X130018004Y-93928142D02*
X130065623Y-93975761D01*
X130208480Y-94023380D01*
X130303718Y-94023380D01*
X130446576Y-93975761D01*
X130541814Y-93880523D01*
X130589433Y-93785285D01*
X130637052Y-93594809D01*
X130637052Y-93451952D01*
X130589433Y-93261476D01*
X130541814Y-93166238D01*
X130446576Y-93071000D01*
X130303718Y-93023380D01*
X130208480Y-93023380D01*
X130065623Y-93071000D01*
X130018004Y-93118619D01*
X129637052Y-93118619D02*
X129589433Y-93071000D01*
X129494195Y-93023380D01*
X129256099Y-93023380D01*
X129160861Y-93071000D01*
X129113242Y-93118619D01*
X129065623Y-93213857D01*
X129065623Y-93309095D01*
X129113242Y-93451952D01*
X129684671Y-94023380D01*
X129065623Y-94023380D01*
G04 #@! TO.C,C4*
X126222142Y-113803875D02*
X126269761Y-113756256D01*
X126317380Y-113613399D01*
X126317380Y-113518161D01*
X126269761Y-113375303D01*
X126174523Y-113280065D01*
X126079285Y-113232446D01*
X125888809Y-113184827D01*
X125745952Y-113184827D01*
X125555476Y-113232446D01*
X125460238Y-113280065D01*
X125365000Y-113375303D01*
X125317380Y-113518161D01*
X125317380Y-113613399D01*
X125365000Y-113756256D01*
X125412619Y-113803875D01*
X125650714Y-114661018D02*
X126317380Y-114661018D01*
X125269761Y-114422922D02*
X125984047Y-114184827D01*
X125984047Y-114803875D01*
G04 #@! TO.C,C5*
X139752142Y-98384333D02*
X139799761Y-98336714D01*
X139847380Y-98193857D01*
X139847380Y-98098619D01*
X139799761Y-97955761D01*
X139704523Y-97860523D01*
X139609285Y-97812904D01*
X139418809Y-97765285D01*
X139275952Y-97765285D01*
X139085476Y-97812904D01*
X138990238Y-97860523D01*
X138895000Y-97955761D01*
X138847380Y-98098619D01*
X138847380Y-98193857D01*
X138895000Y-98336714D01*
X138942619Y-98384333D01*
X138847380Y-99289095D02*
X138847380Y-98812904D01*
X139323571Y-98765285D01*
X139275952Y-98812904D01*
X139228333Y-98908142D01*
X139228333Y-99146238D01*
X139275952Y-99241476D01*
X139323571Y-99289095D01*
X139418809Y-99336714D01*
X139656904Y-99336714D01*
X139752142Y-99289095D01*
X139799761Y-99241476D01*
X139847380Y-99146238D01*
X139847380Y-98908142D01*
X139799761Y-98812904D01*
X139752142Y-98765285D01*
G04 #@! TO.C,C6*
X139852142Y-105874333D02*
X139899761Y-105826714D01*
X139947380Y-105683857D01*
X139947380Y-105588619D01*
X139899761Y-105445761D01*
X139804523Y-105350523D01*
X139709285Y-105302904D01*
X139518809Y-105255285D01*
X139375952Y-105255285D01*
X139185476Y-105302904D01*
X139090238Y-105350523D01*
X138995000Y-105445761D01*
X138947380Y-105588619D01*
X138947380Y-105683857D01*
X138995000Y-105826714D01*
X139042619Y-105874333D01*
X138947380Y-106731476D02*
X138947380Y-106541000D01*
X138995000Y-106445761D01*
X139042619Y-106398142D01*
X139185476Y-106302904D01*
X139375952Y-106255285D01*
X139756904Y-106255285D01*
X139852142Y-106302904D01*
X139899761Y-106350523D01*
X139947380Y-106445761D01*
X139947380Y-106636238D01*
X139899761Y-106731476D01*
X139852142Y-106779095D01*
X139756904Y-106826714D01*
X139518809Y-106826714D01*
X139423571Y-106779095D01*
X139375952Y-106731476D01*
X139328333Y-106636238D01*
X139328333Y-106445761D01*
X139375952Y-106350523D01*
X139423571Y-106302904D01*
X139518809Y-106255285D01*
G04 #@! TO.C,R1*
X118673718Y-109903875D02*
X118197528Y-109570542D01*
X118673718Y-109332446D02*
X117673718Y-109332446D01*
X117673718Y-109713399D01*
X117721338Y-109808637D01*
X117768957Y-109856256D01*
X117864195Y-109903875D01*
X118007052Y-109903875D01*
X118102290Y-109856256D01*
X118149909Y-109808637D01*
X118197528Y-109713399D01*
X118197528Y-109332446D01*
X118673718Y-110856256D02*
X118673718Y-110284827D01*
X118673718Y-110570542D02*
X117673718Y-110570542D01*
X117816576Y-110475303D01*
X117911814Y-110380065D01*
X117959433Y-110284827D01*
G04 #@! TO.C,R2*
X132761666Y-93913380D02*
X133095000Y-93437190D01*
X133333095Y-93913380D02*
X133333095Y-92913380D01*
X132952142Y-92913380D01*
X132856904Y-92961000D01*
X132809285Y-93008619D01*
X132761666Y-93103857D01*
X132761666Y-93246714D01*
X132809285Y-93341952D01*
X132856904Y-93389571D01*
X132952142Y-93437190D01*
X133333095Y-93437190D01*
X132380714Y-93008619D02*
X132333095Y-92961000D01*
X132237857Y-92913380D01*
X131999761Y-92913380D01*
X131904523Y-92961000D01*
X131856904Y-93008619D01*
X131809285Y-93103857D01*
X131809285Y-93199095D01*
X131856904Y-93341952D01*
X132428333Y-93913380D01*
X131809285Y-93913380D01*
G04 #@! TO.C,C3*
X121761666Y-113718142D02*
X121809285Y-113765761D01*
X121952142Y-113813380D01*
X122047380Y-113813380D01*
X122190238Y-113765761D01*
X122285476Y-113670523D01*
X122333095Y-113575285D01*
X122380714Y-113384809D01*
X122380714Y-113241952D01*
X122333095Y-113051476D01*
X122285476Y-112956238D01*
X122190238Y-112861000D01*
X122047380Y-112813380D01*
X121952142Y-112813380D01*
X121809285Y-112861000D01*
X121761666Y-112908619D01*
X121428333Y-112813380D02*
X120809285Y-112813380D01*
X121142619Y-113194333D01*
X120999761Y-113194333D01*
X120904523Y-113241952D01*
X120856904Y-113289571D01*
X120809285Y-113384809D01*
X120809285Y-113622904D01*
X120856904Y-113718142D01*
X120904523Y-113765761D01*
X120999761Y-113813380D01*
X121285476Y-113813380D01*
X121380714Y-113765761D01*
X121428333Y-113718142D01*
G04 #@! TD*
M02*
